<?xml version="1.0" encoding="UTF-8"?>
<!DOCTYPE svg PUBLIC "-//W3C//DTD SVG 1.1//EN" "http://www.w3.org/Graphics/SVG/1.1/DTD/svg11.dtd">
<svg xmlns="http://www.w3.org/2000/svg" version="1.1" width="1500px" height="1558px" style="shape-rendering:geometricPrecision; text-rendering:geometricPrecision; image-rendering:optimizeQuality; fill-rule:evenodd; clip-rule:evenodd" xmlns:xlink="http://www.w3.org/1999/xlink">
<g><path style="opacity:1" fill="#9d8cb8" d="M -0.5,-0.5 C 499.5,-0.5 999.5,-0.5 1499.5,-0.5C 1499.5,235.167 1499.5,470.833 1499.5,706.5C 1490.17,704.833 1480.83,703.166 1471.5,701.5C 1420.53,694.23 1370.03,696.563 1320,708.5C 1319.5,708.167 1319,707.833 1318.5,707.5C 1323.36,685.438 1326.03,663.105 1326.5,640.5C 1326.5,639.833 1326.5,639.167 1326.5,638.5C 1334.2,630.967 1341.37,622.967 1348,614.5C 1354.42,605.479 1356.75,595.479 1355,584.5C 1350.31,575.473 1343.81,567.973 1335.5,562C 1313.29,546.596 1288.63,537.93 1261.5,536C 1246.5,535.333 1231.5,535.333 1216.5,536C 1201.76,537.859 1187.09,539.859 1172.5,542C 1159.37,524.255 1142.37,511.588 1121.5,504C 1101.09,494.718 1079.76,488.718 1057.5,486C 1047.82,485.832 1038.15,485.332 1028.5,484.5C 1030.52,476.975 1031.02,469.308 1030,461.5C 1028.44,456.72 1026.11,452.387 1023,448.5C 1025.57,455.148 1027.07,462.148 1027.5,469.5C 1027.39,475.357 1026.39,481.024 1024.5,486.5C 1022.83,486.5 1021.17,486.5 1019.5,486.5C 1021.54,481.032 1022.54,475.365 1022.5,469.5C 1020.97,457.914 1020.14,446.248 1020,434.5C 1016.09,415.839 1006.92,400.339 992.5,388C 972.712,372.794 956.212,375.628 943,396.5C 930.824,385.9 917.324,383.9 902.5,390.5C 884.481,376.332 865.481,363.498 845.5,352C 858.702,317.537 860.868,282.371 852,246.5C 836.261,200.416 804.094,177.249 755.5,177C 737.234,181.1 722.9,190.933 712.5,206.5C 711.667,206.833 710.833,207.167 710,207.5C 670.706,194.505 630.373,187.172 589,185.5C 542.979,185.405 498.812,194.238 456.5,212C 447.016,216.239 438.016,221.239 429.5,227C 385.396,224.934 345.729,236.934 310.5,263C 302.427,269.398 296.26,277.231 292,286.5C 286.392,308.784 294.225,324.284 315.5,333C 322.331,338.108 322.997,343.775 317.5,350C 292.026,351.963 277.192,365.463 273,390.5C 272.076,444.058 287.409,492.391 319,535.5C 325.871,544.038 333.704,551.538 342.5,558C 305.004,621.825 271.837,687.992 243,756.5C 236.976,771.404 232.476,786.737 229.5,802.5C 229.28,808.57 231.947,812.737 237.5,815C 257.582,825.137 278.082,834.304 299,842.5C 300.03,842.836 300.53,843.503 300.5,844.5C 299.833,844.5 299.5,844.833 299.5,845.5C 287.578,886.676 276.245,928.009 265.5,969.5C 267.861,969.326 270.194,968.993 272.5,968.5C 287.958,965.842 303.458,965.842 319,968.5C 320.03,968.836 320.53,969.503 320.5,970.5C 259.02,961.322 214.186,984.322 186,1039.5C 128.298,1093.29 108.965,1158.62 128,1235.5C 131.768,1247.98 136.601,1259.98 142.5,1271.5C 139.255,1287.81 141.755,1303.14 150,1317.5C 152.667,1321.5 155.333,1325.5 158,1329.5C 167.701,1341.03 177.868,1352.03 188.5,1362.5C 171.221,1404.09 170.055,1446.09 185,1488.5C 192.335,1505.85 203.502,1520.18 218.5,1531.5C 220.931,1540.09 222.931,1548.76 224.5,1557.5C 149.5,1557.5 74.5,1557.5 -0.5,1557.5C -0.5,1038.17 -0.5,518.833 -0.5,-0.5 Z"/></g>
<g><path style="opacity:1" fill="#030202" d="M 1326.5,638.5 C 1298.71,660.408 1268.88,679.408 1237,695.5C 1234.03,725.412 1223.36,752.078 1205,775.5C 1207.15,765.216 1209.49,754.883 1212,744.5C 1214.18,730.234 1214.85,715.901 1214,701.5C 1185.11,707.019 1156.27,706.519 1127.5,700C 1100.28,693.743 1078.78,679.243 1063,656.5C 1051.93,639.764 1049.93,622.097 1057,603.5C 1070.09,582.755 1088.26,568.255 1111.5,560C 1126.79,554.622 1142.13,549.789 1157.5,545.5C 1159.2,545.66 1160.87,545.494 1162.5,545C 1163.83,544.333 1163.83,543.667 1162.5,543C 1149.89,536.528 1137.23,530.362 1124.5,524.5C 1096.33,507.886 1066,501.219 1033.5,504.5C 1021.73,505.153 1010.07,506.653 998.5,509C 992.061,513.152 985.061,516.152 977.5,518C 960.879,518.662 944.879,521.828 929.5,527.5C 927.784,527.629 926.117,527.962 924.5,528.5C 917.914,529.626 911.247,529.792 904.5,529C 902.051,528.275 899.717,527.275 897.5,526C 887.187,525.249 886.187,527.582 894.5,533C 892.833,533.833 891.167,534.667 889.5,535.5C 886.5,533.5 883.5,531.5 880.5,529.5C 879.772,532.802 879.605,536.135 880,539.5C 878.959,536.171 877.459,533.171 875.5,530.5C 871.752,538.77 866.918,546.436 861,553.5C 861.667,550.167 862.333,546.833 863,543.5C 854.334,550.001 846.501,557.334 839.5,565.5C 831.609,573.541 822.276,579.374 811.5,583C 801.347,586.098 791.013,588.431 780.5,590C 790.718,595.885 798.551,604.051 804,614.5C 804.991,616.447 805.325,618.447 805,620.5C 785.702,604.929 764.202,593.096 740.5,585C 705.598,573.358 669.931,564.691 633.5,559C 636.877,558.548 640.211,557.882 643.5,557C 656.846,556.587 670.18,556.587 683.5,557C 667.607,537.62 663.107,515.787 670,491.5C 668.655,518.146 677.155,540.979 695.5,560C 702.603,561.237 709.603,562.571 716.5,564C 685.638,542.753 673.972,513.753 681.5,477C 683.585,474.581 684.585,471.747 684.5,468.5C 683.167,468.5 681.833,468.5 680.5,468.5C 680.5,466.833 680.5,465.167 680.5,463.5C 697.129,459.677 713.796,455.844 730.5,452C 762.498,449.334 793.498,453.667 823.5,465C 838.672,471.238 851.672,480.405 862.5,492.5C 867.152,497.323 870.818,502.823 873.5,509C 890.481,508.361 900.315,499.528 903,482.5C 904.786,466.564 898.62,455.064 884.5,448C 880.736,447.015 876.903,446.515 873,446.5C 860.915,449.033 849.415,447.533 838.5,442C 836.63,439.96 834.63,438.127 832.5,436.5C 831.537,435.637 831.537,434.97 832.5,434.5C 838.12,436.696 843.953,438.03 850,438.5C 862.341,436.83 874.675,435.164 887,433.5C 896.455,432.641 903.455,436.308 908,444.5C 914.38,459.469 917.713,475.136 918,491.5C 919.117,490.051 919.784,488.384 920,486.5C 920.95,479.193 921.617,471.86 922,464.5C 923.985,468.206 924.818,472.206 924.5,476.5C 924.528,485.638 923.695,494.638 922,503.5C 935.78,483.9 935.946,464.234 922.5,444.5C 920.769,441.385 918.769,438.385 916.5,435.5C 917,435.167 917.5,434.833 918,434.5C 928.475,438.975 935.475,446.642 939,457.5C 940.715,463.074 942.048,468.74 943,474.5C 960.19,456.319 980.69,443.319 1004.5,435.5C 1006.25,435.582 1007.25,434.749 1007.5,433C 1002.65,418.298 994.317,405.964 982.5,396C 970.739,386.283 960.239,387.45 951,399.5C 946.968,405.566 943.468,411.899 940.5,418.5C 938.732,421.606 937.232,424.939 936,428.5C 935.863,420.652 937.03,412.985 939.5,405.5C 940.751,404.528 940.418,403.861 938.5,403.5C 927.283,401.027 916.283,398.027 905.5,394.5C 904.289,395.274 904.289,396.107 905.5,397C 909.388,399.772 913.388,402.272 917.5,404.5C 914.658,405.346 911.992,404.679 909.5,402.5C 886.291,392.566 864.624,380.066 844.5,365C 840.745,364.245 837.078,364.411 833.5,365.5C 798.154,366.668 762.821,370.168 727.5,376C 680.441,383.079 633.774,392.079 587.5,403C 591.327,404.746 594.993,406.746 598.5,409C 589.675,411.789 580.675,413.789 571.5,415C 579.389,421.611 588.389,426.111 598.5,428.5C 586.186,433.245 573.519,436.745 560.5,439C 570.055,444.942 580.388,448.942 591.5,451C 573.511,460.133 554.511,466.133 534.5,469C 544.827,475.663 555.827,480.996 567.5,485C 555.552,496.941 541.552,505.608 525.5,511C 533.129,513.478 539.796,517.478 545.5,523C 524.511,522.524 503.511,522.524 482.5,523C 489,528.167 495.5,533.333 502,538.5C 502.667,539.5 502.667,540.5 502,541.5C 484.943,563.115 462.776,576.115 435.5,580.5C 425.866,581.392 416.199,581.725 406.5,581.5C 406.663,583.857 406.497,586.19 406,588.5C 399.435,598.74 393.268,609.24 387.5,620C 398.325,620.023 408.992,620.69 419.5,622C 391.822,653.52 375.155,690.02 369.5,731.5C 378.833,725.833 388.167,720.167 397.5,714.5C 400.853,734.348 403.353,754.348 405,774.5C 410.333,767.833 415.667,761.167 421,754.5C 421.167,754.833 421.333,755.167 421.5,755.5C 417.574,761.025 413.907,766.691 410.5,772.5C 408.442,774.927 406.609,777.593 405,780.5C 401.343,761.519 397.676,742.519 394,723.5C 382.758,731.539 371.258,739.205 359.5,746.5C 358.828,729.853 360.995,713.52 366,697.5C 373.084,673.571 383.251,651.071 396.5,630C 387.207,630.552 377.873,630.552 368.5,630C 377.994,612.009 387.994,594.342 398.5,577C 390.655,574.957 382.988,572.457 375.5,569.5C 366.212,566.106 357.379,561.773 349,556.5C 319.214,622.739 288.881,688.739 258,754.5C 250.746,770.003 244.913,786.003 240.5,802.5C 240.57,803.772 240.903,804.938 241.5,806C 261.002,817.919 280.668,829.585 300.5,841C 301.791,842.292 301.791,843.458 300.5,844.5C 300.53,843.503 300.03,842.836 299,842.5C 278.082,834.304 257.582,825.137 237.5,815C 231.947,812.737 229.28,808.57 229.5,802.5C 232.476,786.737 236.976,771.404 243,756.5C 271.837,687.992 305.004,621.825 342.5,558C 333.704,551.538 325.871,544.038 319,535.5C 287.409,492.391 272.076,444.058 273,390.5C 277.192,365.463 292.026,351.963 317.5,350C 322.997,343.775 322.331,338.108 315.5,333C 294.225,324.284 286.392,308.784 292,286.5C 296.26,277.231 302.427,269.398 310.5,263C 345.729,236.934 385.396,224.934 429.5,227C 438.016,221.239 447.016,216.239 456.5,212C 498.812,194.238 542.979,185.405 589,185.5C 630.373,187.172 670.706,194.505 710,207.5C 710.833,207.167 711.667,206.833 712.5,206.5C 722.9,190.933 737.234,181.1 755.5,177C 804.094,177.249 836.261,200.416 852,246.5C 860.868,282.371 858.702,317.537 845.5,352C 865.481,363.498 884.481,376.332 902.5,390.5C 917.324,383.9 930.824,385.9 943,396.5C 956.212,375.628 972.712,372.794 992.5,388C 1006.92,400.339 1016.09,415.839 1020,434.5C 1020.14,446.248 1020.97,457.914 1022.5,469.5C 1022.54,475.365 1021.54,481.032 1019.5,486.5C 1021.17,486.5 1022.83,486.5 1024.5,486.5C 1026.39,481.024 1027.39,475.357 1027.5,469.5C 1027.07,462.148 1025.57,455.148 1023,448.5C 1026.11,452.387 1028.44,456.72 1030,461.5C 1031.02,469.308 1030.52,476.975 1028.5,484.5C 1038.15,485.332 1047.82,485.832 1057.5,486C 1079.76,488.718 1101.09,494.718 1121.5,504C 1142.37,511.588 1159.37,524.255 1172.5,542C 1187.09,539.859 1201.76,537.859 1216.5,536C 1231.5,535.333 1246.5,535.333 1261.5,536C 1288.63,537.93 1313.29,546.596 1335.5,562C 1343.81,567.973 1350.31,575.473 1355,584.5C 1356.75,595.479 1354.42,605.479 1348,614.5C 1341.37,622.967 1334.2,630.967 1326.5,638.5 Z"/></g>
<g><path style="opacity:1" fill="#e5b3a2" d="M 772.5,235.5 C 777.614,230.117 783.281,225.45 789.5,221.5C 793.459,222.55 797.459,223.05 801.5,223C 783.263,209.768 764.763,209.268 746,221.5C 737.231,218.192 728.731,214.526 720.5,210.5C 740.694,185.454 765.36,179.954 794.5,194C 825.232,210.24 843.065,235.74 848,270.5C 851.427,296.61 849.427,322.276 842,347.5C 835.058,314.302 821.392,284.302 801,257.5C 792.463,248.827 782.963,241.493 772.5,235.5 Z"/></g>
<g><path style="opacity:1" fill="#222121" d="M 547.5,334.5 C 548.649,334.209 549.316,333.376 549.5,332C 549.472,330.93 549.139,330.097 548.5,329.5C 539.881,281.375 512.215,249.875 465.5,235C 458.529,233.174 451.529,231.507 444.5,230C 471.311,214.84 499.978,204.84 530.5,200C 565.708,193.445 601.042,192.778 636.5,198C 683.609,204.939 728.275,219.273 770.5,241C 777.748,245.452 784.414,250.619 790.5,256.5C 787.392,261.112 783.725,265.278 779.5,269C 762.902,282.636 744.236,292.636 723.5,299C 692.983,307.071 662.317,314.071 631.5,320C 640.603,313.53 648.77,306.03 656,297.5C 657.289,295.945 657.956,294.279 658,292.5C 625.121,313.629 589.621,328.629 551.5,337.5C 550.201,336.306 548.868,335.306 547.5,334.5 Z"/></g>
<g><path style="opacity:1" fill="#030202" d="M 570.5,206.5 C 585.003,205.867 599.336,207.034 613.5,210C 585.724,212.041 558.058,214.708 530.5,218C 535.81,214.894 541.477,212.561 547.5,211C 555.276,209.349 562.943,207.849 570.5,206.5 Z"/></g>
<g><path style="opacity:1" fill="#d96e5d" d="M 789.5,221.5 C 783.281,225.45 777.614,230.117 772.5,235.5C 767.527,232.679 762.527,229.845 757.5,227C 761.234,224.754 765.234,223.087 769.5,222C 776.158,221.5 782.825,221.334 789.5,221.5 Z"/></g>
<g><path style="opacity:1" fill="#e6b4a2" d="M 542.5,330.5 C 542.232,332.099 542.566,333.432 543.5,334.5C 548.114,353.174 554.614,371.174 563,388.5C 566.303,393.969 569.803,399.302 573.5,404.5C 566.496,405.676 559.496,405.676 552.5,404.5C 538.114,387.427 525.948,368.76 516,348.5C 512.226,334.507 506.893,321.173 500,308.5C 495.909,302.653 491.576,296.987 487,291.5C 482.94,287.93 478.773,284.596 474.5,281.5C 446.035,254.574 413.702,248.741 377.5,264C 359.84,273.317 344.174,285.317 330.5,300C 331.167,300.667 331.833,300.667 332.5,300C 337.993,294.761 343.993,290.261 350.5,286.5C 408.799,319.018 417.632,361.685 377,414.5C 360.628,432.936 340.128,442.603 315.5,443.5C 311.05,429.75 308.217,415.75 307,401.5C 303.156,408.687 301.656,416.354 302.5,424.5C 303.116,448.061 312.116,467.728 329.5,483.5C 332.901,492.634 338.068,500.634 345,507.5C 350.515,520.705 357.681,532.871 366.5,544C 360.377,541.945 354.377,539.279 348.5,536C 336.003,528.978 323.669,521.811 311.5,514.5C 288.326,476.455 277.826,435.121 280,390.5C 283.845,370.32 296.012,359.82 316.5,359C 326.689,355.468 330.855,348.302 329,337.5C 325.557,329.158 319.39,323.658 310.5,321C 295.027,306.759 294.527,291.926 309,276.5C 344.836,246.154 386.336,233.32 433.5,238C 467.596,240.016 496.429,253.182 520,277.5C 531.697,293.436 539.197,311.102 542.5,330.5 Z"/></g>
<g><path style="opacity:1" fill="#0b0504" d="M 474.5,281.5 C 490.17,297.836 500.336,317.169 505,339.5C 503.589,369.043 510.089,396.709 524.5,422.5C 523.645,423.293 522.811,422.96 522,421.5C 517.936,415.764 514.27,409.764 511,403.5C 507.365,410.747 501.531,415.247 493.5,417C 481.725,417.949 470.058,419.616 458.5,422C 438.386,427.606 427.719,440.772 426.5,461.5C 427.139,467.88 427.639,474.213 428,480.5C 413.114,452.51 419.281,430.676 446.5,415C 452.332,412.723 458.332,411.056 464.5,410C 474.833,409.667 485.167,409.333 495.5,409C 501.148,408.265 505.314,405.432 508,400.5C 508.667,399.167 508.667,397.833 508,396.5C 500.208,378.665 496.208,359.998 496,340.5C 487.3,305.805 466.467,281.638 433.5,268C 412.104,262.257 391.437,264.257 371.5,274C 364.106,277.689 357.106,281.856 350.5,286.5C 343.993,290.261 337.993,294.761 332.5,300C 331.833,300.667 331.167,300.667 330.5,300C 344.174,285.317 359.84,273.317 377.5,264C 413.702,248.741 446.035,254.574 474.5,281.5 Z"/></g>
<g><path style="opacity:1" fill="#de705f" d="M 474.5,281.5 C 478.773,284.596 482.94,287.93 487,291.5C 491.576,296.987 495.909,302.653 500,308.5C 506.893,321.173 512.226,334.507 516,348.5C 525.948,368.76 538.114,387.427 552.5,404.5C 551.448,404.351 550.448,404.517 549.5,405C 553,409.167 556.5,413.333 560,417.5C 563.883,421.05 568.049,424.217 572.5,427C 568.024,428.811 563.357,429.811 558.5,430C 549.823,430.249 541.157,430.249 532.5,430C 542.812,438.828 554.145,446.161 566.5,452C 544.036,461.378 521.036,463.045 497.5,457C 515.509,467.655 534.009,477.489 553,486.5C 554.257,486.85 554.591,487.517 554,488.5C 536.997,502.387 517.497,508.221 495.5,506C 505.577,509.47 515.577,513.137 525.5,517C 512.167,517.333 498.833,517.667 485.5,518C 481.106,518.303 476.773,518.97 472.5,520C 479.627,526.961 486.627,534.128 493.5,541.5C 458.696,568.928 419.696,577.428 376.5,567C 348.993,556.653 327.327,539.153 311.5,514.5C 323.669,521.811 336.003,528.978 348.5,536C 354.377,539.279 360.377,541.945 366.5,544C 357.681,532.871 350.515,520.705 345,507.5C 338.068,500.634 332.901,492.634 329.5,483.5C 331.806,485.035 334.139,486.202 336.5,487C 327.874,473.291 320.874,458.791 315.5,443.5C 340.128,442.603 360.628,432.936 377,414.5C 417.632,361.685 408.799,319.018 350.5,286.5C 357.106,281.856 364.106,277.689 371.5,274C 391.437,264.257 412.104,262.257 433.5,268C 466.467,281.638 487.3,305.805 496,340.5C 496.208,359.998 500.208,378.665 508,396.5C 508.667,397.833 508.667,399.167 508,400.5C 505.314,405.432 501.148,408.265 495.5,409C 485.167,409.333 474.833,409.667 464.5,410C 458.332,411.056 452.332,412.723 446.5,415C 419.281,430.676 413.114,452.51 428,480.5C 427.639,474.213 427.139,467.88 426.5,461.5C 427.719,440.772 438.386,427.606 458.5,422C 470.058,419.616 481.725,417.949 493.5,417C 501.531,415.247 507.365,410.747 511,403.5C 514.27,409.764 517.936,415.764 522,421.5C 522.811,422.96 523.645,423.293 524.5,422.5C 510.089,396.709 503.589,369.043 505,339.5C 500.336,317.169 490.17,297.836 474.5,281.5 Z"/></g>
<g><path style="opacity:1" fill="#222121" d="M 802.5,270.5 C 811.697,282.215 818.864,295.215 824,309.5C 829.596,325.446 833.429,341.78 835.5,358.5C 747.653,362.428 661.153,375.428 576,397.5C 570.899,392.024 566.899,385.69 564,378.5C 559.592,368.111 556.092,357.444 553.5,346.5C 566.369,343.377 579.036,339.544 591.5,335C 642.967,328.7 693.3,317.367 742.5,301C 756.552,295.81 769.552,288.81 781.5,280C 784.118,277.261 786.618,274.427 789,271.5C 791.583,274.997 793.916,278.664 796,282.5C 796.333,280.167 796.667,277.833 797,275.5C 799.053,281.694 799.719,288.027 799,294.5C 798.667,292.5 798.333,290.5 798,288.5C 796.631,305.261 797.964,305.594 802,289.5C 802.5,283.175 802.666,276.842 802.5,270.5 Z"/></g>
<g><path style="opacity:1" fill="#797777" d="M 548.5,329.5 C 549.139,330.097 549.472,330.93 549.5,332C 549.316,333.376 548.649,334.209 547.5,334.5C 545.861,334.074 544.528,334.074 543.5,334.5C 542.566,333.432 542.232,332.099 542.5,330.5C 544.435,329.85 546.435,329.517 548.5,329.5 Z"/></g>
<g><path style="opacity:1" fill="#a5a6a7" d="M 909.5,402.5 C 909.083,403.124 908.416,403.457 907.5,403.5C 885.92,398.209 865.92,389.376 847.5,377C 842.167,373.333 836.833,369.667 831.5,366C 832.094,365.536 832.761,365.369 833.5,365.5C 837.078,364.411 840.745,364.245 844.5,365C 864.624,380.066 886.291,392.566 909.5,402.5 Z"/></g>
<g><path style="opacity:1" fill="#58595b" d="M 833.5,365.5 C 832.761,365.369 832.094,365.536 831.5,366C 836.833,369.667 842.167,373.333 847.5,377C 865.92,389.376 885.92,398.209 907.5,403.5C 908.416,403.457 909.083,403.124 909.5,402.5C 911.992,404.679 914.658,405.346 917.5,404.5C 924.817,405.118 932.151,405.451 939.5,405.5C 937.03,412.985 935.863,420.652 936,428.5C 937.232,424.939 938.732,421.606 940.5,418.5C 944.614,413.564 949.614,408.731 955.5,404C 963.83,400.299 971.83,400.966 979.5,406C 990.178,413.845 998.511,423.678 1004.5,435.5C 980.69,443.319 960.19,456.319 943,474.5C 942.048,468.74 940.715,463.074 939,457.5C 935.475,446.642 928.475,438.975 918,434.5C 917.5,434.833 917,435.167 916.5,435.5C 918.769,438.385 920.769,441.385 922.5,444.5C 925.314,455.177 925.981,465.843 924.5,476.5C 924.818,472.206 923.985,468.206 922,464.5C 921.617,471.86 920.95,479.193 920,486.5C 919.784,488.384 919.117,490.051 918,491.5C 917.713,475.136 914.38,459.469 908,444.5C 903.455,436.308 896.455,432.641 887,433.5C 874.675,435.164 862.341,436.83 850,438.5C 843.953,438.03 838.12,436.696 832.5,434.5C 831.537,434.97 831.537,435.637 832.5,436.5C 838.655,453.091 850.655,461.591 868.5,462C 877.931,464.441 885.431,469.608 891,477.5C 893.587,485.19 891.421,491.356 884.5,496C 877.03,495.811 869.696,494.644 862.5,492.5C 851.672,480.405 838.672,471.238 823.5,465C 793.498,453.667 762.498,449.334 730.5,452C 713.796,455.844 697.129,459.677 680.5,463.5C 680.5,465.167 680.5,466.833 680.5,468.5C 681.833,468.5 683.167,468.5 684.5,468.5C 684.585,471.747 683.585,474.581 681.5,477C 673.972,513.753 685.638,542.753 716.5,564C 709.603,562.571 702.603,561.237 695.5,560C 677.155,540.979 668.655,518.146 670,491.5C 663.107,515.787 667.607,537.62 683.5,557C 670.18,556.587 656.846,556.587 643.5,557C 640.211,557.882 636.877,558.548 633.5,559C 669.931,564.691 705.598,573.358 740.5,585C 764.202,593.096 785.702,604.929 805,620.5C 805.325,618.447 804.991,616.447 804,614.5C 798.551,604.051 790.718,595.885 780.5,590C 791.013,588.431 801.347,586.098 811.5,583C 822.276,579.374 831.609,573.541 839.5,565.5C 846.501,557.334 854.334,550.001 863,543.5C 862.333,546.833 861.667,550.167 861,553.5C 866.918,546.436 871.752,538.77 875.5,530.5C 877.459,533.171 878.959,536.171 880,539.5C 879.605,536.135 879.772,532.802 880.5,529.5C 883.5,531.5 886.5,533.5 889.5,535.5C 891.167,534.667 892.833,533.833 894.5,533C 886.187,527.582 887.187,525.249 897.5,526C 899.717,527.275 902.051,528.275 904.5,529C 911.247,529.792 917.914,529.626 924.5,528.5C 948.167,529.833 971.833,529.833 995.5,528.5C 1014,528.344 1032.5,528.01 1051,527.5C 1087.64,526.995 1123.14,532.995 1157.5,545.5C 1142.13,549.789 1126.79,554.622 1111.5,560C 1088.26,568.255 1070.09,582.755 1057,603.5C 1049.93,622.097 1051.93,639.764 1063,656.5C 1078.78,679.243 1100.28,693.743 1127.5,700C 1156.27,706.519 1185.11,707.019 1214,701.5C 1214.85,715.901 1214.18,730.234 1212,744.5C 1209.49,754.883 1207.15,765.216 1205,775.5C 1223.36,752.078 1234.03,725.412 1237,695.5C 1268.88,679.408 1298.71,660.408 1326.5,638.5C 1326.5,639.167 1326.5,639.833 1326.5,640.5C 1321.16,663.867 1315.16,687.201 1308.5,710.5C 1282.31,718.059 1256.81,727.059 1232,737.5C 1230.67,745.836 1234.17,749.003 1242.5,747C 1243.74,745.846 1244.74,744.512 1245.5,743C 1264.98,733.351 1284.98,725.851 1305.5,720.5C 1302.84,728.156 1300.17,735.822 1297.5,743.5C 1274.25,747.312 1251.58,753.312 1229.5,761.5C 1225.47,759.674 1222.31,760.674 1220,764.5C 1218.48,770.151 1220.48,773.484 1226,774.5C 1246.37,764.143 1268.04,757.143 1291,753.5C 1291.83,753.833 1292.67,754.167 1293.5,754.5C 1290.11,762.288 1286.44,769.955 1282.5,777.5C 1269.05,778.014 1255.72,779.514 1242.5,782C 1238.18,786.233 1238.85,789.4 1244.5,791.5C 1255.33,788.499 1266.33,786.999 1277.5,787C 1271.3,796.87 1263.97,805.87 1255.5,814C 1245.2,822.215 1233.54,827.549 1220.5,830C 1186.35,836.216 1152.02,837.216 1117.5,833C 1076.82,829.541 1036.49,823.874 996.5,816C 1041.21,796.701 1087.54,790.368 1135.5,797C 1136.42,796.626 1137.25,796.126 1138,795.5C 1138.67,793.167 1138.67,790.833 1138,788.5C 1136.97,786.484 1135.31,785.484 1133,785.5C 1094.81,783.098 1057.65,788.265 1021.5,801C 1009.83,805.61 998.163,810.11 986.5,814.5C 948.449,807.821 911.116,798.321 874.5,786C 962.427,749.322 1052.43,743.322 1144.5,768C 1150.13,776.471 1155.96,776.638 1162,768.5C 1161.9,757.527 1156.73,754.193 1146.5,758.5C 1062.41,738.116 979.748,742.949 898.5,773C 888.867,776.933 879.201,780.766 869.5,784.5C 860.951,781.892 852.618,778.725 844.5,775C 815.943,758.888 786.943,743.554 757.5,729C 749.167,723.833 740.833,718.667 732.5,713.5C 731.054,710.178 731.554,707.178 734,704.5C 739.423,699.207 745.589,695.041 752.5,692C 734.92,689.311 718.253,691.977 702.5,700C 688.406,709.359 682.239,722.526 684,739.5C 692.549,737.195 701.049,735.028 709.5,733C 756.908,784.239 809.241,827.573 866.5,863C 881.861,871.681 897.528,879.848 913.5,887.5C 911.754,889.252 909.754,890.585 907.5,891.5C 901.397,892.756 895.397,894.422 889.5,896.5C 889.167,896 888.833,895.5 888.5,895C 890.762,890.199 892.595,885.366 894,880.5C 885.094,887.811 874.928,892.645 863.5,895C 848.309,897.982 832.976,899.149 817.5,898.5C 815.52,882.515 807.52,870.515 793.5,862.5C 793.167,862.833 792.833,863.167 792.5,863.5C 794.956,868.526 795.956,873.86 795.5,879.5C 795.498,883.018 795.165,886.351 794.5,889.5C 793.577,888.697 792.577,888.53 791.5,889C 793.917,891.479 794.917,894.479 794.5,898C 794.14,905.353 792.807,912.519 790.5,919.5C 791.48,923.649 793.814,926.816 797.5,929C 803.348,930.893 809.348,931.726 815.5,931.5C 825.511,930.832 835.511,929.999 845.5,929C 861.129,926.229 876.629,923.062 892,919.5C 892.5,919.667 893,919.833 893.5,920C 891.218,922.397 889.884,925.231 889.5,928.5C 886.5,927.833 883.5,927.167 880.5,926.5C 882.41,953.32 891.576,978.987 908,1003.5C 910.552,1006.19 911.719,1005.53 911.5,1001.5C 915.724,1000.12 920.057,999.121 924.5,998.5C 926.03,998.64 927.03,999.307 927.5,1000.5C 925.48,1010.98 923.146,1021.31 920.5,1031.5C 917.557,1032.24 914.557,1032.74 911.5,1033C 899.167,1033.33 886.833,1033.67 874.5,1034C 887.936,1043.57 902.769,1047.07 919,1044.5C 919.096,1052.82 918.929,1061.16 918.5,1069.5C 918.645,1079.22 919.312,1088.88 920.5,1098.5C 898.173,1104.33 878.84,1115.33 862.5,1131.5C 851.443,1117.28 837.443,1107.11 820.5,1101C 815.169,1099.6 809.836,1098.6 804.5,1098C 838.64,1114.05 860.14,1140.55 869,1177.5C 873.11,1192.26 875.443,1207.26 876,1222.5C 870.748,1210.6 863.914,1199.77 855.5,1190C 854.668,1189.31 854.002,1189.48 853.5,1190.5C 872.655,1225.39 880.488,1262.72 877,1302.5C 872.12,1349.64 859.62,1394.64 839.5,1437.5C 838.453,1438.08 838.62,1438.74 840,1439.5C 874.049,1406.06 893.716,1365.4 899,1317.5C 899.873,1300.38 899.54,1283.38 898,1266.5C 916.692,1250.64 935.192,1234.64 953.5,1218.5C 967.362,1211.48 981.696,1205.32 996.5,1200C 975.66,1198.23 955.993,1202.23 937.5,1212C 918.023,1221.98 901.023,1235.14 886.5,1251.5C 884.835,1246.18 883.169,1240.84 881.5,1235.5C 886.76,1208.24 884.593,1181.57 875,1155.5C 872.072,1147.81 868.239,1140.64 863.5,1134C 883.386,1125.56 903.386,1117.39 923.5,1109.5C 929.772,1126.94 942.105,1136.77 960.5,1139C 982.078,1141.63 1002.41,1137.79 1021.5,1127.5C 1031.64,1130.86 1037.14,1127.19 1038,1116.5C 1040.76,1113.57 1043.59,1110.91 1046.5,1108.5C 1071.35,1143.53 1089.85,1181.87 1102,1223.5C 1108.47,1247.15 1110.14,1271.15 1107,1295.5C 1097,1369.85 1081.5,1443.02 1060.5,1515C 1060.67,1515.5 1060.83,1516 1061,1516.5C 1061.94,1514.27 1063.11,1512.27 1064.5,1510.5C 1081.38,1483.92 1096.38,1456.09 1109.5,1427C 1131.08,1418.57 1153.41,1414.57 1176.5,1415C 1194.02,1418.43 1209.35,1426.09 1222.5,1438C 1246.89,1461.37 1267.05,1487.87 1283,1517.5C 1283.89,1518.71 1284.73,1518.71 1285.5,1517.5C 1273.54,1487.56 1257.04,1460.56 1236,1436.5C 1222.94,1422.39 1207.44,1411.89 1189.5,1405C 1164.7,1399.6 1140.54,1401.76 1117,1411.5C 1121.63,1397.62 1126.29,1383.62 1131,1369.5C 1140.06,1337.76 1143.06,1305.43 1140,1272.5C 1136.33,1214.75 1114.16,1165.58 1073.5,1125C 1065.73,1117.9 1057.4,1111.57 1048.5,1106C 1066.53,1086.44 1078.7,1063.61 1085,1037.5C 1087.9,1027.98 1090.06,1018.31 1091.5,1008.5C 1118.09,1014.59 1140.42,1026.93 1158.5,1045.5C 1177.05,1050.45 1194.05,1058.45 1209.5,1069.5C 1216.31,1079.78 1223.15,1090.11 1230,1100.5C 1238.19,1114.54 1243.85,1129.54 1247,1145.5C 1247.5,1152.49 1247.67,1159.49 1247.5,1166.5C 1247.56,1167.61 1247.89,1168.61 1248.5,1169.5C 1256.03,1211.89 1258.19,1254.55 1255,1297.5C 1253.94,1307.93 1252.6,1318.26 1251,1328.5C 1287.43,1363.66 1311.76,1406 1324,1455.5C 1331.61,1489.06 1335.11,1523.06 1334.5,1557.5C 1136.5,1557.5 938.5,1557.5 740.5,1557.5C 741.936,1522.8 739.102,1488.47 732,1454.5C 727.865,1439.76 723.532,1425.1 719,1410.5C 714.694,1376.99 721.527,1345.99 739.5,1317.5C 741.977,1315.76 744.644,1314.26 747.5,1313C 711.758,1323.75 690.258,1347.59 683,1384.5C 680.434,1404.41 681.767,1424.08 687,1443.5C 692.045,1465.64 700.045,1486.64 711,1506.5C 721.538,1522.24 729.371,1539.24 734.5,1557.5C 669.167,1557.5 603.833,1557.5 538.5,1557.5C 545.632,1539.27 551.465,1520.6 556,1501.5C 567.46,1446.31 560.46,1393.65 535,1343.5C 528.654,1332.14 521.321,1321.47 513,1311.5C 516.359,1319.39 520.192,1327.22 524.5,1335C 523.906,1335.46 523.239,1335.63 522.5,1335.5C 549.733,1397.85 555.233,1462.18 539,1528.5C 536.652,1538.23 534.152,1547.89 531.5,1557.5C 525.167,1557.5 518.833,1557.5 512.5,1557.5C 469.564,1541.52 426.564,1525.52 383.5,1509.5C 382.624,1509.37 381.957,1509.7 381.5,1510.5C 389.307,1525.47 400.64,1536.97 415.5,1545C 424.475,1549.48 433.475,1553.65 442.5,1557.5C 402.167,1557.5 361.833,1557.5 321.5,1557.5C 303.087,1542.11 284.42,1526.95 265.5,1512C 243.997,1492.51 225.497,1470.68 210,1446.5C 202.069,1433.21 197.235,1418.87 195.5,1403.5C 195.594,1401.08 196.094,1398.74 197,1396.5C 220.299,1408.2 242.466,1420.87 263.5,1434.5C 251.046,1420.54 238.046,1407.04 224.5,1394C 224.728,1393.6 225.062,1393.43 225.5,1393.5C 241.125,1404.63 254.625,1417.96 266,1433.5C 268.261,1441.27 269.261,1440.94 269,1432.5C 263.658,1420.16 256.325,1409.16 247,1399.5C 221.667,1374.83 196.333,1350.17 171,1325.5C 161.505,1315.52 154.839,1303.85 151,1290.5C 147.845,1272.29 151.679,1255.79 162.5,1241C 161.5,1240.33 160.5,1240.33 159.5,1241C 152.419,1248.33 147.252,1256.83 144,1266.5C 117.651,1188.26 129.651,1116.59 180,1051.5C 168.231,1083.4 164.065,1116.4 167.5,1150.5C 168.054,1161.49 170.221,1172.16 174,1182.5C 176.058,1143.93 186.058,1107.59 204,1073.5C 231.747,1025.38 273.247,1005.21 328.5,1013C 310.621,1053.47 302.621,1095.63 304.5,1139.5C 303.923,1143.87 304.757,1147.87 307,1151.5C 307.837,1147.49 308.671,1143.49 309.5,1139.5C 318.741,1119.01 328.575,1098.68 339,1078.5C 352.11,1054.12 368.277,1031.95 387.5,1012C 397.329,1002.65 408.329,995.152 420.5,989.5C 421.552,989.649 422.552,989.483 423.5,989C 408.112,984.17 392.779,984.336 377.5,989.5C 359.614,982.097 341.948,976.097 324.5,971.5C 362.134,956.012 399.467,940.012 436.5,923.5C 439.042,922.376 441.708,921.542 444.5,921C 437.606,919.282 430.606,918.282 423.5,918C 435.224,905.273 446.057,892.106 456,878.5C 454.296,876.627 452.463,874.96 450.5,873.5C 456.132,857.236 463.632,841.903 473,827.5C 485.465,840.292 496.798,853.958 507,868.5C 529.178,891.176 556.011,905.342 587.5,911C 604.058,914.595 620.725,915.261 637.5,913C 654.359,909.449 671.026,905.616 687.5,901.5C 711.378,899.092 735.378,897.925 759.5,898C 749.273,895.801 738.94,894.301 728.5,893.5C 728.611,892.883 728.944,892.383 729.5,892C 739.295,890.134 748.962,887.801 758.5,885C 755.333,884.833 752.167,884.667 749,884.5C 720.507,886.481 692.007,888.314 663.5,890C 642.46,890.878 621.46,890.378 600.5,888.5C 553.94,876.44 516.773,850.774 489,811.5C 483.417,803.336 478.084,795.003 473,786.5C 477.168,799.507 483.001,811.841 490.5,823.5C 473.314,814.724 456.314,805.057 439.5,794.5C 433.439,775.922 429.106,756.922 426.5,737.5C 421.509,738.289 416.676,739.622 412,741.5C 409.839,723.914 408.672,706.247 408.5,688.5C 404.715,689.03 401.048,690.03 397.5,691.5C 397.11,688.233 397.61,684.899 399,681.5C 411.371,652.254 426.204,624.42 443.5,598C 437.635,597.136 431.969,595.636 426.5,593.5C 429.201,588.827 432.201,584.493 435.5,580.5C 462.776,576.115 484.943,563.115 502,541.5C 502.667,540.5 502.667,539.5 502,538.5C 495.5,533.333 489,528.167 482.5,523C 503.511,522.524 524.511,522.524 545.5,523C 539.796,517.478 533.129,513.478 525.5,511C 541.552,505.608 555.552,496.941 567.5,485C 555.827,480.996 544.827,475.663 534.5,469C 554.511,466.133 573.511,460.133 591.5,451C 580.388,448.942 570.055,444.942 560.5,439C 573.519,436.745 586.186,433.245 598.5,428.5C 588.389,426.111 579.389,421.611 571.5,415C 580.675,413.789 589.675,411.789 598.5,409C 594.993,406.746 591.327,404.746 587.5,403C 633.774,392.079 680.441,383.079 727.5,376C 762.821,370.168 798.154,366.668 833.5,365.5 Z"/></g>
<g><path style="opacity:1" fill="#a7a8a9" d="M 1004.5,435.5 C 998.511,423.678 990.178,413.845 979.5,406C 971.83,400.966 963.83,400.299 955.5,404C 949.614,408.731 944.614,413.564 940.5,418.5C 943.468,411.899 946.968,405.566 951,399.5C 960.239,387.45 970.739,386.283 982.5,396C 994.317,405.964 1002.65,418.298 1007.5,433C 1007.25,434.749 1006.25,435.582 1004.5,435.5 Z"/></g>
<g><path style="opacity:1" fill="#a1a1a3" d="M 939.5,405.5 C 932.151,405.451 924.817,405.118 917.5,404.5C 913.388,402.272 909.388,399.772 905.5,397C 904.289,396.107 904.289,395.274 905.5,394.5C 916.283,398.027 927.283,401.027 938.5,403.5C 940.418,403.861 940.751,404.528 939.5,405.5 Z"/></g>
<g><path style="opacity:1" fill="#0b0706" d="M 315.5,443.5 C 320.874,458.791 327.874,473.291 336.5,487C 334.139,486.202 331.806,485.035 329.5,483.5C 312.116,467.728 303.116,448.061 302.5,424.5C 301.656,416.354 303.156,408.687 307,401.5C 308.217,415.75 311.05,429.75 315.5,443.5 Z"/></g>
<g><path style="opacity:1" fill="#464648" d="M 832.5,436.5 C 834.63,438.127 836.63,439.96 838.5,442C 849.415,447.533 860.915,449.033 873,446.5C 876.903,446.515 880.736,447.015 884.5,448C 898.62,455.064 904.786,466.564 903,482.5C 900.315,499.528 890.481,508.361 873.5,509C 870.818,502.823 867.152,497.323 862.5,492.5C 869.696,494.644 877.03,495.811 884.5,496C 891.421,491.356 893.587,485.19 891,477.5C 885.431,469.608 877.931,464.441 868.5,462C 850.655,461.591 838.655,453.091 832.5,436.5 Z"/></g>
<g><path style="opacity:1" fill="#f97302" d="M 1011.5,476.5 C 1005.58,475.877 1000.75,477.877 997,482.5C 993.666,488.003 992.166,493.837 992.5,500C 990.562,501.431 989.229,503.265 988.5,505.5C 979.13,510.518 969.13,513.185 958.5,513.5C 961.085,508.909 964.085,504.576 967.5,500.5C 969.527,500.662 971.527,500.495 973.5,500C 977.138,494.017 977.471,487.85 974.5,481.5C 976.152,474.057 977.152,466.39 977.5,458.5C 985.004,452.087 993.337,447.253 1002.5,444C 1010.7,453.43 1013.7,464.263 1011.5,476.5 Z"/></g>
<g><path style="opacity:1" fill="#454648" d="M 922.5,444.5 C 935.946,464.234 935.78,483.9 922,503.5C 923.695,494.638 924.528,485.638 924.5,476.5C 925.981,465.843 925.314,455.177 922.5,444.5 Z"/></g>
<g><path style="opacity:1" fill="#fdc206" d="M 993.5,455.5 C 997.664,455.143 1000.83,456.81 1003,460.5C 1004.39,465.279 1002.56,467.613 997.5,467.5C 993.427,467.054 991.427,464.72 991.5,460.5C 991.437,458.486 992.103,456.819 993.5,455.5 Z"/></g>
<g><path style="opacity:1" fill="#f8c215" d="M 977.5,458.5 C 977.152,466.39 976.152,474.057 974.5,481.5C 973.546,478.857 972.546,476.19 971.5,473.5C 972.021,469.519 972.354,465.519 972.5,461.5C 974.001,460.248 975.668,459.248 977.5,458.5 Z"/></g>
<g><path style="opacity:1" fill="#23c9f2" d="M 722.5,463.5 C 720.567,483.766 726.067,501.766 739,517.5C 749.4,530.257 762.233,539.424 777.5,545C 788.567,546.931 799.233,549.764 809.5,553.5C 813.071,555.397 816.071,558.064 818.5,561.5C 813.1,563.741 807.433,565.408 801.5,566.5C 794.676,560.594 786.676,557.094 777.5,556C 765.838,555.5 754.171,555.333 742.5,555.5C 741.041,555.567 739.708,555.234 738.5,554.5C 736.064,553.129 733.397,552.129 730.5,551.5C 726.739,550.453 723.406,548.619 720.5,546C 712.727,538.51 707.06,529.676 703.5,519.5C 701.622,511.9 700.289,504.233 699.5,496.5C 698.928,489.241 699.928,482.241 702.5,475.5C 702.5,475.167 702.5,474.833 702.5,474.5C 704.408,473.514 705.408,471.848 705.5,469.5C 705.733,467.938 706.4,466.605 707.5,465.5C 712.343,463.961 717.343,463.294 722.5,463.5 Z"/></g>
<g><path style="opacity:1" fill="#996dca" d="M 972.5,461.5 C 972.354,465.519 972.021,469.519 971.5,473.5C 969.61,471.41 967.943,469.077 966.5,466.5C 968.491,464.836 970.491,463.169 972.5,461.5 Z"/></g>
<g><path style="opacity:1" fill="#7bc799" d="M 705.5,469.5 C 705.408,471.848 704.408,473.514 702.5,474.5C 702.75,472.326 703.75,470.659 705.5,469.5 Z"/></g>
<g><path style="opacity:1" fill="#f0bd0e" d="M 799.5,471.5 C 799.665,475.182 799.499,478.848 799,482.5C 798.623,483.942 797.79,484.942 796.5,485.5C 796.497,480.473 796.164,475.473 795.5,470.5C 796.959,470.433 798.292,470.766 799.5,471.5 Z"/></g>
<g><path style="opacity:1" fill="#f7c004" d="M 1011.5,476.5 C 1007.87,489.472 1000.2,499.139 988.5,505.5C 989.229,503.265 990.562,501.431 992.5,500C 992.166,493.837 993.666,488.003 997,482.5C 1000.75,477.877 1005.58,475.877 1011.5,476.5 Z"/></g>
<g><path style="opacity:1" fill="#f97602" d="M 818.5,477.5 C 823.828,479.269 828.828,481.602 833.5,484.5C 831.666,487.999 830.666,491.833 830.5,496C 831.549,504.698 834.216,512.865 838.5,520.5C 838.167,520.833 837.833,521.167 837.5,521.5C 827.826,511.015 821.659,498.682 819,484.5C 818.503,482.19 818.337,479.857 818.5,477.5 Z"/></g>
<g><path style="opacity:1" fill="#a172e1" d="M 750.5,463.5 C 756.482,463.24 762.315,463.906 768,465.5C 768.97,469.876 768.137,473.876 765.5,477.5C 765.783,487.019 767.116,496.352 769.5,505.5C 752.767,496.33 746.433,482.33 750.5,463.5 Z"/></g>
<g><path style="opacity:1" fill="#b886b2" d="M 761.5,469.5 C 763.423,473.029 764.089,477.029 763.5,481.5C 762.167,481.5 760.833,481.5 759.5,481.5C 759.5,480.167 759.5,478.833 759.5,477.5C 760.158,478.398 760.824,479.398 761.5,480.5C 762.758,476.79 762.758,473.123 761.5,469.5 Z"/></g>
<g><path style="opacity:1" fill="#f4c13a" d="M 761.5,469.5 C 762.758,473.123 762.758,476.79 761.5,480.5C 760.824,479.398 760.158,478.398 759.5,477.5C 758.071,474.692 757.405,471.692 757.5,468.5C 759.099,468.232 760.432,468.566 761.5,469.5 Z"/></g>
<g><path style="opacity:1" fill="#fbc40e" d="M 808.5,474.5 C 811.838,475.501 815.171,476.501 818.5,477.5C 818.337,479.857 818.503,482.19 819,484.5C 821.659,498.682 827.826,511.015 837.5,521.5C 837.833,521.167 838.167,520.833 838.5,520.5C 834.216,512.865 831.549,504.698 830.5,496C 830.666,491.833 831.666,487.999 833.5,484.5C 838.727,486.746 843.394,489.746 847.5,493.5C 846.227,495.713 845.227,498.046 844.5,500.5C 842.245,502.759 841.245,505.592 841.5,509C 841.336,511.544 842.003,513.71 843.5,515.5C 844.167,516.167 844.833,516.833 845.5,517.5C 850.195,524.52 856.195,530.187 863.5,534.5C 861.451,537.55 858.784,539.883 855.5,541.5C 847.591,535.437 839.258,529.937 830.5,525C 815.242,511.324 807.908,494.491 808.5,474.5 Z"/></g>
<g><path style="opacity:1" fill="#83cd9a" d="M 702.5,475.5 C 699.928,482.241 698.928,489.241 699.5,496.5C 698.352,492.019 698.185,487.352 699,482.5C 699.522,479.719 700.689,477.385 702.5,475.5 Z"/></g>
<g><path style="opacity:1" fill="#a172e4" d="M 958.5,492.5 C 951.756,497.908 946.09,504.242 941.5,511.5C 937.786,511.41 934.452,510.41 931.5,508.5C 932.807,506.518 934.141,504.518 935.5,502.5C 934.675,501.614 933.675,501.281 932.5,501.5C 938.399,492.929 945.399,485.262 953.5,478.5C 955.172,483.185 956.839,487.851 958.5,492.5 Z"/></g>
<g><path style="opacity:1" fill="#fdc10a" d="M 979.5,489.5 C 980.822,489.33 981.989,489.663 983,490.5C 984.027,494.18 983.194,497.347 980.5,500C 979.552,500.483 978.552,500.649 977.5,500.5C 977.242,496.628 977.909,492.961 979.5,489.5 Z"/></g>
<g><path style="opacity:1" fill="#f7c315" d="M 958.5,492.5 C 960.854,495.851 963.854,498.518 967.5,500.5C 964.085,504.576 961.085,508.909 958.5,513.5C 954.154,513.666 949.821,513.499 945.5,513C 943.942,512.79 942.609,512.29 941.5,511.5C 946.09,504.242 951.756,497.908 958.5,492.5 Z"/></g>
<g><path style="opacity:1" fill="#ea3b1f" d="M 799.5,471.5 C 802.67,472.265 805.67,473.265 808.5,474.5C 807.908,494.491 815.242,511.324 830.5,525C 839.258,529.937 847.591,535.437 855.5,541.5C 854.564,542.974 853.23,543.974 851.5,544.5C 850.375,542.871 849.041,541.371 847.5,540C 834.698,531.847 822.031,523.514 809.5,515C 804.474,510.361 799.808,505.528 795.5,500.5C 796.164,495.527 796.497,490.527 796.5,485.5C 797.79,484.942 798.623,483.942 799,482.5C 799.499,478.848 799.665,475.182 799.5,471.5 Z"/></g>
<g><path style="opacity:1" fill="#eec215" d="M 707.5,465.5 C 706.4,466.605 705.733,467.938 705.5,469.5C 703.75,470.659 702.75,472.326 702.5,474.5C 702.5,474.833 702.5,475.167 702.5,475.5C 700.689,477.385 699.522,479.719 699,482.5C 698.185,487.352 698.352,492.019 699.5,496.5C 700.289,504.233 701.622,511.9 703.5,519.5C 707.06,529.676 712.727,538.51 720.5,546C 723.406,548.619 726.739,550.453 730.5,551.5C 732.617,553.655 735.284,554.655 738.5,554.5C 739.708,555.234 741.041,555.567 742.5,555.5C 752.653,556.494 762.986,556.828 773.5,556.5C 773.5,557.5 773.5,558.5 773.5,559.5C 770.287,559.19 767.287,559.523 764.5,560.5C 764.328,561.492 764.662,562.158 765.5,562.5C 770.087,565.258 775.087,567.258 780.5,568.5C 749.408,570.625 724.242,559.291 705,534.5C 693.293,515.53 690.293,495.197 696,473.5C 697.986,468.251 701.819,465.585 707.5,465.5 Z"/></g>
<g><path style="opacity:1" fill="#a373e1" d="M 847.5,493.5 C 850.167,494.167 851.833,495.833 852.5,498.5C 850.347,500.794 848.68,503.46 847.5,506.5C 846.693,510.021 846.026,513.688 845.5,517.5C 844.833,516.833 844.167,516.167 843.5,515.5C 843.274,510.438 843.608,505.438 844.5,500.5C 845.227,498.046 846.227,495.713 847.5,493.5 Z"/></g>
<g><path style="opacity:1" fill="#fac619" d="M 743.5,462.5 C 745.903,462.448 748.236,462.781 750.5,463.5C 746.433,482.33 752.767,496.33 769.5,505.5C 771.154,510.651 774.154,514.818 778.5,518C 781.681,518.597 784.681,518.097 787.5,516.5C 794.29,522.148 801.957,525.982 810.5,528C 803.675,523.335 797.009,518.502 790.5,513.5C 792.387,509.158 794.054,504.825 795.5,500.5C 799.808,505.528 804.474,510.361 809.5,515C 822.031,523.514 834.698,531.847 847.5,540C 849.041,541.371 850.375,542.871 851.5,544.5C 847.181,547.996 842.515,550.996 837.5,553.5C 833.8,549.792 829.8,546.292 825.5,543C 811.245,535.202 796.578,528.535 781.5,523C 769.013,517.84 758.18,510.34 749,500.5C 741.275,488.726 739.442,476.059 743.5,462.5 Z"/></g>
<g><path style="opacity:1" fill="#c5c6c6" d="M 1033.5,504.5 C 1064.12,509.687 1094.46,516.354 1124.5,524.5C 1137.23,530.362 1149.89,536.528 1162.5,543C 1163.83,543.667 1163.83,544.333 1162.5,545C 1160.87,545.494 1159.2,545.66 1157.5,545.5C 1123.14,532.995 1087.64,526.995 1051,527.5C 1032.5,528.01 1014,528.344 995.5,528.5C 973.327,528.831 951.327,528.497 929.5,527.5C 944.879,521.828 960.879,518.662 977.5,518C 985.061,516.152 992.061,513.152 998.5,509C 1010.07,506.653 1021.73,505.153 1033.5,504.5 Z"/></g>
<g><path style="opacity:1" fill="#a3a3a3" d="M 1033.5,504.5 C 1066,501.219 1096.33,507.886 1124.5,524.5C 1094.46,516.354 1064.12,509.687 1033.5,504.5 Z"/></g>
<g><path style="opacity:1" fill="#f8c918" d="M 733.5,462.5 C 732.033,465.978 731.366,469.645 731.5,473.5C 731.869,479.976 733.035,486.309 735,492.5C 743.142,507.308 754.642,518.808 769.5,527C 783.553,532.464 797.553,538.13 811.5,544C 818.105,547.791 824.105,552.291 829.5,557.5C 826.682,559.072 823.682,560.406 820.5,561.5C 817.894,557.207 814.227,554.541 809.5,553.5C 799.233,549.764 788.567,546.931 777.5,545C 762.233,539.424 749.4,530.257 739,517.5C 726.067,501.766 720.567,483.766 722.5,463.5C 725.962,462.518 729.629,462.185 733.5,462.5 Z"/></g>
<g><path style="opacity:1" fill="#efbe3a" d="M 932.5,501.5 C 933.675,501.281 934.675,501.614 935.5,502.5C 934.141,504.518 932.807,506.518 931.5,508.5C 930.005,508.585 929.005,507.919 928.5,506.5C 929.857,504.814 931.19,503.148 932.5,501.5 Z"/></g>
<g><path style="opacity:1" fill="#d4ce47" d="M 721.5,506.5 C 725.396,507.78 726.396,510.28 724.5,514C 723.552,514.483 722.552,514.649 721.5,514.5C 721.5,511.833 721.5,509.167 721.5,506.5 Z"/></g>
<g><path style="opacity:1" fill="#be87ab" d="M 844.5,500.5 C 843.608,505.438 843.274,510.438 843.5,515.5C 842.003,513.71 841.336,511.544 841.5,509C 841.245,505.592 842.245,502.759 844.5,500.5 Z"/></g>
<g><path style="opacity:1" fill="#fdf5e5" d="M 733.5,462.5 C 736.833,462.5 740.167,462.5 743.5,462.5C 739.442,476.059 741.275,488.726 749,500.5C 758.18,510.34 769.013,517.84 781.5,523C 796.578,528.535 811.245,535.202 825.5,543C 829.8,546.292 833.8,549.792 837.5,553.5C 835.147,555.343 832.48,556.677 829.5,557.5C 824.105,552.291 818.105,547.791 811.5,544C 797.553,538.13 783.553,532.464 769.5,527C 754.642,518.808 743.142,507.308 735,492.5C 733.035,486.309 731.869,479.976 731.5,473.5C 731.366,469.645 732.033,465.978 733.5,462.5 Z"/></g>
<g><path style="opacity:1" fill="#aa79cc" d="M 790.5,513.5 C 797.009,518.502 803.675,523.335 810.5,528C 801.957,525.982 794.29,522.148 787.5,516.5C 788.167,515.167 789.167,514.167 790.5,513.5 Z"/></g>
<g><path style="opacity:1" fill="#d23f15" d="M 865.5,510.5 C 868.916,514.323 871.582,518.657 873.5,523.5C 869.164,520.17 866.498,515.837 865.5,510.5 Z"/></g>
<g><path style="opacity:1" fill="#090403" d="M 352.5,514.5 C 352.56,513.957 352.893,513.624 353.5,513.5C 380.085,533.062 409.752,540.229 442.5,535C 452.871,532.489 463.204,530.156 473.5,528C 447.85,546.541 419.85,551.208 389.5,542C 374.52,536.199 362.187,527.032 352.5,514.5 Z"/></g>
<g><path style="opacity:1" fill="#f2c920" d="M 720.5,517.5 C 728.387,520.051 733.054,525.385 734.5,533.5C 734.487,538.999 731.82,540.832 726.5,539C 720.949,536.447 718.282,532.114 718.5,526C 718.362,522.896 719.029,520.062 720.5,517.5 Z"/></g>
<g><path style="opacity:1" fill="#f5c31e" d="M 852.5,498.5 C 858.059,501.055 862.393,505.055 865.5,510.5C 866.498,515.837 869.164,520.17 873.5,523.5C 872.232,527.767 869.565,530.767 865.5,532.5C 859.329,528.315 853.829,523.315 849,517.5C 847.663,513.974 847.163,510.308 847.5,506.5C 848.68,503.46 850.347,500.794 852.5,498.5 Z"/></g>
<g><path style="opacity:1" fill="#08cbf9" d="M 858.5,519.5 C 857.833,519.5 857.5,519.167 857.5,518.5C 855.308,515.587 854.308,512.253 854.5,508.5C 856.167,508.5 857.833,508.5 859.5,508.5C 860.161,512.785 861.494,516.785 863.5,520.5C 861.784,520.371 860.117,520.038 858.5,519.5 Z"/></g>
<g><path style="opacity:1" fill="#4fc6c6" d="M 858.5,519.5 C 860.117,520.038 861.784,520.371 863.5,520.5C 861.494,516.785 860.161,512.785 859.5,508.5C 857.833,508.5 856.167,508.5 854.5,508.5C 854.308,512.253 855.308,515.587 857.5,518.5C 854.118,516.981 852.784,514.314 853.5,510.5C 853.016,507.425 854.016,505.091 856.5,503.5C 861.272,508.608 864.272,514.608 865.5,521.5C 863.473,521.662 861.473,521.495 859.5,521C 858.944,520.617 858.611,520.117 858.5,519.5 Z"/></g>
<g><path style="opacity:1" fill="#ab79c9" d="M 847.5,506.5 C 847.163,510.308 847.663,513.974 849,517.5C 853.829,523.315 859.329,528.315 865.5,532.5C 865.167,533.5 864.5,534.167 863.5,534.5C 856.195,530.187 850.195,524.52 845.5,517.5C 846.026,513.688 846.693,510.021 847.5,506.5 Z"/></g>
<g><path style="opacity:1" fill="#999a9b" d="M 929.5,527.5 C 951.327,528.497 973.327,528.831 995.5,528.5C 971.833,529.833 948.167,529.833 924.5,528.5C 926.117,527.962 927.784,527.629 929.5,527.5 Z"/></g>
<g><path style="opacity:1" fill="#9bcb79" d="M 730.5,551.5 C 733.397,552.129 736.064,553.129 738.5,554.5C 735.284,554.655 732.617,553.655 730.5,551.5 Z"/></g>
<g><path style="opacity:1" fill="#c0cd50" d="M 809.5,553.5 C 814.227,554.541 817.894,557.207 820.5,561.5C 819.833,561.5 819.167,561.5 818.5,561.5C 816.071,558.064 813.071,555.397 809.5,553.5 Z"/></g>
<g><path style="opacity:1" fill="#232222" d="M 375.5,569.5 C 366.395,582.138 358.229,595.472 351,609.5C 344.502,623.161 340.335,637.494 338.5,652.5C 344.872,651.892 351.206,651.892 357.5,652.5C 335.248,691.346 328.581,732.679 337.5,776.5C 337.833,777.167 338.167,777.833 338.5,778.5C 351.64,772.594 364.973,767.26 378.5,762.5C 383.702,777.245 389.202,791.911 395,806.5C 404.423,807.32 413.923,807.82 423.5,808C 412.257,830.471 406.09,854.304 405,879.5C 404.5,892.162 404.333,904.829 404.5,917.5C 383.662,920.264 364.995,927.931 348.5,940.5C 342.502,946.267 336.335,951.933 330,957.5C 326.97,962.015 323.803,966.349 320.5,970.5C 320.53,969.503 320.03,968.836 319,968.5C 303.458,965.842 287.958,965.842 272.5,968.5C 281.347,929.11 290.514,889.777 300,850.5C 300.78,848.613 300.613,846.946 299.5,845.5C 299.5,844.833 299.833,844.5 300.5,844.5C 301.791,843.458 301.791,842.292 300.5,841C 280.668,829.585 261.002,817.919 241.5,806C 240.903,804.938 240.57,803.772 240.5,802.5C 244.913,786.003 250.746,770.003 258,754.5C 288.881,688.739 319.214,622.739 349,556.5C 357.379,561.773 366.212,566.106 375.5,569.5 Z"/></g>
<g><path style="opacity:1" fill="#e3cb31" d="M 742.5,555.5 C 754.171,555.333 765.838,555.5 777.5,556C 786.676,557.094 794.676,560.594 801.5,566.5C 798.713,567.477 795.713,567.81 792.5,567.5C 789.982,564.744 786.982,562.744 783.5,561.5C 777.355,560.51 771.022,560.177 764.5,560.5C 767.287,559.523 770.287,559.19 773.5,559.5C 773.5,558.5 773.5,557.5 773.5,556.5C 762.986,556.828 752.653,556.494 742.5,555.5 Z"/></g>
<g><path style="opacity:1" fill="#76c690" d="M 764.5,560.5 C 771.022,560.177 777.355,560.51 783.5,561.5C 777.31,561.177 771.31,561.51 765.5,562.5C 764.662,562.158 764.328,561.492 764.5,560.5 Z"/></g>
<g><path style="opacity:1" fill="#31c7e5" d="M 783.5,561.5 C 786.982,562.744 789.982,564.744 792.5,567.5C 788.702,568.483 784.702,568.817 780.5,568.5C 775.087,567.258 770.087,565.258 765.5,562.5C 771.31,561.51 777.31,561.177 783.5,561.5 Z"/></g>
<g><path style="opacity:1" fill="#91959f" d="M 1227.5,563.5 C 1246.91,562.922 1266.24,563.755 1285.5,566C 1295.56,567.906 1304.89,571.573 1313.5,577C 1321.7,584.049 1322.54,591.882 1316,600.5C 1310.65,606.419 1304.48,611.253 1297.5,615C 1250.95,636.644 1202.29,643.311 1151.5,635C 1140.68,633.176 1131.52,628.342 1124,620.5C 1120.67,614.833 1120.67,609.167 1124,603.5C 1132.5,593.349 1143,585.849 1155.5,581C 1178.92,572.31 1202.92,566.477 1227.5,563.5 Z"/></g>
<g><path style="opacity:1" fill="#1c1c1c" d="M 375.5,569.5 C 382.988,572.457 390.655,574.957 398.5,577C 387.994,594.342 377.994,612.009 368.5,630C 377.873,630.552 387.207,630.552 396.5,630C 383.251,651.071 373.084,673.571 366,697.5C 360.995,713.52 358.828,729.853 359.5,746.5C 371.258,739.205 382.758,731.539 394,723.5C 397.676,742.519 401.343,761.519 405,780.5C 406.609,777.593 408.442,774.927 410.5,772.5C 411.063,775.295 412.396,777.628 414.5,779.5C 418.854,786.365 424.187,792.532 430.5,798C 437.5,803.167 444.5,808.333 451.5,813.5C 431.004,844.337 421.671,878.337 423.5,915.5C 422.824,916.602 422.158,917.602 421.5,918.5C 419.429,917.191 416.929,916.525 414,916.5C 410.783,916.591 407.616,916.925 404.5,917.5C 404.333,904.829 404.5,892.162 405,879.5C 406.09,854.304 412.257,830.471 423.5,808C 413.923,807.82 404.423,807.32 395,806.5C 389.202,791.911 383.702,777.245 378.5,762.5C 364.973,767.26 351.64,772.594 338.5,778.5C 338.167,777.833 337.833,777.167 337.5,776.5C 328.581,732.679 335.248,691.346 357.5,652.5C 351.206,651.892 344.872,651.892 338.5,652.5C 340.335,637.494 344.502,623.161 351,609.5C 358.229,595.472 366.395,582.138 375.5,569.5 Z"/></g>
<g><path style="opacity:1" fill="#47484a" d="M 435.5,580.5 C 432.201,584.493 429.201,588.827 426.5,593.5C 431.969,595.636 437.635,597.136 443.5,598C 426.204,624.42 411.371,652.254 399,681.5C 397.61,684.899 397.11,688.233 397.5,691.5C 401.048,690.03 404.715,689.03 408.5,688.5C 408.672,706.247 409.839,723.914 412,741.5C 416.676,739.622 421.509,738.289 426.5,737.5C 429.106,756.922 433.439,775.922 439.5,794.5C 430.697,790.266 422.364,785.266 414.5,779.5C 412.396,777.628 411.063,775.295 410.5,772.5C 413.907,766.691 417.574,761.025 421.5,755.5C 421.333,755.167 421.167,754.833 421,754.5C 415.667,761.167 410.333,767.833 405,774.5C 403.353,754.348 400.853,734.348 397.5,714.5C 388.167,720.167 378.833,725.833 369.5,731.5C 375.155,690.02 391.822,653.52 419.5,622C 408.992,620.69 398.325,620.023 387.5,620C 393.268,609.24 399.435,598.74 406,588.5C 406.497,586.19 406.663,583.857 406.5,581.5C 416.199,581.725 425.866,581.392 435.5,580.5 Z"/></g>
<g><path style="opacity:1" fill="#030303" d="M 1326.5,640.5 C 1326.03,663.105 1323.36,685.438 1318.5,707.5C 1319,707.833 1319.5,708.167 1320,708.5C 1370.03,696.563 1420.53,694.23 1471.5,701.5C 1469.74,702.461 1467.74,702.795 1465.5,702.5C 1415.01,697.566 1365.51,702.233 1317,716.5C 1314.89,725.219 1312.72,733.886 1310.5,742.5C 1374.82,739.083 1436.16,750.916 1494.5,778C 1479.87,773.233 1465.2,768.233 1450.5,763C 1403.67,749.188 1356,745.188 1307.5,751C 1303.93,760.558 1300.26,770.058 1296.5,779.5C 1340.47,783.495 1380.81,797.662 1417.5,822C 1406.98,817.076 1396.31,812.076 1385.5,807C 1358.28,794.905 1329.78,788.071 1300,786.5C 1297.17,786.833 1294.33,787.167 1291.5,787.5C 1282.66,805.332 1270,819.832 1253.5,831C 1241.48,836.806 1228.81,840.473 1215.5,842C 1198.56,844.485 1181.56,845.152 1164.5,844C 1148.5,855.667 1132.5,867.333 1116.5,879C 1106.23,889.77 1095.57,899.936 1084.5,909.5C 1090.12,931.825 1093.46,954.492 1094.5,977.5C 1134.04,988.561 1164.04,1011.73 1184.5,1047C 1230.2,1059.55 1256.04,1089.38 1262,1136.5C 1263.17,1149.97 1262.34,1163.31 1259.5,1176.5C 1285.68,1211.58 1291.51,1249.91 1277,1291.5C 1275.11,1296.29 1272.94,1300.95 1270.5,1305.5C 1324.89,1350.94 1354.39,1409.27 1359,1480.5C 1360.23,1506.34 1358.73,1532.01 1354.5,1557.5C 1350.83,1557.5 1347.17,1557.5 1343.5,1557.5C 1351.42,1502.41 1345.92,1448.74 1327,1396.5C 1313.55,1363.74 1294.72,1334.57 1270.5,1309C 1269.67,1308.31 1269,1308.48 1268.5,1309.5C 1264.15,1316.19 1259.32,1322.53 1254,1328.5C 1253.5,1328 1253,1327.5 1252.5,1327C 1279.07,1273.67 1277.74,1221.17 1248.5,1169.5C 1247.89,1168.61 1247.56,1167.61 1247.5,1166.5C 1250.69,1168.17 1253.52,1170.51 1256,1173.5C 1255.97,1140.37 1245.97,1110.7 1226,1084.5C 1220.93,1078.92 1215.43,1073.92 1209.5,1069.5C 1194.05,1058.45 1177.05,1050.45 1158.5,1045.5C 1165.34,1044.64 1172.34,1044.48 1179.5,1045C 1156.44,1018.29 1127.77,1000.46 1093.5,991.5C 1092.65,997.142 1091.98,1002.81 1091.5,1008.5C 1090.06,1018.31 1087.9,1027.98 1085,1037.5C 1078.7,1063.61 1066.53,1086.44 1048.5,1106C 1057.4,1111.57 1065.73,1117.9 1073.5,1125C 1114.16,1165.58 1136.33,1214.75 1140,1272.5C 1143.06,1305.43 1140.06,1337.76 1131,1369.5C 1126.29,1383.62 1121.63,1397.62 1117,1411.5C 1140.54,1401.76 1164.7,1399.6 1189.5,1405C 1207.44,1411.89 1222.94,1422.39 1236,1436.5C 1257.04,1460.56 1273.54,1487.56 1285.5,1517.5C 1284.73,1518.71 1283.89,1518.71 1283,1517.5C 1267.05,1487.87 1246.89,1461.37 1222.5,1438C 1209.35,1426.09 1194.02,1418.43 1176.5,1415C 1153.41,1414.57 1131.08,1418.57 1109.5,1427C 1096.38,1456.09 1081.38,1483.92 1064.5,1510.5C 1071.83,1493.84 1079.16,1477.18 1086.5,1460.5C 1092.23,1449.38 1097.73,1438.05 1103,1426.5C 1113.09,1388.64 1123.26,1350.81 1133.5,1313C 1132.14,1309.77 1130.64,1306.61 1129,1303.5C 1128.83,1292.99 1128.33,1282.66 1127.5,1272.5C 1124.94,1205.91 1098.61,1151.07 1048.5,1108C 1047.56,1107.31 1046.9,1107.47 1046.5,1108.5C 1043.59,1110.91 1040.76,1113.57 1038,1116.5C 1037.14,1127.19 1031.64,1130.86 1021.5,1127.5C 1002.41,1137.79 982.078,1141.63 960.5,1139C 942.105,1136.77 929.772,1126.94 923.5,1109.5C 903.386,1117.39 883.386,1125.56 863.5,1134C 868.239,1140.64 872.072,1147.81 875,1155.5C 884.593,1181.57 886.76,1208.24 881.5,1235.5C 883.169,1240.84 884.835,1246.18 886.5,1251.5C 901.023,1235.14 918.023,1221.98 937.5,1212C 955.993,1202.23 975.66,1198.23 996.5,1200C 981.696,1205.32 967.362,1211.48 953.5,1218.5C 930.547,1229.97 908.213,1242.47 886.5,1256C 894.863,1321.38 880.363,1381.22 843,1435.5C 842.184,1436.82 841.017,1437.49 839.5,1437.5C 859.62,1394.64 872.12,1349.64 877,1302.5C 880.488,1262.72 872.655,1225.39 853.5,1190.5C 854.002,1189.48 854.668,1189.31 855.5,1190C 863.914,1199.77 870.748,1210.6 876,1222.5C 875.443,1207.26 873.11,1192.26 869,1177.5C 860.14,1140.55 838.64,1114.05 804.5,1098C 809.836,1098.6 815.169,1099.6 820.5,1101C 837.443,1107.11 851.443,1117.28 862.5,1131.5C 878.84,1115.33 898.173,1104.33 920.5,1098.5C 919.312,1088.88 918.645,1079.22 918.5,1069.5C 918.929,1061.16 919.096,1052.82 919,1044.5C 902.769,1047.07 887.936,1043.57 874.5,1034C 886.833,1033.67 899.167,1033.33 911.5,1033C 914.557,1032.74 917.557,1032.24 920.5,1031.5C 923.146,1021.31 925.48,1010.98 927.5,1000.5C 930.763,991.05 934.43,981.716 938.5,972.5C 926.566,969.516 914.566,966.85 902.5,964.5C 905.663,976.819 908.663,989.153 911.5,1001.5C 911.719,1005.53 910.552,1006.19 908,1003.5C 891.576,978.987 882.41,953.32 880.5,926.5C 883.5,927.167 886.5,927.833 889.5,928.5C 889.884,925.231 891.218,922.397 893.5,920C 893,919.833 892.5,919.667 892,919.5C 876.629,923.062 861.129,926.229 845.5,929C 835.511,929.999 825.511,930.832 815.5,931.5C 809.348,931.726 803.348,930.893 797.5,929C 793.814,926.816 791.48,923.649 790.5,919.5C 792.807,912.519 794.14,905.353 794.5,898C 794.917,894.479 793.917,891.479 791.5,889C 792.577,888.53 793.577,888.697 794.5,889.5C 797.623,892.076 799.457,895.41 800,899.5C 800.5,905.825 800.666,912.158 800.5,918.5C 823.222,918.663 845.888,917.163 868.5,914C 881.89,906.978 894.89,899.478 907.5,891.5C 909.754,890.585 911.754,889.252 913.5,887.5C 897.528,879.848 881.861,871.681 866.5,863C 809.241,827.573 756.908,784.239 709.5,733C 701.049,735.028 692.549,737.195 684,739.5C 682.239,722.526 688.406,709.359 702.5,700C 718.253,691.977 734.92,689.311 752.5,692C 745.589,695.041 739.423,699.207 734,704.5C 731.554,707.178 731.054,710.178 732.5,713.5C 740.833,718.667 749.167,723.833 757.5,729C 786.943,743.554 815.943,758.888 844.5,775C 852.618,778.725 860.951,781.892 869.5,784.5C 879.201,780.766 888.867,776.933 898.5,773C 979.748,742.949 1062.41,738.116 1146.5,758.5C 1156.73,754.193 1161.9,757.527 1162,768.5C 1155.96,776.638 1150.13,776.471 1144.5,768C 1052.43,743.322 962.427,749.322 874.5,786C 911.116,798.321 948.449,807.821 986.5,814.5C 998.163,810.11 1009.83,805.61 1021.5,801C 1057.65,788.265 1094.81,783.098 1133,785.5C 1135.31,785.484 1136.97,786.484 1138,788.5C 1138.67,790.833 1138.67,793.167 1138,795.5C 1137.25,796.126 1136.42,796.626 1135.5,797C 1087.54,790.368 1041.21,796.701 996.5,816C 1036.49,823.874 1076.82,829.541 1117.5,833C 1152.02,837.216 1186.35,836.216 1220.5,830C 1233.54,827.549 1245.2,822.215 1255.5,814C 1263.97,805.87 1271.3,796.87 1277.5,787C 1266.33,786.999 1255.33,788.499 1244.5,791.5C 1238.85,789.4 1238.18,786.233 1242.5,782C 1255.72,779.514 1269.05,778.014 1282.5,777.5C 1286.44,769.955 1290.11,762.288 1293.5,754.5C 1292.67,754.167 1291.83,753.833 1291,753.5C 1268.04,757.143 1246.37,764.143 1226,774.5C 1220.48,773.484 1218.48,770.151 1220,764.5C 1222.31,760.674 1225.47,759.674 1229.5,761.5C 1251.58,753.312 1274.25,747.312 1297.5,743.5C 1300.17,735.822 1302.84,728.156 1305.5,720.5C 1284.98,725.851 1264.98,733.351 1245.5,743C 1244.74,744.512 1243.74,745.846 1242.5,747C 1234.17,749.003 1230.67,745.836 1232,737.5C 1256.81,727.059 1282.31,718.059 1308.5,710.5C 1315.16,687.201 1321.16,663.867 1326.5,640.5 Z"/></g>
<g><path style="opacity:1" fill="#010101" d="M 329.5,662.5 C 321.511,711.985 306.678,759.651 285,805.5C 293.303,755.76 308.136,708.094 329.5,662.5 Z"/></g>
<g><path style="opacity:1" fill="#050505" d="M 926.5,698.5 C 994.459,695.328 1060.79,704.162 1125.5,725C 1129.5,724.667 1133.5,724.333 1137.5,724C 1142.73,726.633 1144.56,730.799 1143,736.5C 1140.46,741.069 1136.63,742.569 1131.5,741C 1128.83,739.667 1126.83,737.667 1125.5,735C 1019.75,697.117 912.755,692.784 804.5,722C 844.375,709.357 885.042,701.524 926.5,698.5 Z"/></g>
<g><path style="opacity:1" fill="#030303" d="M 548.5,699.5 C 549.966,700.347 550.8,701.68 551,703.5C 559.739,745.474 577.905,782.641 605.5,815C 605.167,815.167 604.833,815.333 604.5,815.5C 573.826,798.302 555.326,772.302 549,737.5C 547.262,724.839 547.095,712.173 548.5,699.5 Z"/></g>
<g><path style="opacity:1" fill="#36303e" d="M 1471.5,701.5 C 1480.83,703.166 1490.17,704.833 1499.5,706.5C 1499.5,707.167 1499.5,707.833 1499.5,708.5C 1488.14,706.053 1476.81,704.053 1465.5,702.5C 1467.74,702.795 1469.74,702.461 1471.5,701.5 Z"/></g>
<g><path style="opacity:1" fill="#9d8cb8" d="M 1465.5,702.5 C 1476.81,704.053 1488.14,706.053 1499.5,708.5C 1499.5,991.5 1499.5,1274.5 1499.5,1557.5C 1451.17,1557.5 1402.83,1557.5 1354.5,1557.5C 1358.73,1532.01 1360.23,1506.34 1359,1480.5C 1354.39,1409.27 1324.89,1350.94 1270.5,1305.5C 1272.94,1300.95 1275.11,1296.29 1277,1291.5C 1291.51,1249.91 1285.68,1211.58 1259.5,1176.5C 1262.34,1163.31 1263.17,1149.97 1262,1136.5C 1256.04,1089.38 1230.2,1059.55 1184.5,1047C 1164.04,1011.73 1134.04,988.561 1094.5,977.5C 1093.46,954.492 1090.12,931.825 1084.5,909.5C 1095.57,899.936 1106.23,889.77 1116.5,879C 1132.5,867.333 1148.5,855.667 1164.5,844C 1181.56,845.152 1198.56,844.485 1215.5,842C 1228.81,840.473 1241.48,836.806 1253.5,831C 1270,819.832 1282.66,805.332 1291.5,787.5C 1294.33,787.167 1297.17,786.833 1300,786.5C 1329.78,788.071 1358.28,794.905 1385.5,807C 1396.31,812.076 1406.98,817.076 1417.5,822C 1380.81,797.662 1340.47,783.495 1296.5,779.5C 1300.26,770.058 1303.93,760.558 1307.5,751C 1356,745.188 1403.67,749.188 1450.5,763C 1465.2,768.233 1479.87,773.233 1494.5,778C 1436.16,750.916 1374.82,739.083 1310.5,742.5C 1312.72,733.886 1314.89,725.219 1317,716.5C 1365.51,702.233 1415.01,697.566 1465.5,702.5 Z"/></g>
<g><path style="opacity:1" fill="#48494b" d="M 687.5,901.5 C 671.026,905.616 654.359,909.449 637.5,913C 620.725,915.261 604.058,914.595 587.5,911C 556.011,905.342 529.178,891.176 507,868.5C 496.798,853.958 485.465,840.292 473,827.5C 463.632,841.903 456.132,857.236 450.5,873.5C 444.977,871.975 440.977,868.642 438.5,863.5C 439.33,861.172 440.163,858.838 441,856.5C 441.333,857.5 441.667,858.5 442,859.5C 446.3,845.606 451.966,832.272 459,819.5C 470.36,824.961 482.194,828.795 494.5,831C 510.383,852.554 529.716,870.221 552.5,884C 563.187,888.678 573.854,893.345 584.5,898C 606.325,905.044 628.658,907.377 651.5,905C 663.436,903.065 675.436,901.899 687.5,901.5 Z"/></g>
<g><path style="opacity:1" fill="#b56e7d" d="M 969.5,831.5 C 968.624,831.369 967.957,831.702 967.5,832.5C 985.806,877.305 991.473,923.638 984.5,971.5C 979.453,969.226 974.619,966.56 970,963.5C 967.842,974.116 966.008,984.783 964.5,995.5C 964.768,997.099 964.434,998.432 963.5,999.5C 961.076,1005.53 959.409,1011.86 958.5,1018.5C 956.723,1021.5 955.723,1024.84 955.5,1028.5C 954.602,1033.53 952.935,1038.2 950.5,1042.5C 948.56,1044.63 947.894,1046.96 948.5,1049.5C 947.35,1054.93 946.35,1060.26 945.5,1065.5C 942.26,1071.26 938.76,1076.93 935,1082.5C 932.118,1043.91 939.118,1007.24 956,972.5C 966.761,927.635 960.428,885.301 937,845.5C 932.552,838.718 927.719,832.218 922.5,826C 938.326,827.27 953.992,829.103 969.5,831.5 Z"/></g>
<g><path style="opacity:1" fill="#fd96ab" d="M 969.5,831.5 C 974.077,831.925 978.41,832.925 982.5,834.5C 1008.03,880.607 1019.03,929.94 1015.5,982.5C 1004.94,979.425 994.606,975.758 984.5,971.5C 991.473,923.638 985.806,877.305 967.5,832.5C 967.957,831.702 968.624,831.369 969.5,831.5 Z"/></g>
<g><path style="opacity:1" fill="#f4648a" d="M 982.5,834.5 C 989.986,835.187 997.319,836.52 1004.5,838.5C 1021.57,885.541 1026.57,933.875 1019.5,983.5C 1018.17,983.167 1016.83,982.833 1015.5,982.5C 1019.03,929.94 1008.03,880.607 982.5,834.5 Z"/></g>
<g><path style="opacity:1" fill="#fb95aa" d="M 1004.5,838.5 C 1016.7,839.513 1028.53,841.846 1040,845.5C 1058.34,876.532 1070.34,909.865 1076,945.5C 1081.31,985.701 1075.98,1024.37 1060,1061.5C 1055.91,1070.03 1051.08,1078.03 1045.5,1085.5C 1042.99,1086.75 1040.33,1087.42 1037.5,1087.5C 1037.5,1085.5 1037.5,1083.5 1037.5,1081.5C 1038.76,1080.49 1039.43,1078.99 1039.5,1077C 1042.4,1050.97 1046.4,1025.14 1051.5,999.5C 1051.47,996.801 1052.13,994.301 1053.5,992C 1052.91,991.536 1052.24,991.369 1051.5,991.5C 1040.93,988.979 1030.26,986.312 1019.5,983.5C 1026.57,933.875 1021.57,885.541 1004.5,838.5 Z"/></g>
<g><path style="opacity:1" fill="#0c0a0d" d="M 299.5,845.5 C 300.613,846.946 300.78,848.613 300,850.5C 290.514,889.777 281.347,929.11 272.5,968.5C 270.194,968.993 267.861,969.326 265.5,969.5C 276.245,928.009 287.578,886.676 299.5,845.5 Z"/></g>
<g><path style="opacity:1" fill="#47484a" d="M 907.5,891.5 C 894.89,899.478 881.89,906.978 868.5,914C 845.888,917.163 823.222,918.663 800.5,918.5C 800.666,912.158 800.5,905.825 800,899.5C 799.457,895.41 797.623,892.076 794.5,889.5C 795.165,886.351 795.498,883.018 795.5,879.5C 795.956,873.86 794.956,868.526 792.5,863.5C 792.833,863.167 793.167,862.833 793.5,862.5C 807.52,870.515 815.52,882.515 817.5,898.5C 832.976,899.149 848.309,897.982 863.5,895C 874.928,892.645 885.094,887.811 894,880.5C 892.595,885.366 890.762,890.199 888.5,895C 888.833,895.5 889.167,896 889.5,896.5C 895.397,894.422 901.397,892.756 907.5,891.5 Z"/></g>
<g><path style="opacity:1" fill="#47484a" d="M 728.5,893.5 C 716.712,892.346 704.879,891.679 693,891.5C 670.184,892.982 647.35,893.482 624.5,893C 616.202,892.368 608.202,890.868 600.5,888.5C 621.46,890.378 642.46,890.878 663.5,890C 692.007,888.314 720.507,886.481 749,884.5C 752.167,884.667 755.333,884.833 758.5,885C 748.962,887.801 739.295,890.134 729.5,892C 728.944,892.383 728.611,892.883 728.5,893.5 Z"/></g>
<g><path style="opacity:1" fill="#555658" d="M 944.5,916.5 C 944.5,918.5 944.5,920.5 944.5,922.5C 929.672,923.621 915.006,923.621 900.5,922.5C 903.981,915.507 908.815,909.507 915,904.5C 917.363,899.751 920.196,895.418 923.5,891.5C 929.5,893.833 935.5,896.167 941.5,898.5C 943.364,904.351 944.364,910.351 944.5,916.5 Z"/></g>
<g><path style="opacity:1" fill="#897aa0" d="M 421.5,918.5 C 394.998,919.004 370.665,926.337 348.5,940.5C 364.995,927.931 383.662,920.264 404.5,917.5C 407.616,916.925 410.783,916.591 414,916.5C 416.929,916.525 419.429,917.191 421.5,918.5 Z"/></g>
<g><path style="opacity:1" fill="#030303" d="M 414.5,779.5 C 422.364,785.266 430.697,790.266 439.5,794.5C 456.314,805.057 473.314,814.724 490.5,823.5C 483.001,811.841 477.168,799.507 473,786.5C 478.084,795.003 483.417,803.336 489,811.5C 516.773,850.774 553.94,876.44 600.5,888.5C 608.202,890.868 616.202,892.368 624.5,893C 647.35,893.482 670.184,892.982 693,891.5C 704.879,891.679 716.712,892.346 728.5,893.5C 738.94,894.301 749.273,895.801 759.5,898C 735.378,897.925 711.378,899.092 687.5,901.5C 675.436,901.899 663.436,903.065 651.5,905C 628.658,907.377 606.325,905.044 584.5,898C 573.854,893.345 563.187,888.678 552.5,884C 529.716,870.221 510.383,852.554 494.5,831C 482.194,828.795 470.36,824.961 459,819.5C 451.966,832.272 446.3,845.606 442,859.5C 441.667,858.5 441.333,857.5 441,856.5C 440.163,858.838 439.33,861.172 438.5,863.5C 440.977,868.642 444.977,871.975 450.5,873.5C 452.463,874.96 454.296,876.627 456,878.5C 446.057,892.106 435.224,905.273 423.5,918C 430.606,918.282 437.606,919.282 444.5,921C 441.708,921.542 439.042,922.376 436.5,923.5C 402.835,929.554 371.169,941.054 341.5,958C 335.646,962.364 329.979,966.864 324.5,971.5C 341.948,976.097 359.614,982.097 377.5,989.5C 392.779,984.336 408.112,984.17 423.5,989C 422.552,989.483 421.552,989.649 420.5,989.5C 391.57,989.716 368.07,1001.05 350,1023.5C 333.768,1047.17 322.768,1073.17 317,1101.5C 314.431,1114.18 311.931,1126.84 309.5,1139.5C 308.671,1143.49 307.837,1147.49 307,1151.5C 304.757,1147.87 303.923,1143.87 304.5,1139.5C 303.841,1105.81 310.008,1073.48 323,1042.5C 330.887,1026.95 341.387,1013.45 354.5,1002C 360.556,997.304 367.223,993.637 374.5,991C 339.746,979.855 304.412,977.522 268.5,984C 241.032,991.475 219.866,1007.31 205,1031.5C 188.76,1056.88 178.427,1084.54 174,1114.5C 172.335,1128.15 170.835,1141.82 169.5,1155.5C 168.83,1153.71 168.163,1152.04 167.5,1150.5C 164.065,1116.4 168.231,1083.4 180,1051.5C 129.651,1116.59 117.651,1188.26 144,1266.5C 147.252,1256.83 152.419,1248.33 159.5,1241C 160.5,1240.33 161.5,1240.33 162.5,1241C 151.679,1255.79 147.845,1272.29 151,1290.5C 154.839,1303.85 161.505,1315.52 171,1325.5C 196.333,1350.17 221.667,1374.83 247,1399.5C 256.325,1409.16 263.658,1420.16 269,1432.5C 269.261,1440.94 268.261,1441.27 266,1433.5C 254.625,1417.96 241.125,1404.63 225.5,1393.5C 214.544,1384.22 203.544,1374.89 192.5,1365.5C 183.715,1403.72 184.549,1441.72 195,1479.5C 202.201,1501.08 213.367,1520.25 228.5,1537C 226.097,1537.63 224.263,1536.8 223,1534.5C 224.772,1542.32 227.272,1549.99 230.5,1557.5C 228.5,1557.5 226.5,1557.5 224.5,1557.5C 222.931,1548.76 220.931,1540.09 218.5,1531.5C 203.502,1520.18 192.335,1505.85 185,1488.5C 170.055,1446.09 171.221,1404.09 188.5,1362.5C 177.868,1352.03 167.701,1341.03 158,1329.5C 155.333,1325.5 152.667,1321.5 150,1317.5C 141.755,1303.14 139.255,1287.81 142.5,1271.5C 136.601,1259.98 131.768,1247.98 128,1235.5C 108.965,1158.62 128.298,1093.29 186,1039.5C 214.186,984.322 259.02,961.322 320.5,970.5C 323.803,966.349 326.97,962.015 330,957.5C 336.335,951.933 342.502,946.267 348.5,940.5C 370.665,926.337 394.998,919.004 421.5,918.5C 422.158,917.602 422.824,916.602 423.5,915.5C 421.671,878.337 431.004,844.337 451.5,813.5C 444.5,808.333 437.5,803.167 430.5,798C 424.187,792.532 418.854,786.365 414.5,779.5 Z"/></g>
<g><path style="opacity:1" fill="#47484a" d="M 944.5,916.5 C 945.488,921.64 945.821,926.974 945.5,932.5C 932.848,933.488 920.181,933.655 907.5,933C 904.57,932.394 901.737,931.56 899,930.5C 898.115,927.462 898.615,924.795 900.5,922.5C 915.006,923.621 929.672,923.621 944.5,922.5C 944.5,920.5 944.5,918.5 944.5,916.5 Z"/></g>
<g><path style="opacity:1" fill="#030304" d="M 676.5,922.5 C 677.675,922.281 678.675,922.614 679.5,923.5C 685.882,944.038 698.549,959.204 717.5,969C 728.455,978.074 734.122,989.574 734.5,1003.5C 729.334,996.051 723.334,989.218 716.5,983C 709.004,977.751 701.337,972.751 693.5,968C 680.758,955.567 675.091,940.4 676.5,922.5 Z"/></g>
<g><path style="opacity:1" fill="#464749" d="M 436.5,923.5 C 399.467,940.012 362.134,956.012 324.5,971.5C 329.979,966.864 335.646,962.364 341.5,958C 371.169,941.054 402.835,929.554 436.5,923.5 Z"/></g>
<g><path style="opacity:1" fill="#9989b4" d="M 894.5,940.5 C 911.013,946.481 928.013,948.148 945.5,945.5C 944.963,950.593 943.963,955.593 942.5,960.5C 928.369,957.319 914.036,955.653 899.5,955.5C 897.628,950.55 895.961,945.55 894.5,940.5 Z"/></g>
<g><path style="opacity:1" fill="#030404" d="M 823.5,956.5 C 825.757,955.197 827.59,955.864 829,958.5C 841.346,974.691 842.679,991.691 833,1009.5C 826.225,1018.09 817.391,1022.26 806.5,1022C 824.633,1008.62 831.133,990.783 826,968.5C 825.665,964.264 824.832,960.264 823.5,956.5 Z"/></g>
<g><path style="opacity:1" fill="#47484a" d="M 927.5,1000.5 C 927.03,999.307 926.03,998.64 924.5,998.5C 920.057,999.121 915.724,1000.12 911.5,1001.5C 908.663,989.153 905.663,976.819 902.5,964.5C 914.566,966.85 926.566,969.516 938.5,972.5C 934.43,981.716 930.763,991.05 927.5,1000.5 Z"/></g>
<g><path style="opacity:1" fill="#16180f" d="M 984.5,971.5 C 994.606,975.758 1004.94,979.425 1015.5,982.5C 1016.83,982.833 1018.17,983.167 1019.5,983.5C 1030.26,986.312 1040.93,988.979 1051.5,991.5C 1023.34,988.459 996.669,980.459 971.5,967.5C 969.53,977.033 967.197,986.366 964.5,995.5C 966.008,984.783 967.842,974.116 970,963.5C 974.619,966.56 979.453,969.226 984.5,971.5 Z"/></g>
<g><path style="opacity:1" fill="#81f64d" d="M 1051.5,991.5 C 1052.24,991.369 1052.91,991.536 1053.5,992C 1052.13,994.301 1051.47,996.801 1051.5,999.5C 1049.74,1002.5 1048.57,1005.84 1048,1009.5C 1044.1,1031.88 1040.1,1054.21 1036,1076.5C 1008.26,1063.86 979.424,1054.53 949.5,1048.5C 949.833,1046.5 950.167,1044.5 950.5,1042.5C 952.935,1038.2 954.602,1033.53 955.5,1028.5C 957.277,1025.5 958.277,1022.16 958.5,1018.5C 960.924,1012.47 962.591,1006.14 963.5,999.5C 964.434,998.432 964.768,997.099 964.5,995.5C 967.197,986.366 969.53,977.033 971.5,967.5C 996.669,980.459 1023.34,988.459 1051.5,991.5 Z"/></g>
<g><path style="opacity:1" fill="#47484a" d="M 304.5,1139.5 C 302.621,1095.63 310.621,1053.47 328.5,1013C 273.247,1005.21 231.747,1025.38 204,1073.5C 186.058,1107.59 176.058,1143.93 174,1182.5C 170.221,1172.16 168.054,1161.49 167.5,1150.5C 168.163,1152.04 168.83,1153.71 169.5,1155.5C 170.835,1141.82 172.335,1128.15 174,1114.5C 178.427,1084.54 188.76,1056.88 205,1031.5C 219.866,1007.31 241.032,991.475 268.5,984C 304.412,977.522 339.746,979.855 374.5,991C 367.223,993.637 360.556,997.304 354.5,1002C 341.387,1013.45 330.887,1026.95 323,1042.5C 310.008,1073.48 303.841,1105.81 304.5,1139.5 Z"/></g>
<g><path style="opacity:1" fill="#47484a" d="M 420.5,989.5 C 408.329,995.152 397.329,1002.65 387.5,1012C 368.277,1031.95 352.11,1054.12 339,1078.5C 328.575,1098.68 318.741,1119.01 309.5,1139.5C 311.931,1126.84 314.431,1114.18 317,1101.5C 322.768,1073.17 333.768,1047.17 350,1023.5C 368.07,1001.05 391.57,989.716 420.5,989.5 Z"/></g>
<g><path style="opacity:1" fill="#050505" d="M 481.5,989.5 C 492.903,988.376 503.236,991.043 512.5,997.5C 496.489,1004.16 480.489,1004.16 464.5,997.5C 469.875,993.976 475.542,991.31 481.5,989.5 Z"/></g>
<g><path style="opacity:1" fill="#47484a" d="M 1158.5,1045.5 C 1140.42,1026.93 1118.09,1014.59 1091.5,1008.5C 1091.98,1002.81 1092.65,997.142 1093.5,991.5C 1127.77,1000.46 1156.44,1018.29 1179.5,1045C 1172.34,1044.48 1165.34,1044.64 1158.5,1045.5 Z"/></g>
<g><path style="opacity:1" fill="#12150c" d="M 996.5,995.5 C 1019.33,994.83 1030.16,1005.83 1029,1028.5C 1023.79,1043.52 1013.29,1050.02 997.5,1048C 981.747,1042.89 974.914,1032.06 977,1015.5C 980.351,1005.65 986.851,998.983 996.5,995.5 Z"/></g>
<g><path style="opacity:1" fill="#291e1d" d="M 963.5,999.5 C 962.591,1006.14 960.924,1012.47 958.5,1018.5C 959.409,1011.86 961.076,1005.53 963.5,999.5 Z"/></g>
<g><path style="opacity:1" fill="#f4f38b" d="M 1007.5,999.5 C 1001.51,998.27 998.848,1000.6 999.5,1006.5C 997.589,1007.08 995.922,1008.08 994.5,1009.5C 991.344,1008.57 988.011,1007.9 984.5,1007.5C 990.613,1000.06 998.28,997.396 1007.5,999.5 Z"/></g>
<g><path style="opacity:1" fill="#17160d" d="M 999.5,1006.5 C 1002.23,1009.83 1001.89,1012.99 998.5,1016C 997.004,1016.51 995.837,1016.01 995,1014.5C 994.506,1012.87 994.34,1011.2 994.5,1009.5C 995.922,1008.08 997.589,1007.08 999.5,1006.5 Z"/></g>
<g><path style="opacity:1" fill="#020203" d="M 569.5,1012.5 C 594.618,1011.51 618.952,1015.35 642.5,1024C 658.282,1031.26 674.615,1036.93 691.5,1041C 697.833,1041.67 704.167,1041.67 710.5,1041C 734.36,1033.57 756.027,1037.57 775.5,1053C 774.906,1053.46 774.239,1053.63 773.5,1053.5C 760.32,1047.07 746.32,1044.57 731.5,1046C 709.977,1055.59 688.311,1055.92 666.5,1047C 650.949,1040.06 635.282,1033.39 619.5,1027C 602.812,1021.83 586.146,1017 569.5,1012.5 Z"/></g>
<g><path style="opacity:1" fill="#47484a" d="M 569.5,1012.5 C 586.146,1017 602.812,1021.83 619.5,1027C 635.282,1033.39 650.949,1040.06 666.5,1047C 688.311,1055.92 709.977,1055.59 731.5,1046C 746.32,1044.57 760.32,1047.07 773.5,1053.5C 763.221,1051.89 752.888,1051.39 742.5,1052C 720.399,1055.49 698.399,1059.49 676.5,1064C 659.977,1066.03 643.977,1064.03 628.5,1058C 604.797,1047.32 584.13,1032.49 566.5,1013.5C 567.325,1012.61 568.325,1012.28 569.5,1012.5 Z"/></g>
<g><path style="opacity:1" fill="#f9f84e" d="M 1007.5,999.5 C 1008.79,999.263 1009.79,999.596 1010.5,1000.5C 1008.82,1004.65 1006.99,1008.98 1005,1013.5C 1001.11,1018.63 995.943,1020.96 989.5,1020.5C 989.715,1022.18 989.048,1023.18 987.5,1023.5C 986.833,1023.5 986.167,1023.5 985.5,1023.5C 985.082,1022.78 984.416,1022.28 983.5,1022C 983.957,1021.59 984.291,1021.09 984.5,1020.5C 983.311,1019.57 981.978,1019.24 980.5,1019.5C 980.552,1023.2 980.886,1026.86 981.5,1030.5C 978.181,1022.37 979.181,1014.7 984.5,1007.5C 988.011,1007.9 991.344,1008.57 994.5,1009.5C 994.34,1011.2 994.506,1012.87 995,1014.5C 995.837,1016.01 997.004,1016.51 998.5,1016C 1001.89,1012.99 1002.23,1009.83 999.5,1006.5C 998.848,1000.6 1001.51,998.27 1007.5,999.5 Z"/></g>
<g><path style="opacity:1" fill="#322522" d="M 958.5,1018.5 C 958.277,1022.16 957.277,1025.5 955.5,1028.5C 955.723,1024.84 956.723,1021.5 958.5,1018.5 Z"/></g>
<g><path style="opacity:1" fill="#f1f10f" d="M 1010.5,1000.5 C 1018.38,1002.55 1023.55,1007.55 1026,1015.5C 1027.49,1036.68 1017.66,1046.51 996.5,1045C 989.016,1042.68 984.016,1037.85 981.5,1030.5C 980.886,1026.86 980.552,1023.2 980.5,1019.5C 981.978,1019.24 983.311,1019.57 984.5,1020.5C 984.291,1021.09 983.957,1021.59 983.5,1022C 984.416,1022.28 985.082,1022.78 985.5,1023.5C 984.448,1023.35 983.448,1023.52 982.5,1024C 983.766,1024.31 984.933,1024.81 986,1025.5C 989.658,1036.48 997.158,1040.64 1008.5,1038C 1012.02,1036.74 1015.02,1034.74 1017.5,1032C 1017,1031.5 1016.5,1031 1016,1030.5C 1011.87,1035.92 1006.37,1038.08 999.5,1037C 992.833,1034.83 988.833,1030.33 987.5,1023.5C 989.048,1023.18 989.715,1022.18 989.5,1020.5C 995.943,1020.96 1001.11,1018.63 1005,1013.5C 1006.99,1008.98 1008.82,1004.65 1010.5,1000.5 Z"/></g>
<g><path style="opacity:1" fill="#060602" d="M 1011.5,1010.5 C 1014.49,1010.15 1015.82,1011.49 1015.5,1014.5C 1015.36,1018.5 1013.53,1019.83 1010,1018.5C 1009.28,1015.59 1009.78,1012.93 1011.5,1010.5 Z"/></g>
<g><path style="opacity:1" fill="#121813" d="M 1051.5,999.5 C 1046.4,1025.14 1042.4,1050.97 1039.5,1077C 1039.43,1078.99 1038.76,1080.49 1037.5,1081.5C 1037.05,1080.54 1036.38,1079.71 1035.5,1079C 1007.32,1066.66 978.318,1056.83 948.5,1049.5C 947.894,1046.96 948.56,1044.63 950.5,1042.5C 950.167,1044.5 949.833,1046.5 949.5,1048.5C 979.424,1054.53 1008.26,1063.86 1036,1076.5C 1040.1,1054.21 1044.1,1031.88 1048,1009.5C 1048.57,1005.84 1049.74,1002.5 1051.5,999.5 Z"/></g>
<g><path style="opacity:1" fill="#21200b" d="M 985.5,1023.5 C 986.167,1023.5 986.833,1023.5 987.5,1023.5C 988.833,1030.33 992.833,1034.83 999.5,1037C 1006.37,1038.08 1011.87,1035.92 1016,1030.5C 1016.5,1031 1017,1031.5 1017.5,1032C 1015.02,1034.74 1012.02,1036.74 1008.5,1038C 997.158,1040.64 989.658,1036.48 986,1025.5C 984.933,1024.81 983.766,1024.31 982.5,1024C 983.448,1023.52 984.448,1023.35 985.5,1023.5 Z"/></g>
<g><path style="opacity:1" fill="#4df0e8" d="M 948.5,1049.5 C 978.318,1056.83 1007.32,1066.66 1035.5,1079C 1036.38,1079.71 1037.05,1080.54 1037.5,1081.5C 1036.19,1094.98 1035.36,1108.65 1035,1122.5C 1034.62,1123.94 1033.79,1124.94 1032.5,1125.5C 1033.5,1122.67 1033.5,1120.01 1032.5,1117.5C 1030.62,1117.23 1029.29,1117.9 1028.5,1119.5C 1026.6,1119.74 1025.26,1120.74 1024.5,1122.5C 1023.4,1123.6 1022.06,1124.27 1020.5,1124.5C 1017.13,1122.41 1015.96,1119.41 1017,1115.5C 1021.8,1107.56 1025.8,1099.23 1029,1090.5C 1030.89,1081.72 1027.39,1078.22 1018.5,1080C 1016.67,1081.17 1015.17,1082.67 1014,1084.5C 1013.67,1090.5 1013.33,1096.5 1013,1102.5C 1012.62,1103.06 1012.12,1103.39 1011.5,1103.5C 1009.3,1103.12 1007.64,1103.79 1006.5,1105.5C 1005.6,1106.6 1004.77,1106.6 1004,1105.5C 1003.33,1103.5 1003.33,1101.5 1004,1099.5C 1009.19,1094.14 1011.85,1087.81 1012,1080.5C 1007.57,1074.16 1002.57,1073.83 997,1079.5C 994.781,1083.27 993.115,1087.27 992,1091.5C 988.71,1103.99 986.71,1116.65 986,1129.5C 982.385,1134.42 978.385,1134.76 974,1130.5C 973.503,1127.85 973.336,1125.19 973.5,1122.5C 980.022,1112.63 985.022,1101.96 988.5,1090.5C 991.296,1085.96 992.129,1080.96 991,1075.5C 990.167,1074.67 989.333,1073.83 988.5,1073C 983.833,1072.67 979.167,1072.33 974.5,1072C 971.257,1068.18 968.257,1064.18 965.5,1060C 963.5,1059.33 961.5,1059.33 959.5,1060C 954.958,1064.92 952.458,1070.75 952,1077.5C 951.779,1085.84 951.779,1094.18 952,1102.5C 949.158,1108.95 944.325,1111.28 937.5,1109.5C 938.243,1108.82 938.909,1108.15 939.5,1107.5C 945.779,1107.39 949.446,1104.22 950.5,1098C 948.86,1097.65 947.527,1098.15 946.5,1099.5C 942.637,1100.69 939.637,1103.03 937.5,1106.5C 935.643,1109.02 933.81,1109.02 932,1106.5C 929.702,1102.78 929.035,1098.78 930,1094.5C 933.27,1088.24 936.936,1082.24 941,1076.5C 943.072,1073.03 944.572,1069.36 945.5,1065.5C 946.35,1060.26 947.35,1054.93 948.5,1049.5 Z"/></g>
<g><path style="opacity:1" fill="#040404" d="M 478.5,1311.5 C 473.078,1311.65 468.078,1312.98 463.5,1315.5C 443.926,1322.22 427.426,1333.55 414,1349.5C 411.667,1352.5 409.333,1355.5 407,1358.5C 406.383,1359.45 406.549,1360.28 407.5,1361C 397.457,1374.58 389.623,1389.42 384,1405.5C 383.056,1404.74 382.556,1403.74 382.5,1402.5C 388.386,1381.07 397.72,1361.4 410.5,1343.5C 433.468,1314.68 463.468,1299.68 500.5,1298.5C 512.749,1264.84 520.915,1230.17 525,1194.5C 529.229,1147.07 519.729,1102.74 496.5,1061.5C 496.369,1060.76 496.536,1060.09 497,1059.5C 505.831,1069.49 513.664,1080.15 520.5,1091.5C 558.392,1067.85 598.725,1062.02 641.5,1074C 600.801,1077.34 560.801,1084.51 521.5,1095.5C 535.3,1125.34 540.8,1156.67 538,1189.5C 536.539,1201.59 534.872,1213.59 533,1225.5C 560.57,1213.97 588.737,1212.13 617.5,1220C 588.993,1227.52 559.993,1230.69 530.5,1229.5C 525.784,1251.93 517.451,1272.93 505.5,1292.5C 506.262,1292.91 507.262,1293.08 508.5,1293C 506.266,1293.97 504.266,1295.3 502.5,1297C 506.833,1297.33 511.167,1297.67 515.5,1298C 513.147,1300.43 510.314,1301.93 507,1302.5C 507.027,1304.42 507.861,1306.08 509.5,1307.5C 500.171,1308.37 490.837,1309.2 481.5,1310C 480.263,1310.23 479.263,1310.73 478.5,1311.5 Z"/></g>
<g><path style="opacity:1" fill="#aaabac" d="M 496.5,1061.5 C 519.729,1102.74 529.229,1147.07 525,1194.5C 520.915,1230.17 512.749,1264.84 500.5,1298.5C 463.468,1299.68 433.468,1314.68 410.5,1343.5C 425.326,1315.82 445.159,1292.16 470,1272.5C 487.939,1239.08 498.272,1203.42 501,1165.5C 503.892,1128.84 501.058,1092.67 492.5,1057C 492.667,1056.5 492.833,1056 493,1055.5C 493.941,1057.73 495.108,1059.73 496.5,1061.5 Z"/></g>
<g><path style="opacity:1" fill="#b16c7b" d="M 988.5,1090.5 C 985.022,1101.96 980.022,1112.63 973.5,1122.5C 972.849,1123.09 972.182,1123.76 971.5,1124.5C 963.433,1124.36 955.766,1122.52 948.5,1119C 946.649,1117.32 944.982,1115.48 943.5,1113.5C 948.894,1111.61 952.394,1107.94 954,1102.5C 954.676,1096.31 954.51,1090.15 953.5,1084C 953.661,1076.19 955.828,1069.02 960,1062.5C 962.881,1060.97 965.214,1061.64 967,1064.5C 968.776,1067.94 970.943,1071.11 973.5,1074C 978.189,1074.29 982.856,1074.29 987.5,1074C 988,1074.5 988.5,1075 989,1075.5C 989.663,1080.54 989.496,1085.54 988.5,1090.5 Z"/></g>
<g><path style="opacity:1" fill="#030303" d="M 854.5,1064.5 C 855.5,1064.5 856.5,1064.5 857.5,1064.5C 854.24,1085.28 842.24,1095.11 821.5,1094C 813.803,1090.8 807.803,1085.64 803.5,1078.5C 804,1078.17 804.5,1077.83 805,1077.5C 811.286,1080.1 817.786,1081.76 824.5,1082.5C 837.219,1081.13 847.219,1075.13 854.5,1064.5 Z"/></g>
<g><path style="opacity:1" fill="#464749" d="M 1209.5,1069.5 C 1215.43,1073.92 1220.93,1078.92 1226,1084.5C 1245.97,1110.7 1255.97,1140.37 1256,1173.5C 1253.52,1170.51 1250.69,1168.17 1247.5,1166.5C 1247.67,1159.49 1247.5,1152.49 1247,1145.5C 1243.85,1129.54 1238.19,1114.54 1230,1100.5C 1223.15,1090.11 1216.31,1079.78 1209.5,1069.5 Z"/></g>
<g><path style="opacity:1" fill="#b06b7a" d="M 1002.5,1077.5 C 1007.04,1076.54 1009.37,1078.37 1009.5,1083C 1009.08,1085.18 1008.58,1087.35 1008,1089.5C 1005.28,1092.56 1002.94,1095.89 1001,1099.5C 999.673,1107.17 1002.84,1110.67 1010.5,1110C 1012,1109.17 1013.17,1108 1014,1106.5C 1015.25,1100.28 1015.92,1093.94 1016,1087.5C 1018.52,1082.25 1022.18,1081.25 1027,1084.5C 1025.56,1094.88 1021.73,1104.38 1015.5,1113C 1007.06,1117.87 998.058,1121.04 988.5,1122.5C 989.904,1109.21 992.737,1096.21 997,1083.5C 998.36,1080.98 1000.19,1078.98 1002.5,1077.5 Z"/></g>
<g><path style="opacity:1" fill="#b16b7a" d="M 1045.5,1085.5 C 1043.48,1088.84 1040.98,1091.84 1038,1094.5C 1037.5,1092.19 1037.34,1089.86 1037.5,1087.5C 1040.33,1087.42 1042.99,1086.75 1045.5,1085.5 Z"/></g>
<g><path style="opacity:1" fill="#edf0f0" d="M 939.5,1107.5 C 938.508,1107.67 937.842,1107.34 937.5,1106.5C 940.792,1104.54 943.792,1102.21 946.5,1099.5C 947.527,1098.15 948.86,1097.65 950.5,1098C 949.446,1104.22 945.779,1107.39 939.5,1107.5 Z"/></g>
<g><path style="opacity:1" fill="#303c3b" d="M 946.5,1099.5 C 943.792,1102.21 940.792,1104.54 937.5,1106.5C 939.637,1103.03 942.637,1100.69 946.5,1099.5 Z"/></g>
<g><path style="opacity:1" fill="#a4afad" d="M 1011.5,1103.5 C 1010.8,1107.55 1009.14,1108.22 1006.5,1105.5C 1007.64,1103.79 1009.3,1103.12 1011.5,1103.5 Z"/></g>
<g><path style="opacity:1" fill="#aaabac" d="M 1127.5,1272.5 C 1128.37,1300.54 1125.54,1328.21 1119,1355.5C 1110.29,1391.14 1099.45,1426.14 1086.5,1460.5C 1079.16,1477.18 1071.83,1493.84 1064.5,1510.5C 1063.11,1512.27 1061.94,1514.27 1061,1516.5C 1060.83,1516 1060.67,1515.5 1060.5,1515C 1081.5,1443.02 1097,1369.85 1107,1295.5C 1110.14,1271.15 1108.47,1247.15 1102,1223.5C 1089.85,1181.87 1071.35,1143.53 1046.5,1108.5C 1046.9,1107.47 1047.56,1107.31 1048.5,1108C 1098.61,1151.07 1124.94,1205.91 1127.5,1272.5 Z"/></g>
<g><path style="opacity:1" fill="#020303" d="M 813.5,1149.5 C 800.141,1143.66 786.474,1138.49 772.5,1134C 745.028,1126.22 717.362,1119.22 689.5,1113C 687.509,1112.63 685.842,1111.79 684.5,1110.5C 723.185,1106.14 759.518,1113.31 793.5,1132C 801.248,1136.58 807.915,1142.41 813.5,1149.5 Z"/></g>
<g><path style="opacity:1" fill="#47484a" d="M 684.5,1110.5 C 685.842,1111.79 687.509,1112.63 689.5,1113C 717.362,1119.22 745.028,1126.22 772.5,1134C 786.474,1138.49 800.141,1143.66 813.5,1149.5C 779.639,1150.72 746.639,1143.88 714.5,1129C 703.483,1124.16 693.15,1118.33 683.5,1111.5C 683.624,1110.89 683.957,1110.56 684.5,1110.5 Z"/></g>
<g><path style="opacity:1" fill="#dde0e0" d="M 1032.5,1117.5 C 1032.5,1124.43 1029.83,1126.1 1024.5,1122.5C 1026.4,1122.26 1027.74,1121.26 1028.5,1119.5C 1029.29,1117.9 1030.62,1117.23 1032.5,1117.5 Z"/></g>
<g><path style="opacity:1" fill="#262f2e" d="M 1028.5,1119.5 C 1027.74,1121.26 1026.4,1122.26 1024.5,1122.5C 1025.26,1120.74 1026.6,1119.74 1028.5,1119.5 Z"/></g>
<g><path style="opacity:1" fill="#40a9a3" d="M 1032.5,1117.5 C 1033.5,1120.01 1033.5,1122.67 1032.5,1125.5C 1028.36,1128.08 1024.36,1127.75 1020.5,1124.5C 1022.06,1124.27 1023.4,1123.6 1024.5,1122.5C 1029.83,1126.1 1032.5,1124.43 1032.5,1117.5 Z"/></g>
<g><path style="opacity:1" fill="#334d4b" d="M 981.5,1125.5 C 982.209,1124.6 983.209,1124.26 984.5,1124.5C 984.794,1130.37 982.128,1132.03 976.5,1129.5C 977.605,1127.39 979.271,1126.06 981.5,1125.5 Z"/></g>
<g><path style="opacity:1" fill="#f3f3f3" d="M 981.5,1125.5 C 983.225,1125.84 983.725,1126.84 983,1128.5C 981.612,1129.55 980.112,1129.72 978.5,1129C 979.71,1127.96 980.71,1126.79 981.5,1125.5 Z"/></g>
<g><path style="opacity:1" fill="#464749" d="M 953.5,1218.5 C 935.192,1234.64 916.692,1250.64 898,1266.5C 899.54,1283.38 899.873,1300.38 899,1317.5C 893.716,1365.4 874.049,1406.06 840,1439.5C 838.62,1438.74 838.453,1438.08 839.5,1437.5C 841.017,1437.49 842.184,1436.82 843,1435.5C 880.363,1381.22 894.863,1321.38 886.5,1256C 908.213,1242.47 930.547,1229.97 953.5,1218.5 Z"/></g>
<g><path style="opacity:1" fill="#050505" d="M 318.5,1290.5 C 322.932,1301.62 327.099,1312.95 331,1324.5C 336.803,1338.62 344.97,1351.12 355.5,1362C 354.167,1362.67 352.833,1362.67 351.5,1362C 332.9,1352.01 321.733,1336.51 318,1315.5C 315.883,1307.07 316.05,1298.73 318.5,1290.5 Z"/></g>
<g><path style="opacity:1" fill="#7b7b7b" d="M 1127.5,1272.5 C 1128.33,1282.66 1128.83,1292.99 1129,1303.5C 1130.64,1306.61 1132.14,1309.77 1133.5,1313C 1123.26,1350.81 1113.09,1388.64 1103,1426.5C 1097.73,1438.05 1092.23,1449.38 1086.5,1460.5C 1099.45,1426.14 1110.29,1391.14 1119,1355.5C 1125.54,1328.21 1128.37,1300.54 1127.5,1272.5 Z"/></g>
<g><path style="opacity:1" fill="#47484a" d="M 1248.5,1169.5 C 1277.74,1221.17 1279.07,1273.67 1252.5,1327C 1253,1327.5 1253.5,1328 1254,1328.5C 1259.32,1322.53 1264.15,1316.19 1268.5,1309.5C 1269,1308.48 1269.67,1308.31 1270.5,1309C 1294.72,1334.57 1313.55,1363.74 1327,1396.5C 1345.92,1448.74 1351.42,1502.41 1343.5,1557.5C 1340.5,1557.5 1337.5,1557.5 1334.5,1557.5C 1335.11,1523.06 1331.61,1489.06 1324,1455.5C 1311.76,1406 1287.43,1363.66 1251,1328.5C 1252.6,1318.26 1253.94,1307.93 1255,1297.5C 1258.19,1254.55 1256.03,1211.89 1248.5,1169.5 Z"/></g>
<g><path style="opacity:1" fill="#aaabac" d="M 522.5,1335.5 C 483.962,1331.38 447.629,1338.55 413.5,1357C 412.5,1357.67 411.5,1357.67 410.5,1357C 424.49,1338.35 442.156,1324.52 463.5,1315.5C 468.078,1312.98 473.078,1311.65 478.5,1311.5C 488.823,1310.27 499.156,1310.27 509.5,1311.5C 513.846,1319.53 518.179,1327.53 522.5,1335.5 Z"/></g>
<g><path style="opacity:1" fill="#030303" d="M 538.5,1557.5 C 536.167,1557.5 533.833,1557.5 531.5,1557.5C 534.152,1547.89 536.652,1538.23 539,1528.5C 555.233,1462.18 549.733,1397.85 522.5,1335.5C 523.239,1335.63 523.906,1335.46 524.5,1335C 520.192,1327.22 516.359,1319.39 513,1311.5C 521.321,1321.47 528.654,1332.14 535,1343.5C 560.46,1393.65 567.46,1446.31 556,1501.5C 551.465,1520.6 545.632,1539.27 538.5,1557.5 Z"/></g>
<g><path style="opacity:1" fill="#020202" d="M 739.5,1317.5 C 701.554,1343.79 687.387,1379.79 697,1425.5C 704.759,1460.68 716.759,1494.35 733,1526.5C 737.147,1536.43 739.313,1546.77 739.5,1557.5C 737.833,1557.5 736.167,1557.5 734.5,1557.5C 729.371,1539.24 721.538,1522.24 711,1506.5C 700.045,1486.64 692.045,1465.64 687,1443.5C 681.767,1424.08 680.434,1404.41 683,1384.5C 690.258,1347.59 711.758,1323.75 747.5,1313C 744.644,1314.26 741.977,1315.76 739.5,1317.5 Z"/></g>
<g><path style="opacity:1" fill="#030303" d="M 1243.5,1383.5 C 1229.94,1359.44 1210.94,1340.94 1186.5,1328C 1180.6,1324.88 1174.6,1322.05 1168.5,1319.5C 1167.4,1318.44 1166.07,1317.61 1164.5,1317C 1202.41,1317.59 1229.25,1335.09 1245,1369.5C 1247.3,1375.73 1248.13,1382.06 1247.5,1388.5C 1245.92,1386.99 1244.58,1385.32 1243.5,1383.5 Z"/></g>
<g><path style="opacity:1" fill="#47484a" d="M 739.5,1317.5 C 721.527,1345.99 714.694,1376.99 719,1410.5C 723.532,1425.1 727.865,1439.76 732,1454.5C 739.102,1488.47 741.936,1522.8 740.5,1557.5C 740.167,1557.5 739.833,1557.5 739.5,1557.5C 739.313,1546.77 737.147,1536.43 733,1526.5C 716.759,1494.35 704.759,1460.68 697,1425.5C 687.387,1379.79 701.554,1343.79 739.5,1317.5 Z"/></g>
<g><path style="opacity:1" fill="#7f7f7f" d="M 1168.5,1319.5 C 1174.6,1322.05 1180.6,1324.88 1186.5,1328C 1210.94,1340.94 1229.94,1359.44 1243.5,1383.5C 1243.44,1384.04 1243.11,1384.38 1242.5,1384.5C 1217.35,1363.19 1192.35,1341.69 1167.5,1320C 1167.73,1319.6 1168.06,1319.43 1168.5,1319.5 Z"/></g>
<g><path style="opacity:1" fill="#48494b" d="M 225.5,1393.5 C 225.062,1393.43 224.728,1393.6 224.5,1394C 238.046,1407.04 251.046,1420.54 263.5,1434.5C 242.466,1420.87 220.299,1408.2 197,1396.5C 196.094,1398.74 195.594,1401.08 195.5,1403.5C 197.235,1418.87 202.069,1433.21 210,1446.5C 225.497,1470.68 243.997,1492.51 265.5,1512C 284.42,1526.95 303.087,1542.11 321.5,1557.5C 291.167,1557.5 260.833,1557.5 230.5,1557.5C 227.272,1549.99 224.772,1542.32 223,1534.5C 224.263,1536.8 226.097,1537.63 228.5,1537C 213.367,1520.25 202.201,1501.08 195,1479.5C 184.549,1441.72 183.715,1403.72 192.5,1365.5C 203.544,1374.89 214.544,1384.22 225.5,1393.5 Z"/></g>
<g><path style="opacity:1" fill="#030303" d="M 975.5,1510.5 C 976.895,1484.5 976.728,1458.5 975,1432.5C 973.384,1422.09 971.384,1411.76 969,1401.5C 966.685,1393.69 963.518,1386.36 959.5,1379.5C 957.605,1375.71 955.772,1372.04 954,1368.5C 971.566,1382.26 982.566,1400.26 987,1422.5C 993.38,1458.85 989.713,1494.18 976,1528.5C 975.501,1522.51 975.334,1516.51 975.5,1510.5 Z"/></g>
<g><path style="opacity:1" fill="#47484a" d="M 959.5,1379.5 C 963.518,1386.36 966.685,1393.69 969,1401.5C 971.384,1411.76 973.384,1422.09 975,1432.5C 976.728,1458.5 976.895,1484.5 975.5,1510.5C 966.265,1480.67 961.098,1450 960,1418.5C 959.5,1405.5 959.333,1392.5 959.5,1379.5 Z"/></g>
<g><path style="opacity:1" fill="#47484a" d="M 383.5,1509.5 C 426.564,1525.52 469.564,1541.52 512.5,1557.5C 506.5,1557.5 500.5,1557.5 494.5,1557.5C 469.714,1552.3 445.381,1545.13 421.5,1536C 412.048,1531.78 403.048,1526.78 394.5,1521C 389.955,1517.96 386.289,1514.12 383.5,1509.5 Z"/></g>
<g><path style="opacity:1" fill="#030303" d="M 383.5,1509.5 C 386.289,1514.12 389.955,1517.96 394.5,1521C 403.048,1526.78 412.048,1531.78 421.5,1536C 445.381,1545.13 469.714,1552.3 494.5,1557.5C 477.167,1557.5 459.833,1557.5 442.5,1557.5C 433.475,1553.65 424.475,1549.48 415.5,1545C 400.64,1536.97 389.307,1525.47 381.5,1510.5C 381.957,1509.7 382.624,1509.37 383.5,1509.5 Z"/></g>
</svg>
