<?xml version="1.0" encoding="UTF-8"?>
<!DOCTYPE svg PUBLIC "-//W3C//DTD SVG 1.1//EN" "http://www.w3.org/Graphics/SVG/1.1/DTD/svg11.dtd">
<svg xmlns="http://www.w3.org/2000/svg" version="1.1" width="1500px" height="1558px" style="shape-rendering:geometricPrecision; text-rendering:geometricPrecision; image-rendering:optimizeQuality; fill-rule:evenodd; clip-rule:evenodd" xmlns:xlink="http://www.w3.org/1999/xlink">
<g><path style="opacity:1" fill="#faf5f2" d="M -0.5,-0.5 C 499.5,-0.5 999.5,-0.5 1499.5,-0.5C 1499.5,235.167 1499.5,470.833 1499.5,706.5C 1496.14,705.96 1492.8,705.294 1489.5,704.5C 1432.64,694.309 1375.97,695.309 1319.5,707.5C 1320.46,697.425 1321.96,687.425 1324,677.5C 1325.17,666.855 1326,656.189 1326.5,645.5C 1327.48,642.713 1327.81,639.713 1327.5,636.5C 1340.38,626.467 1349.54,613.8 1355,598.5C 1356.85,590.002 1355.19,582.335 1350,575.5C 1326.33,551.42 1297.5,538.254 1263.5,536C 1233.32,533.723 1203.48,535.89 1174,542.5C 1128.12,496.485 1072.95,478.151 1008.5,487.5C 1022.08,465.689 1024.24,442.689 1015,418.5C 1007.05,399.544 993.545,386.377 974.5,379C 964.847,376.748 956.681,379.248 950,386.5C 947.667,389.833 945.333,393.167 943,396.5C 931.059,385.611 917.725,383.611 903,390.5C 884.592,376.379 865.425,363.379 845.5,351.5C 857.652,320.011 860.485,287.678 854,254.5C 841.951,207.943 812.118,181.943 764.5,176.5C 744.055,177.639 727.555,186.306 715,202.5C 695.164,232.012 684.497,264.678 683,300.5C 682.161,301.624 680.994,302.291 679.5,302.5C 657.686,300.247 636.686,303.413 616.5,312C 593.727,309.856 572.061,313.689 551.5,323.5C 548.369,314.992 545.535,306.325 543,297.5C 530.751,268.268 509.584,248.435 479.5,238C 438.172,224.047 396.838,224.047 355.5,238C 333.584,245.532 314.751,257.699 299,274.5C 284.556,294.428 286.723,312.261 305.5,328C 309.5,330 313.5,332 317.5,334C 322.743,339.409 322.743,344.742 317.5,350C 291.331,351.839 276.498,365.673 273,391.5C 272.308,447.093 288.975,496.759 323,540.5C 342.951,561.896 367.451,575.062 396.5,580C 385.137,596.892 375.47,614.726 367.5,633.5C 376.192,633.169 384.859,633.502 393.5,634.5C 370.365,669.707 358.365,708.374 357.5,750.5C 369.015,742.431 380.682,734.931 392.5,728C 395.987,746.754 399.321,765.587 402.5,784.5C 404.58,782.007 406.414,779.341 408,776.5C 412.598,786.107 419.098,794.274 427.5,801C 434.718,806.394 442.051,811.56 449.5,816.5C 428.026,847.054 418.692,881.054 421.5,918.5C 388.817,919.001 360.15,929.835 335.5,951C 329.543,956.787 324.543,963.287 320.5,970.5C 258.809,961.425 213.976,984.425 186,1039.5C 128.302,1093.28 108.969,1158.61 128,1235.5C 131.866,1247.73 136.699,1259.56 142.5,1271C 138.909,1291.47 143.409,1309.97 156,1326.5C 166.161,1339.19 176.994,1351.19 188.5,1362.5C 171.245,1404.11 170.078,1446.11 185,1488.5C 193.026,1506.06 204.526,1520.9 219.5,1533C 221.118,1541.22 222.785,1549.38 224.5,1557.5C 149.5,1557.5 74.5,1557.5 -0.5,1557.5C -0.5,1038.17 -0.5,518.833 -0.5,-0.5 Z"/></g>
<g><path style="opacity:1" fill="#040404" d="M 1327.5,636.5 C 1318.64,644.083 1309.64,651.417 1300.5,658.5C 1279.96,671.693 1258.8,684.027 1237,695.5C 1234.5,713.851 1229.66,731.518 1222.5,748.5C 1218.03,757.42 1212.53,765.754 1206,773.5C 1205.67,771.153 1205.83,768.819 1206.5,766.5C 1212.67,745.314 1215.34,723.647 1214.5,701.5C 1184.33,706.196 1154.33,705.362 1124.5,699C 1099.86,692.538 1079.86,679.372 1064.5,659.5C 1060.81,652.79 1057.65,645.79 1055,638.5C 1049.39,616.988 1054.89,598.821 1071.5,584C 1085.65,571.918 1101.65,562.918 1119.5,557C 1132.21,552.838 1144.88,549.005 1157.5,545.5C 1162.75,545.727 1163.75,544.56 1160.5,542C 1139.92,530.377 1118.59,520.377 1096.5,512C 1076.39,504.822 1055.72,502.322 1034.5,504.5C 1022.5,504.789 1010.83,506.456 999.5,509.5C 974.469,514.591 949.802,520.924 925.5,528.5C 914.837,530.537 904.504,529.537 894.5,525.5C 887.817,526.506 881.15,527.506 874.5,528.5C 872.38,538.12 867.88,546.453 861,553.5C 861.512,549.793 862.512,546.126 864,542.5C 864.912,537.536 865.412,532.536 865.5,527.5C 863.139,527.326 860.806,526.993 858.5,526.5C 853.637,554.207 837.97,573.04 811.5,583C 801.406,586.295 791.073,588.628 780.5,590C 790.718,595.885 798.551,604.051 804,614.5C 804.991,616.447 805.325,618.447 805,620.5C 785.702,604.929 764.202,593.096 740.5,585C 705.59,573.356 669.924,564.689 633.5,559C 654.193,555.632 674.86,555.966 695.5,560C 704.967,561.796 714.3,563.796 723.5,566C 697.589,535.295 690.756,500.795 703,462.5C 692.928,469.626 686.594,479.293 684,491.5C 682.919,482.502 684.086,473.836 687.5,465.5C 688.784,462.598 689.784,459.598 690.5,456.5C 687.794,456.425 685.127,456.092 682.5,455.5C 681.395,453.7 682.061,452.533 684.5,452C 696.009,448.016 707.676,447.683 719.5,451C 743.139,460.934 766.806,470.768 790.5,480.5C 812.516,490.166 834.85,499.333 857.5,508C 865.804,509.795 874.137,509.961 882.5,508.5C 888.026,506.298 892.692,502.965 896.5,498.5C 906.578,482.608 905.578,467.441 893.5,453C 889.547,450.19 885.213,448.19 880.5,447C 873.158,446.478 865.825,446.645 858.5,447.5C 848.147,447.653 839.48,443.986 832.5,436.5C 831.537,435.637 831.537,434.97 832.5,434.5C 837.967,436.655 843.634,437.989 849.5,438.5C 862.014,436.879 874.514,435.212 887,433.5C 900.312,433.801 908.646,440.468 912,453.5C 915.302,465.949 917.302,478.616 918,491.5C 919.117,490.051 919.784,488.384 920,486.5C 920.95,479.193 921.617,471.86 922,464.5C 923.985,468.206 924.818,472.206 924.5,476.5C 924.528,485.638 923.695,494.638 922,503.5C 935.778,483.891 935.945,464.224 922.5,444.5C 921.265,441.042 919.265,438.042 916.5,435.5C 917,435.167 917.5,434.833 918,434.5C 929.742,439.406 936.909,448.073 939.5,460.5C 941.621,466.271 942.787,472.271 943,478.5C 953.362,462.4 967.862,456.4 986.5,460.5C 989.473,462.806 992.14,465.473 994.5,468.5C 989.519,467.272 984.519,467.272 979.5,468.5C 980.372,470.45 981.039,472.45 981.5,474.5C 981.838,482.141 980.505,489.475 977.5,496.5C 977.833,496.833 978.167,497.167 978.5,497.5C 986.57,494.032 994.903,491.366 1003.5,489.5C 1010.22,475.792 1012.55,461.459 1010.5,446.5C 1006.75,422.148 994.421,403.648 973.5,391C 967.734,388.554 962.401,389.221 957.5,393C 950.28,399.943 944.946,408.109 941.5,417.5C 939.17,420.827 937.337,424.493 936,428.5C 936.079,420.689 937.246,413.022 939.5,405.5C 940.751,404.528 940.418,403.861 938.5,403.5C 928.808,400.696 919.142,398.696 909.5,397.5C 912.186,399.856 914.853,402.189 917.5,404.5C 917.265,405.097 916.765,405.43 916,405.5C 912.87,404.016 909.703,402.683 906.5,401.5C 873.056,386.46 843.056,366.46 816.5,341.5C 816.44,340.957 816.107,340.624 815.5,340.5C 814.188,345.318 814.188,349.985 815.5,354.5C 815.662,356.527 815.495,358.527 815,360.5C 814.053,354.32 812.886,348.32 811.5,342.5C 811.638,334.1 810.971,325.767 809.5,317.5C 801.81,326.852 794.143,336.186 786.5,345.5C 785.833,345.833 785.167,346.167 784.5,346.5C 780.77,334.809 776.936,323.142 773,311.5C 766.935,318.058 761.102,324.725 755.5,331.5C 754.883,331.611 754.383,331.944 754,332.5C 753.768,331.263 753.268,330.263 752.5,329.5C 751.162,319.642 748.995,309.975 746,300.5C 727.079,310.605 706.913,315.439 685.5,315C 664.545,310.806 643.545,310.473 622.5,314C 633.663,316.554 644.33,320.387 654.5,325.5C 662.578,330.983 670.078,337.317 677,344.5C 677.667,345.167 677.667,345.833 677,346.5C 673.885,344.693 670.719,343.027 667.5,341.5C 630.352,324.536 591.686,320.203 551.5,328.5C 551.633,331.887 552.633,334.887 554.5,337.5C 554.5,338.167 554.833,338.5 555.5,338.5C 555.517,340.565 555.85,342.565 556.5,344.5C 560.467,359.898 566.3,374.565 574,388.5C 579.727,398.225 587.894,405.059 598.5,409C 589.558,411.388 580.558,413.388 571.5,415C 579.325,421.617 588.325,425.95 598.5,428C 586.38,433.383 573.714,437.05 560.5,439C 570.131,444.767 580.464,448.767 591.5,451C 573.311,459.619 554.311,465.619 534.5,469C 545.102,475.134 556.102,480.468 567.5,485C 555.778,496.541 542.111,505.041 526.5,510.5C 533.51,513.684 539.844,517.851 545.5,523C 524.516,522.46 503.516,522.46 482.5,523C 489,528.167 495.5,533.333 502,538.5C 502.315,539.908 501.982,541.241 501,542.5C 488.75,557.593 473.583,568.593 455.5,575.5C 440.522,579.996 425.188,582.329 409.5,582.5C 401.788,594.753 394.455,607.253 387.5,620C 395.845,620.622 404.179,620.456 412.5,619.5C 414.5,619.833 416.5,620.167 418.5,620.5C 418.709,621.086 419.043,621.586 419.5,622C 392.02,653.468 375.186,689.968 369,731.5C 378.252,725.456 387.752,719.789 397.5,714.5C 398.932,718.013 399.765,721.68 400,725.5C 401.601,741.841 403.267,758.174 405,774.5C 410,768.167 415,761.833 420,755.5C 420.315,756.908 419.982,758.241 419,759.5C 415.334,764.162 412.167,769.162 409.5,774.5C 418.488,782.662 428.488,789.329 439.5,794.5C 445.607,798.392 451.94,802.059 458.5,805.5C 461.013,802.164 464.013,801.664 467.5,804C 465.559,805.816 464.892,807.816 465.5,810C 474.079,814.203 482.246,819.037 490,824.5C 486.088,816.677 482.088,808.677 478,800.5C 475.898,795.526 474.231,790.526 473,785.5C 495.92,829.421 530.087,861.254 575.5,881C 582.592,884.049 589.925,886.216 597.5,887.5C 606.441,890.627 615.775,892.46 625.5,893C 647.022,893.568 668.522,893.068 690,891.5C 703.192,891.816 716.358,892.483 729.5,893.5C 738.224,894.192 746.891,895.358 755.5,897C 732.056,897.706 708.723,899.206 685.5,901.5C 668.885,903.526 652.219,905.192 635.5,906.5C 576.443,903.895 529.61,878.895 495,831.5C 482.705,829.346 470.871,825.68 459.5,820.5C 452.3,831.238 446.967,842.905 443.5,855.5C 442.603,854.402 441.77,854.402 441,855.5C 433.96,876.218 428.127,897.218 423.5,918.5C 430.251,918.511 436.918,919.178 443.5,920.5C 441.416,921.476 438.75,922.476 435.5,923.5C 403.351,929.272 373.018,940.105 344.5,956C 337.697,960.313 331.364,965.147 325.5,970.5C 322.848,971.294 323.015,971.96 326,972.5C 340.097,975.649 353.93,979.649 367.5,984.5C 370.498,986.666 373.832,988.333 377.5,989.5C 382.624,988.117 387.624,986.784 392.5,985.5C 401.918,985.208 411.251,985.875 420.5,987.5C 389.639,989.18 365.139,1002.51 347,1027.5C 330.502,1054.32 319.502,1083.32 314,1114.5C 312.046,1123.1 310.546,1131.77 309.5,1140.5C 307.989,1143.54 307.322,1146.88 307.5,1150.5C 306.778,1150.08 306.278,1149.42 306,1148.5C 305.5,1139.17 305.334,1129.84 305.5,1120.5C 305.495,1081.01 317.328,1045.68 341,1014.5C 350.331,1004.59 361.164,996.752 373.5,991C 347.58,982.599 320.913,978.932 293.5,980C 259.894,981.514 232.727,995.348 212,1021.5C 206.574,1029.36 201.407,1037.36 196.5,1045.5C 179.089,1080.38 170.255,1117.38 170,1156.5C 169.667,1156.83 169.333,1157.17 169,1157.5C 166.402,1138.87 165.902,1120.21 167.5,1101.5C 170.247,1084.85 174.08,1068.52 179,1052.5C 130.465,1116.04 118.299,1186.04 142.5,1262.5C 142.987,1263.47 143.487,1264.47 144,1265.5C 147.33,1255.85 152.663,1247.51 160,1240.5C 156.368,1247.11 153.202,1254.11 150.5,1261.5C 148.748,1267.66 148.082,1274 148.5,1280.5C 147.167,1282.5 147.167,1284.5 148.5,1286.5C 150.133,1296.23 153.633,1305.23 159,1313.5C 165.995,1322.33 173.495,1330.66 181.5,1338.5C 188.486,1347.33 196.819,1354.49 206.5,1360C 220.638,1373.14 234.471,1386.64 248,1400.5C 256.996,1409.83 263.996,1420.5 269,1432.5C 269.706,1434.97 269.373,1437.3 268,1439.5C 267.536,1438.91 267.369,1438.24 267.5,1437.5C 267.34,1435.85 266.674,1434.51 265.5,1433.5C 256.23,1419.9 244.897,1408.23 231.5,1398.5C 218.525,1387.03 205.359,1375.7 192,1364.5C 184.034,1402.03 184.7,1439.36 194,1476.5C 201.135,1499.11 212.635,1519.11 228.5,1536.5C 226.405,1537.23 224.572,1536.56 223,1534.5C 223.132,1537.39 223.965,1540.06 225.5,1542.5C 226.89,1547.61 228.556,1552.61 230.5,1557.5C 228.5,1557.5 226.5,1557.5 224.5,1557.5C 222.785,1549.38 221.118,1541.22 219.5,1533C 204.526,1520.9 193.026,1506.06 185,1488.5C 170.078,1446.11 171.245,1404.11 188.5,1362.5C 176.994,1351.19 166.161,1339.19 156,1326.5C 143.409,1309.97 138.909,1291.47 142.5,1271C 136.699,1259.56 131.866,1247.73 128,1235.5C 108.969,1158.61 128.302,1093.28 186,1039.5C 213.976,984.425 258.809,961.425 320.5,970.5C 324.543,963.287 329.543,956.787 335.5,951C 360.15,929.835 388.817,919.001 421.5,918.5C 418.692,881.054 428.026,847.054 449.5,816.5C 442.051,811.56 434.718,806.394 427.5,801C 419.098,794.274 412.598,786.107 408,776.5C 406.414,779.341 404.58,782.007 402.5,784.5C 399.321,765.587 395.987,746.754 392.5,728C 380.682,734.931 369.015,742.431 357.5,750.5C 358.365,708.374 370.365,669.707 393.5,634.5C 384.859,633.502 376.192,633.169 367.5,633.5C 375.47,614.726 385.137,596.892 396.5,580C 367.451,575.062 342.951,561.896 323,540.5C 288.975,496.759 272.308,447.093 273,391.5C 276.498,365.673 291.331,351.839 317.5,350C 322.743,344.742 322.743,339.409 317.5,334C 313.5,332 309.5,330 305.5,328C 286.723,312.261 284.556,294.428 299,274.5C 314.751,257.699 333.584,245.532 355.5,238C 396.838,224.047 438.172,224.047 479.5,238C 509.584,248.435 530.751,268.268 543,297.5C 545.535,306.325 548.369,314.992 551.5,323.5C 572.061,313.689 593.727,309.856 616.5,312C 636.686,303.413 657.686,300.247 679.5,302.5C 680.994,302.291 682.161,301.624 683,300.5C 684.497,264.678 695.164,232.012 715,202.5C 727.555,186.306 744.055,177.639 764.5,176.5C 812.118,181.943 841.951,207.943 854,254.5C 860.485,287.678 857.652,320.011 845.5,351.5C 865.425,363.379 884.592,376.379 903,390.5C 917.725,383.611 931.059,385.611 943,396.5C 945.333,393.167 947.667,389.833 950,386.5C 956.681,379.248 964.847,376.748 974.5,379C 993.545,386.377 1007.05,399.544 1015,418.5C 1024.24,442.689 1022.08,465.689 1008.5,487.5C 1072.95,478.151 1128.12,496.485 1174,542.5C 1203.48,535.89 1233.32,533.723 1263.5,536C 1297.5,538.254 1326.33,551.42 1350,575.5C 1355.19,582.335 1356.85,590.002 1355,598.5C 1349.54,613.8 1340.38,626.467 1327.5,636.5 Z"/></g>
<g><path style="opacity:1" fill="#e9b4a5" d="M 750.5,287.5 C 748.139,275.474 749.972,264.14 756,253.5C 760.456,247.375 765.289,241.542 770.5,236C 776.734,230.92 783.067,226.086 789.5,221.5C 793.792,222.594 798.126,223.094 802.5,223C 785.107,210.424 767.107,209.424 748.5,220C 740.121,227.256 735.288,236.423 734,247.5C 733.501,252.823 733.334,258.156 733.5,263.5C 732.291,267.618 731.624,271.951 731.5,276.5C 728.687,276.548 726.021,277.215 723.5,278.5C 720.844,275.199 718.678,271.532 717,267.5C 713.177,255.535 710.01,243.535 707.5,231.5C 731.525,182.664 766.191,173.498 811.5,204C 832.105,221.364 844.271,243.53 848,270.5C 851.561,297.199 849.394,323.366 841.5,349C 837.894,348.369 834.561,346.869 831.5,344.5C 834.888,337.508 836.055,330.174 835,322.5C 831.54,328.59 827.706,334.423 823.5,340C 820.965,340.617 818.632,340.117 816.5,338.5C 815.338,333.533 815.171,328.533 816,323.5C 817.221,313.751 818.554,304.084 820,294.5C 809.667,305.5 799.333,316.5 789,327.5C 785.593,315.782 782.093,304.116 778.5,292.5C 777.998,291.479 777.332,291.312 776.5,292C 770.667,298.5 764.833,305 759,311.5C 756.622,303.947 754.622,296.281 753,288.5C 752.329,287.748 751.496,287.414 750.5,287.5 Z"/></g>
<g><path style="opacity:1" fill="#090605" d="M 789.5,221.5 C 774.44,218.578 761.273,222.245 750,232.5C 742.557,246.924 737.891,262.258 736,278.5C 734.518,273.607 733.685,268.607 733.5,263.5C 733.334,258.156 733.501,252.823 734,247.5C 735.288,236.423 740.121,227.256 748.5,220C 767.107,209.424 785.107,210.424 802.5,223C 798.126,223.094 793.792,222.594 789.5,221.5 Z"/></g>
<g><path style="opacity:1" fill="#dc6f5f" d="M 789.5,221.5 C 783.067,226.086 776.734,230.92 770.5,236C 765.289,241.542 760.456,247.375 756,253.5C 749.972,264.14 748.139,275.474 750.5,287.5C 738.948,296.114 726.282,302.947 712.5,308C 703.605,306.295 694.605,304.795 685.5,303.5C 688.23,277.986 695.563,253.986 707.5,231.5C 710.01,243.535 713.177,255.535 717,267.5C 718.678,271.532 720.844,275.199 723.5,278.5C 726.021,277.215 728.687,276.548 731.5,276.5C 731.624,271.951 732.291,267.618 733.5,263.5C 733.685,268.607 734.518,273.607 736,278.5C 737.891,262.258 742.557,246.924 750,232.5C 761.273,222.245 774.44,218.578 789.5,221.5 Z"/></g>
<g><path style="opacity:1" fill="#e6b4a2" d="M 552.5,403.5 C 540.532,389.579 530.032,374.579 521,358.5C 513.926,343.122 507.593,327.455 502,311.5C 494.767,298.997 485.267,288.664 473.5,280.5C 446.686,255.75 416.019,249.583 381.5,262C 362.299,270.862 345.632,283.196 331.5,299C 332.167,299.667 332.833,299.667 333.5,299C 338.841,294.336 344.507,290.169 350.5,286.5C 373.476,297.31 389.809,314.476 399.5,338C 403.929,352.77 403.095,367.27 397,381.5C 386.598,408.567 368.098,427.734 341.5,439C 333.096,442.102 324.43,443.602 315.5,443.5C 311.272,429.805 308.439,415.805 307,401.5C 299.583,423.013 301.583,443.679 313,463.5C 317.579,470.914 323.079,477.581 329.5,483.5C 332.901,492.634 338.068,500.634 345,507.5C 350.515,520.705 357.681,532.871 366.5,544C 348.557,536.526 331.557,527.192 315.5,516C 314.552,515.517 313.552,515.351 312.5,515.5C 289.806,478.061 278.973,437.395 280,393.5C 281.362,378.916 288.529,368.416 301.5,362C 308.71,361.199 315.71,359.533 322.5,357C 330.372,349.09 331.538,340.257 326,330.5C 320.766,325.797 314.933,321.963 308.5,319C 296.136,306.92 295.303,294.087 306,280.5C 332.817,254.548 364.983,240.381 402.5,238C 438.166,234.66 471.166,242.327 501.5,261C 517.596,272.099 528.762,286.933 535,305.5C 541.049,327.696 547.715,349.696 555,371.5C 559.508,383.358 565.675,394.192 573.5,404C 566.42,404.795 559.42,404.628 552.5,403.5 Z"/></g>
<g><path style="opacity:1" fill="#0a0504" d="M 473.5,280.5 C 498.67,306.225 509.837,337.225 507,373.5C 510.915,390.914 516.582,407.581 524,423.5C 519.169,417.174 514.835,410.508 511,403.5C 508.038,409.792 503.205,413.959 496.5,416C 484.842,417.722 473.176,419.388 461.5,421C 443.498,425.004 431.998,435.837 427,453.5C 426.624,462.553 426.957,471.553 428,480.5C 417.199,461.405 418.199,443.071 431,425.5C 441.199,415.82 453.365,410.654 467.5,410C 476.5,409.667 485.5,409.333 494.5,409C 500.567,408.555 505.067,405.722 508,400.5C 508.667,399.167 508.667,397.833 508,396.5C 499.943,378.728 495.943,360.061 496,340.5C 486.814,304.651 464.98,280.151 430.5,267C 400.904,261.618 374.238,268.118 350.5,286.5C 344.507,290.169 338.841,294.336 333.5,299C 332.833,299.667 332.167,299.667 331.5,299C 345.632,283.196 362.299,270.862 381.5,262C 416.019,249.583 446.686,255.75 473.5,280.5 Z"/></g>
<g><path style="opacity:1" fill="#de705f" d="M 473.5,280.5 C 485.267,288.664 494.767,298.997 502,311.5C 507.593,327.455 513.926,343.122 521,358.5C 530.032,374.579 540.532,389.579 552.5,403.5C 551.127,403.343 549.793,403.51 548.5,404C 554.833,413 562.5,420.667 571.5,427C 564.607,428.816 557.607,429.982 550.5,430.5C 543.825,429.664 537.159,429.164 530.5,429C 541.311,437.91 552.977,445.576 565.5,452C 542.561,461.608 519.228,462.941 495.5,456C 514.395,467.281 533.728,477.781 553.5,487.5C 536.978,501.95 517.644,508.117 495.5,506C 504.186,509.169 512.852,512.336 521.5,515.5C 513.5,516.167 505.5,516.833 497.5,517.5C 488.713,517.246 480.046,518.08 471.5,520C 478.708,527.375 486.041,534.542 493.5,541.5C 460.109,567.015 422.775,575.848 381.5,568C 352.241,558.556 329.241,541.056 312.5,515.5C 313.552,515.351 314.552,515.517 315.5,516C 331.557,527.192 348.557,536.526 366.5,544C 357.681,532.871 350.515,520.705 345,507.5C 338.068,500.634 332.901,492.634 329.5,483.5C 331.789,485.006 334.123,486.173 336.5,487C 328.284,473.069 321.284,458.569 315.5,443.5C 324.43,443.602 333.096,442.102 341.5,439C 368.098,427.734 386.598,408.567 397,381.5C 403.095,367.27 403.929,352.77 399.5,338C 389.809,314.476 373.476,297.31 350.5,286.5C 374.238,268.118 400.904,261.618 430.5,267C 464.98,280.151 486.814,304.651 496,340.5C 495.943,360.061 499.943,378.728 508,396.5C 508.667,397.833 508.667,399.167 508,400.5C 505.067,405.722 500.567,408.555 494.5,409C 485.5,409.333 476.5,409.667 467.5,410C 453.365,410.654 441.199,415.82 431,425.5C 418.199,443.071 417.199,461.405 428,480.5C 426.957,471.553 426.624,462.553 427,453.5C 431.998,435.837 443.498,425.004 461.5,421C 473.176,419.388 484.842,417.722 496.5,416C 503.205,413.959 508.038,409.792 511,403.5C 514.835,410.508 519.169,417.174 524,423.5C 516.582,407.581 510.915,390.914 507,373.5C 509.837,337.225 498.67,306.225 473.5,280.5 Z"/></g>
<g><path style="opacity:1" fill="#d7d8dc" d="M 752.5,329.5 C 752.607,331.379 752.107,331.712 751,330.5C 747.31,324.44 743.143,318.773 738.5,313.5C 734.34,315.412 730.34,317.579 726.5,320C 738.829,328.5 751.496,336.5 764.5,344C 765.696,344.654 765.696,345.154 764.5,345.5C 752.602,340.275 740.269,336.442 727.5,334C 703.316,329.858 678.983,327.025 654.5,325.5C 644.33,320.387 633.663,316.554 622.5,314C 643.545,310.473 664.545,310.806 685.5,315C 706.913,315.439 727.079,310.605 746,300.5C 748.995,309.975 751.162,319.642 752.5,329.5 Z"/></g>
<g><path style="opacity:1" fill="#d1d2d6" d="M 784.5,346.5 C 784.631,347.239 784.464,347.906 784,348.5C 778.285,341.574 772.452,334.74 766.5,328C 762.717,328.545 759.05,329.712 755.5,331.5C 761.102,324.725 766.935,318.058 773,311.5C 776.936,323.142 780.77,334.809 784.5,346.5 Z"/></g>
<g><path style="opacity:1" fill="#91959f" d="M 752.5,329.5 C 753.268,330.263 753.768,331.263 754,332.5C 754.383,331.944 754.883,331.611 755.5,331.5C 759.05,329.712 762.717,328.545 766.5,328C 772.452,334.74 778.285,341.574 784,348.5C 784.464,347.906 784.631,347.239 784.5,346.5C 785.167,346.167 785.833,345.833 786.5,345.5C 791.111,342.733 795.611,339.733 800,336.5C 803.603,338.392 806.77,340.892 809.5,344C 810.816,344.528 811.483,344.028 811.5,342.5C 812.886,348.32 814.053,354.32 815,360.5C 815.495,358.527 815.662,356.527 815.5,354.5C 840.22,374.337 867.553,389.837 897.5,401C 900.623,402.351 903.623,402.518 906.5,401.5C 909.703,402.683 912.87,404.016 916,405.5C 916.765,405.43 917.265,405.097 917.5,404.5C 924.827,404.944 932.16,405.277 939.5,405.5C 937.246,413.022 936.079,420.689 936,428.5C 937.337,424.493 939.17,420.827 941.5,417.5C 945.757,410.417 951.757,405.25 959.5,402C 972.736,401.197 983.57,406.03 992,416.5C 998.944,426.062 1005.11,436.062 1010.5,446.5C 1012.55,461.459 1010.22,475.792 1003.5,489.5C 994.903,491.366 986.57,494.032 978.5,497.5C 978.167,497.167 977.833,496.833 977.5,496.5C 980.505,489.475 981.838,482.141 981.5,474.5C 986.743,473.028 991.076,471.028 994.5,468.5C 992.14,465.473 989.473,462.806 986.5,460.5C 978.688,451.59 969.021,448.424 957.5,451C 951.564,454.471 945.564,457.638 939.5,460.5C 936.909,448.073 929.742,439.406 918,434.5C 917.5,434.833 917,435.167 916.5,435.5C 919.265,438.042 921.265,441.042 922.5,444.5C 925.432,455.162 926.098,465.828 924.5,476.5C 924.818,472.206 923.985,468.206 922,464.5C 921.617,471.86 920.95,479.193 920,486.5C 919.784,488.384 919.117,490.051 918,491.5C 917.302,478.616 915.302,465.949 912,453.5C 908.646,440.468 900.312,433.801 887,433.5C 874.514,435.212 862.014,436.879 849.5,438.5C 843.634,437.989 837.967,436.655 832.5,434.5C 831.537,434.97 831.537,435.637 832.5,436.5C 838.693,453.104 850.693,461.604 868.5,462C 878.828,464.571 886.661,470.405 892,479.5C 892.667,481.833 892.667,484.167 892,486.5C 890.053,490.276 887.553,493.61 884.5,496.5C 883.833,496.5 883.167,496.5 882.5,496.5C 851.821,491.165 821.155,485.831 790.5,480.5C 766.806,470.768 743.139,460.934 719.5,451C 707.676,447.683 696.009,448.016 684.5,452C 682.061,452.533 681.395,453.7 682.5,455.5C 680.01,454.172 677.344,453.172 674.5,452.5C 670.382,434.168 673.548,417.168 684,401.5C 688.149,396.503 692.983,392.503 698.5,389.5C 716.143,389.659 733.143,393.159 749.5,400C 766.129,407.486 782.462,415.153 798.5,423C 773.966,398.731 744.632,383.397 710.5,377C 678.21,374.055 656.044,387.555 644,417.5C 639.505,434.324 643.005,449.157 654.5,462C 658.909,465.581 663.909,466.915 669.5,466C 667.942,465.79 666.609,465.29 665.5,464.5C 672.822,465.038 680.155,465.371 687.5,465.5C 684.086,473.836 682.919,482.502 684,491.5C 686.594,479.293 692.928,469.626 703,462.5C 690.756,500.795 697.589,535.295 723.5,566C 714.3,563.796 704.967,561.796 695.5,560C 674.86,555.966 654.193,555.632 633.5,559C 669.924,564.689 705.59,573.356 740.5,585C 764.202,593.096 785.702,604.929 805,620.5C 805.325,618.447 804.991,616.447 804,614.5C 798.551,604.051 790.718,595.885 780.5,590C 791.073,588.628 801.406,586.295 811.5,583C 837.97,573.04 853.637,554.207 858.5,526.5C 860.806,526.993 863.139,527.326 865.5,527.5C 865.412,532.536 864.912,537.536 864,542.5C 862.512,546.126 861.512,549.793 861,553.5C 867.88,546.453 872.38,538.12 874.5,528.5C 881.15,527.506 887.817,526.506 894.5,525.5C 904.504,529.537 914.837,530.537 925.5,528.5C 936.995,529.167 948.662,529.5 960.5,529.5C 990.672,529.073 1020.84,528.406 1051,527.5C 1087.56,527.399 1123.06,533.399 1157.5,545.5C 1144.88,549.005 1132.21,552.838 1119.5,557C 1101.65,562.918 1085.65,571.918 1071.5,584C 1054.89,598.821 1049.39,616.988 1055,638.5C 1057.65,645.79 1060.81,652.79 1064.5,659.5C 1070.34,672.952 1079,684.452 1090.5,694C 1107.8,706.98 1127.13,715.647 1148.5,720C 1161.79,721.902 1175.12,723.402 1188.5,724.5C 1194.55,738.59 1200.55,752.59 1206.5,766.5C 1205.83,768.819 1205.67,771.153 1206,773.5C 1212.53,765.754 1218.03,757.42 1222.5,748.5C 1225.46,745.94 1227.96,742.94 1230,739.5C 1230.23,740.737 1230.73,741.737 1231.5,742.5C 1233.25,747.182 1236.58,748.682 1241.5,747C 1243.05,745.903 1244.39,744.57 1245.5,743C 1264.79,733.295 1284.79,725.461 1305.5,719.5C 1303.14,727.583 1300.48,735.583 1297.5,743.5C 1283.09,746.215 1268.76,749.382 1254.5,753C 1245.99,755.336 1237.66,758.169 1229.5,761.5C 1225.47,759.674 1222.31,760.674 1220,764.5C 1218.55,772.386 1221.72,775.553 1229.5,774C 1232.32,770.42 1235.98,768.087 1240.5,767C 1255.13,761.426 1270.13,757.259 1285.5,754.5C 1285.94,754.435 1286.27,754.601 1286.5,755C 1280.03,763.3 1273.03,771.133 1265.5,778.5C 1257.81,779.432 1250.14,780.599 1242.5,782C 1237.86,787.567 1239.2,790.733 1246.5,791.5C 1247.24,791.369 1247.91,791.536 1248.5,792C 1225.13,808.458 1199.13,817.791 1170.5,820C 1122.22,821.399 1074.56,816.733 1027.5,806C 1028.06,805.617 1028.39,805.117 1028.5,804.5C 1062.87,794.14 1097.7,791.806 1133,797.5C 1136.98,797.187 1138.81,795.02 1138.5,791C 1138.64,787.302 1136.81,785.469 1133,785.5C 1091.88,782.875 1052.04,788.875 1013.5,803.5C 977.851,795.921 942.518,787.088 907.5,777C 906.244,776.583 905.577,775.75 905.5,774.5C 984.526,747.957 1064.19,745.791 1144.5,768C 1148.13,774.767 1153.13,776.1 1159.5,772C 1164.3,765.782 1163.3,760.782 1156.5,757C 1152.92,756.154 1149.58,756.654 1146.5,758.5C 1074.89,740.383 1003.56,741.55 932.5,762C 920.451,765.739 908.451,769.572 896.5,773.5C 842.2,757.456 789.2,737.956 737.5,715C 697.617,697.133 661.284,674.966 628.5,648.5C 635.625,645.959 642.625,643.125 649.5,640C 628.469,633.212 608.802,635.879 590.5,648C 588.269,649.61 586.269,651.443 584.5,653.5C 595.872,662.277 607.372,670.943 619,679.5C 615.048,741.445 641.215,785.278 697.5,811C 708.199,815.851 719.199,819.851 730.5,823C 792.884,837.511 855.884,848.678 919.5,856.5C 918.476,857.852 917.476,859.185 916.5,860.5C 919.21,858.232 922.377,856.899 926,856.5C 947.438,858.877 968.938,860.377 990.5,861C 994.602,876.703 1001.27,891.203 1010.5,904.5C 1004.46,909.191 997.79,912.857 990.5,915.5C 960.651,921.822 930.651,924.155 900.5,922.5C 916.032,907.468 932.032,892.968 948.5,879C 939.746,880.971 931.079,883.471 922.5,886.5C 922.5,885.167 922.5,883.833 922.5,882.5C 921.448,882.351 920.448,882.517 919.5,883C 915.793,886.85 911.46,889.683 906.5,891.5C 900.137,893.175 893.803,894.675 887.5,896C 890.475,891.05 892.641,885.883 894,880.5C 883.216,888.766 871.05,893.933 857.5,896C 844.248,898.052 830.914,898.886 817.5,898.5C 815.426,882.04 807.092,869.706 792.5,861.5C 792.167,861.667 791.833,861.833 791.5,862C 794.882,867.147 796.216,872.814 795.5,879C 795.485,882.576 794.818,885.742 793.5,888.5C 792.761,888.369 792.094,888.536 791.5,889C 792.701,889.903 793.535,891.069 794,892.5C 794.667,896.167 794.667,899.833 794,903.5C 792.578,908.608 791.412,913.774 790.5,919C 790.91,924.082 793.577,927.416 798.5,929C 815.866,932.266 833.199,931.933 850.5,928C 860.59,926.143 870.59,923.977 880.5,921.5C 881.037,950.328 890.371,977.661 908.5,1003.5C 909.325,1004.39 910.325,1004.72 911.5,1004.5C 911.5,1003.5 911.5,1002.5 911.5,1001.5C 937.154,994.071 962.487,995.071 987.5,1004.5C 1029.11,996.566 1070.11,999.732 1110.5,1014C 1129.78,1021.65 1145.78,1032.15 1158.5,1045.5C 1176.72,1049.95 1193.39,1057.61 1208.5,1068.5C 1215.48,1078.33 1222.31,1088.33 1229,1098.5C 1237.5,1112.5 1243.5,1127.5 1247,1143.5C 1247.5,1151.16 1247.67,1158.83 1247.5,1166.5C 1248.11,1167.39 1248.44,1168.39 1248.5,1169.5C 1255.65,1211.92 1257.82,1254.58 1255,1297.5C 1253.73,1307.21 1252.23,1316.87 1250.5,1326.5C 1292.7,1368.56 1318.87,1419.23 1329,1478.5C 1333.65,1504.64 1335.48,1530.97 1334.5,1557.5C 1136.5,1557.5 938.5,1557.5 740.5,1557.5C 743.128,1508.43 736.295,1460.76 720,1414.5C 715.059,1387.92 718.059,1362.26 729,1337.5C 732.271,1330.62 735.771,1323.96 739.5,1317.5C 741.977,1315.76 744.644,1314.26 747.5,1313C 715.885,1322.28 695.051,1342.78 685,1374.5C 680.367,1394.49 680.367,1414.49 685,1434.5C 689.136,1454.57 695.469,1473.91 704,1492.5C 712.255,1507.34 720.255,1522.34 728,1537.5C 730.673,1544.02 732.84,1550.69 734.5,1557.5C 660.5,1557.5 586.5,1557.5 512.5,1557.5C 469.204,1541.19 425.871,1524.86 382.5,1508.5C 381.624,1508.37 380.957,1508.7 380.5,1509.5C 388.641,1524.81 400.307,1536.64 415.5,1545C 424.351,1549.76 433.351,1553.93 442.5,1557.5C 402.167,1557.5 361.833,1557.5 321.5,1557.5C 318.433,1554.12 315.099,1550.95 311.5,1548C 275.87,1524.04 245.037,1494.87 219,1460.5C 208.707,1446.25 201.374,1430.58 197,1413.5C 196.333,1407.83 196.333,1402.17 197,1396.5C 221.632,1408.55 245.132,1422.22 267.5,1437.5C 267.369,1438.24 267.536,1438.91 268,1439.5C 269.373,1437.3 269.706,1434.97 269,1432.5C 263.996,1420.5 256.996,1409.83 248,1400.5C 234.471,1386.64 220.638,1373.14 206.5,1360C 196.819,1354.49 188.486,1347.33 181.5,1338.5C 167.516,1314.21 157.183,1288.55 150.5,1261.5C 153.202,1254.11 156.368,1247.11 160,1240.5C 152.663,1247.51 147.33,1255.85 144,1265.5C 143.487,1264.47 142.987,1263.47 142.5,1262.5C 143.147,1261.73 143.48,1260.73 143.5,1259.5C 138.026,1226.28 137.193,1192.95 141,1159.5C 143.296,1142.28 148.962,1126.28 158,1111.5C 160.668,1107.67 163.835,1104.33 167.5,1101.5C 165.902,1120.21 166.402,1138.87 169,1157.5C 169.333,1157.17 169.667,1156.83 170,1156.5C 170.255,1117.38 179.089,1080.38 196.5,1045.5C 201.521,1051.03 206.021,1057.03 210,1063.5C 238.772,1021.81 277.939,1005.31 327.5,1014C 310.217,1054.24 302.55,1096.07 304.5,1139.5C 304.5,1143.5 304.5,1147.5 304.5,1151.5C 305.791,1151.74 306.791,1151.4 307.5,1150.5C 307.322,1146.88 307.989,1143.54 309.5,1140.5C 325.502,1099.82 346.669,1062.15 373,1027.5C 383.486,1014.69 395.652,1003.86 409.5,995C 413.945,992.443 418.611,990.443 423.5,989C 422.756,987.961 421.756,987.461 420.5,987.5C 411.251,985.875 401.918,985.208 392.5,985.5C 384.16,985.309 375.826,984.976 367.5,984.5C 353.93,979.649 340.097,975.649 326,972.5C 323.015,971.96 322.848,971.294 325.5,970.5C 362.571,955.594 399.238,939.927 435.5,923.5C 438.75,922.476 441.416,921.476 443.5,920.5C 443.093,914.839 442.76,909.172 442.5,903.5C 447.871,876.214 458.038,850.881 473,827.5C 485.797,840.624 497.463,854.624 508,869.5C 522.511,884.664 539.677,895.831 559.5,903C 584.399,912.487 610.066,915.821 636.5,913C 653.068,909.606 669.401,905.773 685.5,901.5C 708.723,899.206 732.056,897.706 755.5,897C 746.891,895.358 738.224,894.192 729.5,893.5C 729.389,892.883 729.056,892.383 728.5,892C 738.553,889.871 748.553,887.537 758.5,885C 749.167,884.333 739.833,884.333 730.5,885C 701.566,887.918 672.566,889.751 643.5,890.5C 628.076,890.714 612.743,889.714 597.5,887.5C 589.925,886.216 582.592,884.049 575.5,881C 530.087,861.254 495.92,829.421 473,785.5C 474.231,790.526 475.898,795.526 478,800.5C 482.088,808.677 486.088,816.677 490,824.5C 482.246,819.037 474.079,814.203 465.5,810C 464.892,807.816 465.559,805.816 467.5,804C 464.013,801.664 461.013,802.164 458.5,805.5C 451.94,802.059 445.607,798.392 439.5,794.5C 433.444,775.94 429.111,756.94 426.5,737.5C 421.464,738.289 416.464,739.289 411.5,740.5C 410.39,723.175 409.39,705.842 408.5,688.5C 404.622,688.719 400.956,689.719 397.5,691.5C 397.167,691 396.833,690.5 396.5,690C 404.216,668.73 413.716,648.23 425,628.5C 435.422,610.928 445.589,593.261 455.5,575.5C 473.583,568.593 488.75,557.593 501,542.5C 501.982,541.241 502.315,539.908 502,538.5C 495.5,533.333 489,528.167 482.5,523C 503.516,522.46 524.516,522.46 545.5,523C 539.844,517.851 533.51,513.684 526.5,510.5C 542.111,505.041 555.778,496.541 567.5,485C 556.102,480.468 545.102,475.134 534.5,469C 554.311,465.619 573.311,459.619 591.5,451C 580.464,448.767 570.131,444.767 560.5,439C 573.714,437.05 586.38,433.383 598.5,428C 588.325,425.95 579.325,421.617 571.5,415C 580.558,413.388 589.558,411.388 598.5,409C 587.894,405.059 579.727,398.225 574,388.5C 566.3,374.565 560.467,359.898 556.5,344.5C 561.511,344.666 566.511,344.499 571.5,344C 566.106,342.258 560.773,340.424 555.5,338.5C 554.833,338.5 554.5,338.167 554.5,337.5C 591.852,332.178 628.852,333.845 665.5,342.5C 666.416,342.457 667.083,342.124 667.5,341.5C 670.719,343.027 673.885,344.693 677,346.5C 677.667,345.833 677.667,345.167 677,344.5C 670.078,337.317 662.578,330.983 654.5,325.5C 678.983,327.025 703.316,329.858 727.5,334C 740.269,336.442 752.602,340.275 764.5,345.5C 765.696,345.154 765.696,344.654 764.5,344C 751.496,336.5 738.829,328.5 726.5,320C 730.34,317.579 734.34,315.412 738.5,313.5C 743.143,318.773 747.31,324.44 751,330.5C 752.107,331.712 752.607,331.379 752.5,329.5 Z"/></g>
<g><path style="opacity:1" fill="#d2d3d7" d="M 811.5,342.5 C 811.483,344.028 810.816,344.528 809.5,344C 806.77,340.892 803.603,338.392 800,336.5C 795.611,339.733 791.111,342.733 786.5,345.5C 794.143,336.186 801.81,326.852 809.5,317.5C 810.971,325.767 811.638,334.1 811.5,342.5 Z"/></g>
<g><path style="opacity:1" fill="#d5d6da" d="M 667.5,341.5 C 667.083,342.124 666.416,342.457 665.5,342.5C 628.852,333.845 591.852,332.178 554.5,337.5C 552.633,334.887 551.633,331.887 551.5,328.5C 591.686,320.203 630.352,324.536 667.5,341.5 Z"/></g>
<g><path style="opacity:1" fill="#656974" d="M 555.5,338.5 C 560.773,340.424 566.106,342.258 571.5,344C 566.511,344.499 561.511,344.666 556.5,344.5C 555.85,342.565 555.517,340.565 555.5,338.5 Z"/></g>
<g><path style="opacity:1" fill="#535353" d="M 816.5,341.5 C 815.515,345.634 815.182,349.968 815.5,354.5C 814.188,349.985 814.188,345.318 815.5,340.5C 816.107,340.624 816.44,340.957 816.5,341.5 Z"/></g>
<g><path style="opacity:1" fill="#d4d6da" d="M 816.5,341.5 C 843.056,366.46 873.056,386.46 906.5,401.5C 903.623,402.518 900.623,402.351 897.5,401C 867.553,389.837 840.22,374.337 815.5,354.5C 815.182,349.968 815.515,345.634 816.5,341.5 Z"/></g>
<g><path style="opacity:1" fill="#050506" d="M 698.5,389.5 C 676.909,391.554 661.742,402.554 653,422.5C 649.12,435.585 650.787,447.918 658,459.5C 660.128,461.808 662.628,463.474 665.5,464.5C 666.609,465.29 667.942,465.79 669.5,466C 663.909,466.915 658.909,465.581 654.5,462C 643.005,449.157 639.505,434.324 644,417.5C 656.044,387.555 678.21,374.055 710.5,377C 744.632,383.397 773.966,398.731 798.5,423C 782.462,415.153 766.129,407.486 749.5,400C 733.143,393.159 716.143,389.659 698.5,389.5 Z"/></g>
<g><path style="opacity:1" fill="#d8d9dd" d="M 698.5,389.5 C 692.983,392.503 688.149,396.503 684,401.5C 673.548,417.168 670.382,434.168 674.5,452.5C 677.344,453.172 680.01,454.172 682.5,455.5C 685.127,456.092 687.794,456.425 690.5,456.5C 689.784,459.598 688.784,462.598 687.5,465.5C 680.155,465.371 672.822,465.038 665.5,464.5C 662.628,463.474 660.128,461.808 658,459.5C 650.787,447.918 649.12,435.585 653,422.5C 661.742,402.554 676.909,391.554 698.5,389.5 Z"/></g>
<g><path style="opacity:1" fill="#d4d5d9" d="M 1010.5,446.5 C 1005.11,436.062 998.944,426.062 992,416.5C 983.57,406.03 972.736,401.197 959.5,402C 951.757,405.25 945.757,410.417 941.5,417.5C 944.946,408.109 950.28,399.943 957.5,393C 962.401,389.221 967.734,388.554 973.5,391C 994.421,403.648 1006.75,422.148 1010.5,446.5 Z"/></g>
<g><path style="opacity:1" fill="#d2d3d6" d="M 939.5,405.5 C 932.16,405.277 924.827,404.944 917.5,404.5C 914.853,402.189 912.186,399.856 909.5,397.5C 919.142,398.696 928.808,400.696 938.5,403.5C 940.418,403.861 940.751,404.528 939.5,405.5 Z"/></g>
<g><path style="opacity:1" fill="#0a0605" d="M 315.5,443.5 C 321.284,458.569 328.284,473.069 336.5,487C 334.123,486.173 331.789,485.006 329.5,483.5C 323.079,477.581 317.579,470.914 313,463.5C 301.583,443.679 299.583,423.013 307,401.5C 308.439,415.805 311.272,429.805 315.5,443.5 Z"/></g>
<g><path style="opacity:1" fill="#757880" d="M 832.5,436.5 C 839.48,443.986 848.147,447.653 858.5,447.5C 865.825,446.645 873.158,446.478 880.5,447C 885.213,448.19 889.547,450.19 893.5,453C 905.578,467.441 906.578,482.608 896.5,498.5C 892.454,498.048 888.454,497.381 884.5,496.5C 887.553,493.61 890.053,490.276 892,486.5C 892.667,484.167 892.667,481.833 892,479.5C 886.661,470.405 878.828,464.571 868.5,462C 850.693,461.604 838.693,453.104 832.5,436.5 Z"/></g>
<g><path style="opacity:1" fill="#72757d" d="M 922.5,444.5 C 935.945,464.224 935.778,483.891 922,503.5C 923.695,494.638 924.528,485.638 924.5,476.5C 926.098,465.828 925.432,455.162 922.5,444.5 Z"/></g>
<g><path style="opacity:1" fill="#757880" d="M 986.5,460.5 C 967.862,456.4 953.362,462.4 943,478.5C 942.787,472.271 941.621,466.271 939.5,460.5C 945.564,457.638 951.564,454.471 957.5,451C 969.021,448.424 978.688,451.59 986.5,460.5 Z"/></g>
<g><path style="opacity:1" fill="#cccccc" d="M 767.5,498.5 C 756.452,494.43 745.118,491.263 733.5,489C 729.113,488.294 724.78,488.46 720.5,489.5C 720.466,481.371 721.299,473.371 723,465.5C 738.09,472.962 753.257,480.295 768.5,487.5C 769.167,491.195 768.833,494.861 767.5,498.5 Z"/></g>
<g><path style="opacity:1" fill="#73767e" d="M 994.5,468.5 C 991.076,471.028 986.743,473.028 981.5,474.5C 981.039,472.45 980.372,470.45 979.5,468.5C 984.519,467.272 989.519,467.272 994.5,468.5 Z"/></g>
<g><path style="opacity:1" fill="#f8f8f8" d="M 968.5,471.5 C 970.017,471.511 971.184,472.177 972,473.5C 974.572,480.682 973.572,487.349 969,493.5C 965.088,498.083 960.588,501.917 955.5,505C 949.389,507.122 943.389,506.955 937.5,504.5C 936.479,503.998 936.312,503.332 937,502.5C 947.395,491.937 957.895,481.604 968.5,471.5 Z"/></g>
<g><path style="opacity:1" fill="#757880" d="M 790.5,480.5 C 821.155,485.831 851.821,491.165 882.5,496.5C 879.389,498.559 876.056,500.392 872.5,502C 870.473,503.396 870.14,505.062 871.5,507C 875.356,507.177 879.023,507.677 882.5,508.5C 874.137,509.961 865.804,509.795 857.5,508C 834.85,499.333 812.516,490.166 790.5,480.5 Z"/></g>
<g><path style="opacity:1" fill="#fdfdfd" d="M 767.5,498.5 C 766.007,508.452 765.507,518.452 766,528.5C 766.414,534.752 768.581,540.252 772.5,545C 774.044,546.187 775.711,546.52 777.5,546C 779.894,544.048 781.394,541.548 782,538.5C 783.344,527.882 783.844,517.216 783.5,506.5C 801.921,515.21 819.921,524.71 837.5,535C 838.381,535.708 839.047,536.542 839.5,537.5C 820.474,569.013 793.14,579.847 757.5,570C 744.393,564.559 734.893,555.393 729,542.5C 722.1,525.518 719.267,507.852 720.5,489.5C 724.78,488.46 729.113,488.294 733.5,489C 745.118,491.263 756.452,494.43 767.5,498.5 Z"/></g>
<g><path style="opacity:1" fill="#cccccc" d="M 839.5,537.5 C 839.047,536.542 838.381,535.708 837.5,535C 819.921,524.71 801.921,515.21 783.5,506.5C 783.393,502.902 782.726,499.402 781.5,496C 781.833,495.5 782.167,495 782.5,494.5C 803.5,504 824.5,513.5 845.5,523C 845.367,528.455 843.367,533.288 839.5,537.5 Z"/></g>
<g><path style="opacity:1" fill="#5f6268" d="M 882.5,496.5 C 883.167,496.5 883.833,496.5 884.5,496.5C 888.454,497.381 892.454,498.048 896.5,498.5C 892.692,502.965 888.026,506.298 882.5,508.5C 879.023,507.677 875.356,507.177 871.5,507C 870.14,505.062 870.473,503.396 872.5,502C 876.056,500.392 879.389,498.559 882.5,496.5 Z"/></g>
<g><path style="opacity:1" fill="#d7d8dc" d="M 1157.5,545.5 C 1123.06,533.399 1087.56,527.399 1051,527.5C 1020.84,528.406 990.672,529.073 960.5,529.5C 948.662,529.5 936.995,529.167 925.5,528.5C 949.802,520.924 974.469,514.591 999.5,509.5C 1011.23,508.049 1022.9,506.383 1034.5,504.5C 1055.72,502.322 1076.39,504.822 1096.5,512C 1118.59,520.377 1139.92,530.377 1160.5,542C 1163.75,544.56 1162.75,545.727 1157.5,545.5 Z"/></g>
<g><path style="opacity:1" fill="#a4a5a5" d="M 1034.5,504.5 C 1022.9,506.383 1011.23,508.049 999.5,509.5C 1010.83,506.456 1022.5,504.789 1034.5,504.5 Z"/></g>
<g><path style="opacity:1" fill="#090403" d="M 352.5,514.5 C 352.56,513.957 352.893,513.624 353.5,513.5C 379.845,532.586 409.178,539.753 441.5,535C 452.289,532.839 462.955,530.506 473.5,528C 442.232,549.791 409.565,552.124 375.5,535C 366.72,529.386 359.054,522.552 352.5,514.5 Z"/></g>
<g><path style="opacity:1" fill="#703930" d="M 521.5,515.5 C 522.473,515.987 523.473,516.487 524.5,517C 515.506,517.5 506.506,517.666 497.5,517.5C 505.5,516.833 513.5,516.167 521.5,515.5 Z"/></g>
<g><path style="opacity:1" fill="#91959f" d="M 1235.5,562.5 C 1258.73,561.071 1281.4,563.904 1303.5,571C 1324.7,581.397 1326.03,594.063 1307.5,609C 1285.53,622.214 1261.86,630.881 1236.5,635C 1211.24,638.722 1185.91,639.388 1160.5,637C 1147.18,635.676 1135.35,630.842 1125,622.5C 1119.64,613.442 1120.64,605.108 1128,597.5C 1142.41,586.045 1158.58,577.879 1176.5,573C 1196.01,567.751 1215.67,564.251 1235.5,562.5 Z"/></g>
<g><path style="opacity:1" fill="#757880" d="M 455.5,575.5 C 445.589,593.261 435.422,610.928 425,628.5C 413.716,648.23 404.216,668.73 396.5,690C 396.833,690.5 397.167,691 397.5,691.5C 400.956,689.719 404.622,688.719 408.5,688.5C 409.39,705.842 410.39,723.175 411.5,740.5C 416.464,739.289 421.464,738.289 426.5,737.5C 429.111,756.94 433.444,775.94 439.5,794.5C 428.488,789.329 418.488,782.662 409.5,774.5C 412.167,769.162 415.334,764.162 419,759.5C 419.982,758.241 420.315,756.908 420,755.5C 415,761.833 410,768.167 405,774.5C 403.267,758.174 401.601,741.841 400,725.5C 399.765,721.68 398.932,718.013 397.5,714.5C 387.752,719.789 378.252,725.456 369,731.5C 375.186,689.968 392.02,653.468 419.5,622C 419.043,621.586 418.709,621.086 418.5,620.5C 416.5,620.167 414.5,619.833 412.5,619.5C 404.179,620.456 395.845,620.622 387.5,620C 394.455,607.253 401.788,594.753 409.5,582.5C 425.188,582.329 440.522,579.996 455.5,575.5 Z"/></g>
<g><path style="opacity:1" fill="#040404" d="M 628.5,648.5 C 624.703,649.709 621.036,651.209 617.5,653C 654.083,686.979 695.416,713.979 741.5,734C 784.655,752.823 828.822,768.99 874,782.5C 881.645,779.585 889.145,776.585 896.5,773.5C 908.451,769.572 920.451,765.739 932.5,762C 1003.56,741.55 1074.89,740.383 1146.5,758.5C 1149.58,756.654 1152.92,756.154 1156.5,757C 1163.3,760.782 1164.3,765.782 1159.5,772C 1153.13,776.1 1148.13,774.767 1144.5,768C 1064.19,745.791 984.526,747.957 905.5,774.5C 896.555,776.981 887.889,780.147 879.5,784C 915.59,794.418 951.757,804.585 988,814.5C 996.56,810.712 1005.06,807.045 1013.5,803.5C 1052.04,788.875 1091.88,782.875 1133,785.5C 1136.81,785.469 1138.64,787.302 1138.5,791C 1138.81,795.02 1136.98,797.187 1133,797.5C 1097.7,791.806 1062.87,794.14 1028.5,804.5C 1017.59,807.637 1006.92,811.47 996.5,816C 1051.3,832.349 1107.3,838.683 1164.5,835C 1182.92,834.269 1201.26,832.603 1219.5,830C 1237.35,827.16 1252.19,818.994 1264,805.5C 1268.87,799.599 1273.37,793.433 1277.5,787C 1266.79,786.666 1256.46,788.166 1246.5,791.5C 1239.2,790.733 1237.86,787.567 1242.5,782C 1250.14,780.599 1257.81,779.432 1265.5,778.5C 1271.49,778.849 1277.33,778.182 1283,776.5C 1287.5,768.847 1290.84,760.847 1293,752.5C 1290.39,753.123 1287.89,753.79 1285.5,754.5C 1270.13,757.259 1255.13,761.426 1240.5,767C 1235.98,768.087 1232.32,770.42 1229.5,774C 1221.72,775.553 1218.55,772.386 1220,764.5C 1222.31,760.674 1225.47,759.674 1229.5,761.5C 1237.66,758.169 1245.99,755.336 1254.5,753C 1268.76,749.382 1283.09,746.215 1297.5,743.5C 1300.48,735.583 1303.14,727.583 1305.5,719.5C 1284.79,725.461 1264.79,733.295 1245.5,743C 1244.39,744.57 1243.05,745.903 1241.5,747C 1236.58,748.682 1233.25,747.182 1231.5,742.5C 1231.02,739.212 1232.02,736.545 1234.5,734.5C 1245.34,732.758 1255.68,729.258 1265.5,724C 1279.6,718.854 1293.94,714.521 1308.5,711C 1315.07,687.696 1320.9,664.196 1326,640.5C 1326.49,642.134 1326.66,643.801 1326.5,645.5C 1326,656.189 1325.17,666.855 1324,677.5C 1321.96,687.425 1320.46,697.425 1319.5,707.5C 1375.97,695.309 1432.64,694.309 1489.5,704.5C 1489.5,705.167 1489.17,705.5 1488.5,705.5C 1430.44,696.571 1373.11,699.904 1316.5,715.5C 1314.66,724.54 1312.66,733.54 1310.5,742.5C 1376.61,739.322 1439.61,751.656 1499.5,779.5C 1499.5,779.833 1499.5,780.167 1499.5,780.5C 1460.12,763.904 1419.12,753.404 1376.5,749C 1357.17,748.333 1337.83,748.333 1318.5,749C 1314.75,749.26 1311.08,749.927 1307.5,751C 1303.99,759.865 1300.32,768.699 1296.5,777.5C 1341.11,783.66 1382.11,798.993 1419.5,823.5C 1381.36,801.714 1340.36,789.047 1296.5,785.5C 1294.9,785.551 1293.4,785.884 1292,786.5C 1281.47,809.025 1264.97,825.525 1242.5,836C 1219.36,841.309 1196.03,845.475 1172.5,848.5C 1165.08,898.757 1136.41,927.923 1086.5,936C 1073.55,937.477 1060.89,936.311 1048.5,932.5C 1035.39,940.146 1021.39,945.312 1006.5,948C 994.941,949.294 983.608,948.294 972.5,945C 969.609,943.726 966.942,942.226 964.5,940.5C 959.399,941.143 954.399,942.309 949.5,944C 933.752,947.537 918.085,947.203 902.5,943C 899.568,942.728 897.068,941.562 895,939.5C 895.856,944.914 897.356,950.248 899.5,955.5C 926.948,953.898 951.782,960.898 974,976.5C 1008.26,968.631 1042.76,967.464 1077.5,973C 1114.01,980.167 1144.84,997.333 1170,1024.5C 1175.62,1031.46 1180.45,1038.96 1184.5,1047C 1227.27,1058.44 1252.77,1085.94 1261,1129.5C 1263.38,1145.44 1262.88,1161.27 1259.5,1177C 1285.08,1210.79 1291.24,1247.96 1278,1288.5C 1276.05,1294.4 1273.55,1300.07 1270.5,1305.5C 1325.14,1350.77 1354.64,1409.1 1359,1480.5C 1360.55,1506.37 1359.05,1532.03 1354.5,1557.5C 1350.83,1557.5 1347.17,1557.5 1343.5,1557.5C 1351.28,1503.17 1346.11,1450.17 1328,1398.5C 1314.41,1364.95 1295.25,1335.11 1270.5,1309C 1269.55,1308.38 1268.72,1308.55 1268,1309.5C 1264.41,1315.59 1260.25,1321.25 1255.5,1326.5C 1254.64,1327.58 1253.64,1327.75 1252.5,1327C 1279.1,1273.62 1277.76,1221.12 1248.5,1169.5C 1248.44,1168.39 1248.11,1167.39 1247.5,1166.5C 1250.69,1168.17 1253.52,1170.51 1256,1173.5C 1256.13,1143.24 1247.8,1115.57 1231,1090.5C 1224.29,1082.29 1216.79,1074.96 1208.5,1068.5C 1193.39,1057.61 1176.72,1049.95 1158.5,1045.5C 1165.35,1044.58 1172.35,1044.41 1179.5,1045C 1159.41,1020.94 1134.41,1003.94 1104.5,994C 1062.81,980.794 1020.14,976.294 976.5,980.5C 982.496,986.835 986.83,994.168 989.5,1002.5C 989.253,1003.71 988.586,1004.38 987.5,1004.5C 973.111,987.286 954.777,976.119 932.5,971C 922.613,968.194 912.613,966.027 902.5,964.5C 905.391,976.98 908.391,989.313 911.5,1001.5C 911.5,1002.5 911.5,1003.5 911.5,1004.5C 910.325,1004.72 909.325,1004.39 908.5,1003.5C 890.371,977.661 881.037,950.328 880.5,921.5C 870.59,923.977 860.59,926.143 850.5,928C 833.199,931.933 815.866,932.266 798.5,929C 793.577,927.416 790.91,924.082 790.5,919C 791.412,913.774 792.578,908.608 794,903.5C 794.667,899.833 794.667,896.167 794,892.5C 793.535,891.069 792.701,889.903 791.5,889C 792.094,888.536 792.761,888.369 793.5,888.5C 795.784,890.361 797.618,892.695 799,895.5C 800.311,903.105 800.811,910.772 800.5,918.5C 823.264,918.505 845.931,917.005 868.5,914C 881.395,906.726 894.062,899.226 906.5,891.5C 911.46,889.683 915.793,886.85 919.5,883C 920.448,882.517 921.448,882.351 922.5,882.5C 922.5,883.833 922.5,885.167 922.5,886.5C 919.811,898.361 913.644,908.028 904,915.5C 902.295,917.577 901.128,919.91 900.5,922.5C 898.382,925.055 898.049,927.888 899.5,931C 931.78,936.842 962.114,931.676 990.5,915.5C 997.79,912.857 1004.46,909.191 1010.5,904.5C 1001.27,891.203 994.602,876.703 990.5,861C 968.938,860.377 947.438,858.877 926,856.5C 922.377,856.899 919.21,858.232 916.5,860.5C 917.476,859.185 918.476,857.852 919.5,856.5C 855.884,848.678 792.884,837.511 730.5,823C 719.199,819.851 708.199,815.851 697.5,811C 641.215,785.278 615.048,741.445 619,679.5C 607.372,670.943 595.872,662.277 584.5,653.5C 586.269,651.443 588.269,649.61 590.5,648C 608.802,635.879 628.469,633.212 649.5,640C 642.625,643.125 635.625,645.959 628.5,648.5 Z"/></g>
<g><path style="opacity:1" fill="#91959e" d="M 1327.5,636.5 C 1327.81,639.713 1327.48,642.713 1326.5,645.5C 1326.66,643.801 1326.49,642.134 1326,640.5C 1320.9,664.196 1315.07,687.696 1308.5,711C 1293.94,714.521 1279.6,718.854 1265.5,724C 1255.68,729.258 1245.34,732.758 1234.5,734.5C 1238.08,728.401 1241.92,722.401 1246,716.5C 1248.99,710.359 1251.49,704.026 1253.5,697.5C 1269.5,684.824 1285.17,671.824 1300.5,658.5C 1309.64,651.417 1318.64,644.083 1327.5,636.5 Z"/></g>
<g><path style="opacity:1" fill="#757880" d="M 628.5,648.5 C 661.284,674.966 697.617,697.133 737.5,715C 789.2,737.956 842.2,757.456 896.5,773.5C 889.145,776.585 881.645,779.585 874,782.5C 828.822,768.99 784.655,752.823 741.5,734C 695.416,713.979 654.083,686.979 617.5,653C 621.036,651.209 624.703,649.709 628.5,648.5 Z"/></g>
<g><path style="opacity:1" fill="#767981" d="M 1064.5,659.5 C 1079.86,679.372 1099.86,692.538 1124.5,699C 1154.33,705.362 1184.33,706.196 1214.5,701.5C 1215.34,723.647 1212.67,745.314 1206.5,766.5C 1200.55,752.59 1194.55,738.59 1188.5,724.5C 1175.12,723.402 1161.79,721.902 1148.5,720C 1127.13,715.647 1107.8,706.98 1090.5,694C 1079,684.452 1070.34,672.952 1064.5,659.5 Z"/></g>
<g><path style="opacity:1" fill="#74777f" d="M 1300.5,658.5 C 1285.17,671.824 1269.5,684.824 1253.5,697.5C 1251.49,704.026 1248.99,710.359 1246,716.5C 1241.92,722.401 1238.08,728.401 1234.5,734.5C 1232.02,736.545 1231.02,739.212 1231.5,742.5C 1230.73,741.737 1230.23,740.737 1230,739.5C 1227.96,742.94 1225.46,745.94 1222.5,748.5C 1229.66,731.518 1234.5,713.851 1237,695.5C 1258.8,684.027 1279.96,671.693 1300.5,658.5 Z"/></g>
<g><path style="opacity:1" fill="#cbcbcb" d="M 852.5,819.5 C 851.527,819.013 850.527,818.513 849.5,818C 851.5,817.667 853.5,817.333 855.5,817C 788.298,792.4 723.298,762.9 660.5,728.5C 659.893,728.624 659.56,728.957 659.5,729.5C 650.026,718.863 642.859,706.863 638,693.5C 672.304,720.085 709.471,742.252 749.5,760C 803.911,784.36 859.911,804.36 917.5,820C 900.158,820.129 882.825,819.629 865.5,818.5C 860.987,818.501 856.653,818.834 852.5,819.5 Z"/></g>
<g><path style="opacity:1" fill="#070708" d="M 838.5,713.5 C 837.508,713.672 836.842,713.338 836.5,712.5C 934.816,690.07 1031.98,694.404 1128,725.5C 1138.71,721.552 1143.71,725.219 1143,736.5C 1139.49,741.447 1134.99,742.613 1129.5,740C 1128.16,737.8 1126.5,735.967 1124.5,734.5C 1031.11,701.131 935.773,694.131 838.5,713.5 Z"/></g>
<g><path style="opacity:1" fill="#f8f3f0" d="M 1488.5,705.5 C 1492.05,706.615 1495.71,707.615 1499.5,708.5C 1499.5,732.167 1499.5,755.833 1499.5,779.5C 1439.61,751.656 1376.61,739.322 1310.5,742.5C 1312.66,733.54 1314.66,724.54 1316.5,715.5C 1373.11,699.904 1430.44,696.571 1488.5,705.5 Z"/></g>
<g><path style="opacity:1" fill="#050505" d="M 548.5,698.5 C 549.117,698.611 549.617,698.944 550,699.5C 558.513,743.019 577.013,781.519 605.5,815C 589.059,807.579 575.893,796.079 566,780.5C 549.981,755.398 544.147,728.064 548.5,698.5 Z"/></g>
<g><path style="opacity:1" fill="#807d7c" d="M 1489.5,704.5 C 1492.8,705.294 1496.14,705.96 1499.5,706.5C 1499.5,707.167 1499.5,707.833 1499.5,708.5C 1495.71,707.615 1492.05,706.615 1488.5,705.5C 1489.17,705.5 1489.5,705.167 1489.5,704.5 Z"/></g>
<g><path style="opacity:1" fill="#292a2c" d="M 836.5,712.5 C 836.842,713.338 837.508,713.672 838.5,713.5C 824.173,717.218 809.839,721.051 795.5,725C 808.944,720.056 822.61,715.89 836.5,712.5 Z"/></g>
<g><path style="opacity:1" fill="#fcfcfc" d="M 852.5,819.5 C 864.5,823.833 876.5,828.167 888.5,832.5C 885.038,833.482 881.371,833.815 877.5,833.5C 841.606,832.825 806.273,827.991 771.5,819C 732.376,807.03 698.543,786.53 670,757.5C 669.333,756.833 669.333,756.167 670,755.5C 679.173,759.891 688.673,763.058 698.5,765C 682.807,756.141 669.807,744.307 659.5,729.5C 659.56,728.957 659.893,728.624 660.5,728.5C 723.298,762.9 788.298,792.4 855.5,817C 853.5,817.333 851.5,817.667 849.5,818C 850.527,818.513 851.527,819.013 852.5,819.5 Z"/></g>
<g><path style="opacity:1" fill="#faf5f2" d="M 1499.5,780.5 C 1499.5,1039.5 1499.5,1298.5 1499.5,1557.5C 1451.17,1557.5 1402.83,1557.5 1354.5,1557.5C 1359.05,1532.03 1360.55,1506.37 1359,1480.5C 1354.64,1409.1 1325.14,1350.77 1270.5,1305.5C 1273.55,1300.07 1276.05,1294.4 1278,1288.5C 1291.24,1247.96 1285.08,1210.79 1259.5,1177C 1262.88,1161.27 1263.38,1145.44 1261,1129.5C 1252.77,1085.94 1227.27,1058.44 1184.5,1047C 1180.45,1038.96 1175.62,1031.46 1170,1024.5C 1144.84,997.333 1114.01,980.167 1077.5,973C 1042.76,967.464 1008.26,968.631 974,976.5C 951.782,960.898 926.948,953.898 899.5,955.5C 897.356,950.248 895.856,944.914 895,939.5C 897.068,941.562 899.568,942.728 902.5,943C 918.085,947.203 933.752,947.537 949.5,944C 954.399,942.309 959.399,941.143 964.5,940.5C 966.942,942.226 969.609,943.726 972.5,945C 983.608,948.294 994.941,949.294 1006.5,948C 1021.39,945.312 1035.39,940.146 1048.5,932.5C 1060.89,936.311 1073.55,937.477 1086.5,936C 1136.41,927.923 1165.08,898.757 1172.5,848.5C 1196.03,845.475 1219.36,841.309 1242.5,836C 1264.97,825.525 1281.47,809.025 1292,786.5C 1293.4,785.884 1294.9,785.551 1296.5,785.5C 1340.36,789.047 1381.36,801.714 1419.5,823.5C 1382.11,798.993 1341.11,783.66 1296.5,777.5C 1300.32,768.699 1303.99,759.865 1307.5,751C 1311.08,749.927 1314.75,749.26 1318.5,749C 1337.83,748.333 1357.17,748.333 1376.5,749C 1419.12,753.404 1460.12,763.904 1499.5,780.5 Z"/></g>
<g><path style="opacity:1" fill="#74777f" d="M 1265.5,778.5 C 1273.03,771.133 1280.03,763.3 1286.5,755C 1286.27,754.601 1285.94,754.435 1285.5,754.5C 1287.89,753.79 1290.39,753.123 1293,752.5C 1290.84,760.847 1287.5,768.847 1283,776.5C 1277.33,778.182 1271.49,778.849 1265.5,778.5 Z"/></g>
<g><path style="opacity:1" fill="#757880" d="M 905.5,774.5 C 905.577,775.75 906.244,776.583 907.5,777C 942.518,787.088 977.851,795.921 1013.5,803.5C 1005.06,807.045 996.56,810.712 988,814.5C 951.757,804.585 915.59,794.418 879.5,784C 887.889,780.147 896.555,776.981 905.5,774.5 Z"/></g>
<g><path style="opacity:1" fill="#757880" d="M 1028.5,804.5 C 1028.39,805.117 1028.06,805.617 1027.5,806C 1074.56,816.733 1122.22,821.399 1170.5,820C 1199.13,817.791 1225.13,808.458 1248.5,792C 1247.91,791.536 1247.24,791.369 1246.5,791.5C 1256.46,788.166 1266.79,786.666 1277.5,787C 1273.37,793.433 1268.87,799.599 1264,805.5C 1252.19,818.994 1237.35,827.16 1219.5,830C 1201.26,832.603 1182.92,834.269 1164.5,835C 1107.3,838.683 1051.3,832.349 996.5,816C 1006.92,811.47 1017.59,807.637 1028.5,804.5 Z"/></g>
<g><path style="opacity:1" fill="#5f5d5c" d="M 1419.5,823.5 C 1420.76,823.461 1421.76,823.961 1422.5,825C 1421,825.585 1420,825.085 1419.5,823.5 Z"/></g>
<g><path style="opacity:1" fill="#767981" d="M 685.5,901.5 C 669.401,905.773 653.068,909.606 636.5,913C 610.066,915.821 584.399,912.487 559.5,903C 539.677,895.831 522.511,884.664 508,869.5C 497.463,854.624 485.797,840.624 473,827.5C 458.038,850.881 447.871,876.214 442.5,903.5C 441.824,891.098 441.158,878.598 440.5,866C 441.235,862.425 442.235,858.925 443.5,855.5C 446.967,842.905 452.3,831.238 459.5,820.5C 470.871,825.68 482.705,829.346 495,831.5C 529.61,878.895 576.443,903.895 635.5,906.5C 652.219,905.192 668.885,903.526 685.5,901.5 Z"/></g>
<g><path style="opacity:1" fill="#7b7b7b" d="M 888.5,832.5 C 889.473,832.987 890.473,833.487 891.5,834C 886.648,834.815 881.981,834.648 877.5,833.5C 881.371,833.815 885.038,833.482 888.5,832.5 Z"/></g>
<g><path style="opacity:1" fill="#cccccc" d="M 1091.5,864.5 C 1065.5,863.9 1039.5,863.233 1013.5,862.5C 1013.36,851.462 1018.7,844.629 1029.5,842C 1047.5,840.593 1065.16,842.26 1082.5,847C 1083.93,847.465 1085.1,848.299 1086,849.5C 1088.73,854.19 1090.56,859.19 1091.5,864.5 Z"/></g>
<g><path style="opacity:1" fill="#c9c9c9" d="M 1149.5,867.5 C 1132.69,865.972 1115.69,865.305 1098.5,865.5C 1098.74,866.791 1098.4,867.791 1097.5,868.5C 1097.56,860.823 1099.89,853.989 1104.5,848C 1121.11,846.559 1137.78,846.059 1154.5,846.5C 1154.21,853.953 1152.54,860.953 1149.5,867.5 Z"/></g>
<g><path style="opacity:1" fill="#3d3e42" d="M 916.5,860.5 C 915.438,862.757 913.772,863.923 911.5,864C 912.789,862.198 914.456,861.031 916.5,860.5 Z"/></g>
<g><path style="opacity:1" fill="#fdfdfd" d="M 1013.5,862.5 C 1039.5,863.233 1065.5,863.9 1091.5,864.5C 1093.47,868.559 1094.97,872.892 1096,877.5C 1096.5,874.487 1097,871.487 1097.5,868.5C 1098.4,867.791 1098.74,866.791 1098.5,865.5C 1115.69,865.305 1132.69,865.972 1149.5,867.5C 1143.7,887.121 1132.37,902.621 1115.5,914C 1110.82,916.587 1105.82,918.087 1100.5,918.5C 1099.11,912.063 1097.28,905.729 1095,899.5C 1091.56,906.717 1088.39,914.05 1085.5,921.5C 1059.86,923.932 1039.7,914.598 1025,893.5C 1018.9,883.982 1015.07,873.648 1013.5,862.5 Z"/></g>
<g><path style="opacity:1" fill="#767981" d="M 906.5,891.5 C 894.062,899.226 881.395,906.726 868.5,914C 845.931,917.005 823.264,918.505 800.5,918.5C 800.811,910.772 800.311,903.105 799,895.5C 797.618,892.695 795.784,890.361 793.5,888.5C 794.818,885.742 795.485,882.576 795.5,879C 796.216,872.814 794.882,867.147 791.5,862C 791.833,861.833 792.167,861.667 792.5,861.5C 807.092,869.706 815.426,882.04 817.5,898.5C 830.914,898.886 844.248,898.052 857.5,896C 871.05,893.933 883.216,888.766 894,880.5C 892.641,885.883 890.475,891.05 887.5,896C 893.803,894.675 900.137,893.175 906.5,891.5 Z"/></g>
<g><path style="opacity:1" fill="#66686f" d="M 443.5,855.5 C 442.235,858.925 441.235,862.425 440.5,866C 441.158,878.598 441.824,891.098 442.5,903.5C 442.76,909.172 443.093,914.839 443.5,920.5C 436.918,919.178 430.251,918.511 423.5,918.5C 428.127,897.218 433.96,876.218 441,855.5C 441.77,854.402 442.603,854.402 443.5,855.5 Z"/></g>
<g><path style="opacity:1" fill="#767981" d="M 900.5,922.5 C 901.128,919.91 902.295,917.577 904,915.5C 913.644,908.028 919.811,898.361 922.5,886.5C 931.079,883.471 939.746,880.971 948.5,879C 932.032,892.968 916.032,907.468 900.5,922.5 Z"/></g>
<g><path style="opacity:1" fill="#757880" d="M 729.5,893.5 C 716.358,892.483 703.192,891.816 690,891.5C 668.522,893.068 647.022,893.568 625.5,893C 615.775,892.46 606.441,890.627 597.5,887.5C 612.743,889.714 628.076,890.714 643.5,890.5C 672.566,889.751 701.566,887.918 730.5,885C 739.833,884.333 749.167,884.333 758.5,885C 748.553,887.537 738.553,889.871 728.5,892C 729.056,892.383 729.389,892.883 729.5,893.5 Z"/></g>
<g><path style="opacity:1" fill="#74777f" d="M 1017.5,912.5 C 1013.78,913.527 1010.45,915.361 1007.5,918C 1002.02,922.315 997.018,927.149 992.5,932.5C 997.287,933.638 1001.95,933.138 1006.5,931C 1013.83,928.332 1020.83,925.165 1027.5,921.5C 1029.39,922.702 1031.23,924.035 1033,925.5C 1033.69,926.332 1033.52,926.998 1032.5,927.5C 1011.45,940.042 988.786,944.376 964.5,940.5C 981.847,932.357 997.513,921.524 1011.5,908C 1014.12,908.427 1016.12,909.927 1017.5,912.5 Z"/></g>
<g><path style="opacity:1" fill="#90949e" d="M 1017.5,912.5 C 1020.83,915.5 1024.17,918.5 1027.5,921.5C 1020.83,925.165 1013.83,928.332 1006.5,931C 1001.95,933.138 997.287,933.638 992.5,932.5C 997.018,927.149 1002.02,922.315 1007.5,918C 1010.45,915.361 1013.78,913.527 1017.5,912.5 Z"/></g>
<g><path style="opacity:1" fill="#757880" d="M 990.5,915.5 C 962.114,931.676 931.78,936.842 899.5,931C 898.049,927.888 898.382,925.055 900.5,922.5C 930.651,924.155 960.651,921.822 990.5,915.5 Z"/></g>
<g><path style="opacity:1" fill="#82858e" d="M 889.5,919.5 C 890.873,919.343 892.207,919.51 893.5,920C 891.348,922.469 889.848,925.302 889,928.5C 888.014,926.222 887.18,923.889 886.5,921.5C 887.602,920.824 888.602,920.158 889.5,919.5 Z"/></g>
<g><path style="opacity:1" fill="#040405" d="M 678.5,921.5 C 682.571,931.635 687.737,941.302 694,950.5C 699.983,956.819 706.816,961.986 714.5,966C 726.91,975.993 734.244,988.827 736.5,1004.5C 735.325,1004.72 734.325,1004.39 733.5,1003.5C 723.501,988.671 710.501,977.171 694.5,969C 680.021,956.061 674.687,940.228 678.5,921.5 Z"/></g>
<g><path style="opacity:1" fill="#74777e" d="M 435.5,923.5 C 399.238,939.927 362.571,955.594 325.5,970.5C 331.364,965.147 337.697,960.313 344.5,956C 373.018,940.105 403.351,929.272 435.5,923.5 Z"/></g>
<g><path style="opacity:1" fill="#040405" d="M 823.5,954.5 C 824.552,954.351 825.552,954.517 826.5,955C 840.889,971.132 843.389,988.966 834,1008.5C 826.888,1017.97 817.388,1022.47 805.5,1022C 823.681,1009.47 830.515,992.306 826,970.5C 825.488,965.096 824.655,959.762 823.5,954.5 Z"/></g>
<g><path style="opacity:1" fill="#767981" d="M 987.5,1004.5 C 962.487,995.071 937.154,994.071 911.5,1001.5C 908.391,989.313 905.391,976.98 902.5,964.5C 912.613,966.027 922.613,968.194 932.5,971C 954.777,976.119 973.111,987.286 987.5,1004.5 Z"/></g>
<g><path style="opacity:1" fill="#767981" d="M 1158.5,1045.5 C 1145.78,1032.15 1129.78,1021.65 1110.5,1014C 1070.11,999.732 1029.11,996.566 987.5,1004.5C 988.586,1004.38 989.253,1003.71 989.5,1002.5C 986.83,994.168 982.496,986.835 976.5,980.5C 1020.14,976.294 1062.81,980.794 1104.5,994C 1134.41,1003.94 1159.41,1020.94 1179.5,1045C 1172.35,1044.41 1165.35,1044.58 1158.5,1045.5 Z"/></g>
<g><path style="opacity:1" fill="#767981" d="M 305.5,1120.5 C 304.51,1126.64 304.177,1132.98 304.5,1139.5C 302.55,1096.07 310.217,1054.24 327.5,1014C 277.939,1005.31 238.772,1021.81 210,1063.5C 206.021,1057.03 201.521,1051.03 196.5,1045.5C 201.407,1037.36 206.574,1029.36 212,1021.5C 232.727,995.348 259.894,981.514 293.5,980C 320.913,978.932 347.58,982.599 373.5,991C 361.164,996.752 350.331,1004.59 341,1014.5C 317.328,1045.68 305.495,1081.01 305.5,1120.5 Z"/></g>
<g><path style="opacity:1" fill="#61656f" d="M 367.5,984.5 C 375.826,984.976 384.16,985.309 392.5,985.5C 387.624,986.784 382.624,988.117 377.5,989.5C 373.832,988.333 370.498,986.666 367.5,984.5 Z"/></g>
<g><path style="opacity:1" fill="#757880" d="M 420.5,987.5 C 421.756,987.461 422.756,987.961 423.5,989C 418.611,990.443 413.945,992.443 409.5,995C 395.652,1003.86 383.486,1014.69 373,1027.5C 346.669,1062.15 325.502,1099.82 309.5,1140.5C 310.546,1131.77 312.046,1123.1 314,1114.5C 319.502,1083.32 330.502,1054.32 347,1027.5C 365.139,1002.51 389.639,989.18 420.5,987.5 Z"/></g>
<g><path style="opacity:1" fill="#050506" d="M 481.5,989.5 C 491.788,988.243 501.455,990.076 510.5,995C 511.357,995.689 512.023,996.522 512.5,997.5C 496.446,1003.95 480.446,1003.95 464.5,997.5C 469.584,993.456 475.251,990.79 481.5,989.5 Z"/></g>
<g><path style="opacity:1" fill="#040505" d="M 567.5,1011.5 C 585.694,1011.39 603.694,1013.23 621.5,1017C 643.733,1024.95 666.067,1032.62 688.5,1040C 693.132,1040.83 697.798,1041.33 702.5,1041.5C 712.777,1039.73 723.111,1038.07 733.5,1036.5C 750.111,1037.65 764.777,1043.48 777.5,1054C 775.893,1053.98 774.226,1053.81 772.5,1053.5C 759.682,1047.02 746.016,1044.52 731.5,1046C 710.733,1055.11 689.733,1055.78 668.5,1048C 645.383,1037.28 621.717,1027.94 597.5,1020C 588.622,1017.36 579.622,1015.2 570.5,1013.5C 568.97,1013.36 567.97,1012.69 567.5,1011.5 Z"/></g>
<g><path style="opacity:1" fill="#767981" d="M 567.5,1011.5 C 567.97,1012.69 568.97,1013.36 570.5,1013.5C 579.622,1015.2 588.622,1017.36 597.5,1020C 621.717,1027.94 645.383,1037.28 668.5,1048C 689.733,1055.78 710.733,1055.11 731.5,1046C 746.016,1044.52 759.682,1047.02 772.5,1053.5C 761.241,1051.66 749.907,1051.16 738.5,1052C 718.207,1056.16 697.874,1060.16 677.5,1064C 660.664,1066.01 644.33,1064.01 628.5,1058C 604.885,1047.05 584.052,1032.22 566,1013.5C 565.472,1012.18 565.972,1011.52 567.5,1011.5 Z"/></g>
<g><path style="opacity:1" fill="#050505" d="M 953.5,1019.5 C 954.552,1019.35 955.552,1019.52 956.5,1020C 949.192,1032.96 938.192,1040.96 923.5,1044C 905.603,1048.11 889.27,1044.77 874.5,1034C 898.932,1035.71 922.599,1032.38 945.5,1024C 948.391,1022.73 951.058,1021.23 953.5,1019.5 Z"/></g>
<g><path style="opacity:1" fill="#d4d5d9" d="M 167.5,1101.5 C 163.835,1104.33 160.668,1107.67 158,1111.5C 148.962,1126.28 143.296,1142.28 141,1159.5C 137.193,1192.95 138.026,1226.28 143.5,1259.5C 143.48,1260.73 143.147,1261.73 142.5,1262.5C 118.299,1186.04 130.465,1116.04 179,1052.5C 174.08,1068.52 170.247,1084.85 167.5,1101.5 Z"/></g>
<g><path style="opacity:1" fill="#050505" d="M 492.5,1309.5 C 489.287,1309.19 486.287,1309.52 483.5,1310.5C 451.928,1315.87 426.762,1331.54 408,1357.5C 407.383,1358.45 407.549,1359.28 408.5,1360C 397.789,1374.92 389.289,1391.09 383,1408.5C 382.056,1407.74 381.556,1406.74 381.5,1405.5C 387.241,1382.03 397.241,1360.69 411.5,1341.5C 426.513,1323.48 445.18,1310.65 467.5,1303C 473.408,1301.32 479.408,1300.16 485.5,1299.5C 490.353,1299.19 495.02,1298.52 499.5,1297.5C 520.98,1245.58 528.813,1191.58 523,1135.5C 518.55,1107.63 508.716,1081.96 493.5,1058.5C 493.369,1057.62 493.702,1056.96 494.5,1056.5C 504.117,1066.39 512.284,1077.39 519,1089.5C 519.561,1090.02 520.228,1090.36 521,1090.5C 550.98,1072.21 583.48,1064.71 618.5,1068C 626.724,1068.89 634.724,1070.72 642.5,1073.5C 601.905,1077.27 561.905,1084.27 522.5,1094.5C 539.963,1136.36 543.297,1179.36 532.5,1223.5C 533,1223.83 533.5,1224.17 534,1224.5C 561.634,1213.11 589.801,1211.61 618.5,1220C 589.991,1227.52 560.991,1230.68 531.5,1229.5C 525.94,1251.29 517.607,1271.95 506.5,1291.5C 507.262,1291.91 508.262,1292.08 509.5,1292C 507.638,1293.76 505.638,1295.26 503.5,1296.5C 507.459,1297.33 511.459,1297.83 515.5,1298C 512.629,1299.93 509.629,1301.6 506.5,1303C 507.5,1304.67 508.5,1306.33 509.5,1308C 503.652,1308.17 497.985,1308.67 492.5,1309.5 Z"/></g>
<g><path style="opacity:1" fill="#d8d9dd" d="M 493.5,1058.5 C 508.716,1081.96 518.55,1107.63 523,1135.5C 528.813,1191.58 520.98,1245.58 499.5,1297.5C 495.818,1297.33 492.152,1297.5 488.5,1298C 487.263,1298.23 486.263,1298.73 485.5,1299.5C 479.408,1300.16 473.408,1301.32 467.5,1303C 445.18,1310.65 426.513,1323.48 411.5,1341.5C 418.829,1327.52 427.662,1314.52 438,1302.5C 449.082,1291.08 460.416,1280.08 472,1269.5C 493.187,1227.55 503.02,1183.05 501.5,1136C 501.798,1109.85 499.131,1084.02 493.5,1058.5 Z"/></g>
<g><path style="opacity:1" fill="#040404" d="M 855.5,1063.5 C 856.649,1063.79 857.316,1064.62 857.5,1066C 855.092,1083.41 845.259,1092.91 828,1094.5C 816.316,1093.51 807.816,1087.67 802.5,1077C 808.46,1078.43 814.46,1080.09 820.5,1082C 829.154,1082.89 836.82,1080.56 843.5,1075C 848.002,1071.66 852.002,1067.83 855.5,1063.5 Z"/></g>
<g><path style="opacity:1" fill="#74767e" d="M 1208.5,1068.5 C 1216.79,1074.96 1224.29,1082.29 1231,1090.5C 1247.8,1115.57 1256.13,1143.24 1256,1173.5C 1253.52,1170.51 1250.69,1168.17 1247.5,1166.5C 1247.67,1158.83 1247.5,1151.16 1247,1143.5C 1243.5,1127.5 1237.5,1112.5 1229,1098.5C 1222.31,1088.33 1215.48,1078.33 1208.5,1068.5 Z"/></g>
<g><path style="opacity:1" fill="#040405" d="M 952.5,1219.5 C 930.495,1230.25 908.995,1241.92 888,1254.5C 895.408,1320.87 880.241,1381.53 842.5,1436.5C 841.4,1439.02 839.733,1440.02 837.5,1439.5C 859.814,1395.12 872.98,1348.12 877,1298.5C 879.636,1259.55 871.47,1223.05 852.5,1189C 853,1188.5 853.5,1188 854,1187.5C 862.492,1197.14 869.492,1207.81 875,1219.5C 874.38,1186 864.38,1155.67 845,1128.5C 833.566,1115.04 819.733,1104.87 803.5,1098C 828.144,1100.32 847.81,1111.49 862.5,1131.5C 887.598,1105.46 918.264,1093.63 954.5,1096C 956.256,1096.2 957.922,1096.7 959.5,1097.5C 926.989,1107.93 895.322,1120.27 864.5,1134.5C 877.844,1156.21 884.51,1179.88 884.5,1205.5C 884.496,1215.54 883.829,1225.54 882.5,1235.5C 883.365,1240.63 884.698,1245.63 886.5,1250.5C 901.703,1234.45 919.037,1221.29 938.5,1211C 957.133,1201.76 976.799,1198.09 997.5,1200C 981.78,1205.06 966.78,1211.56 952.5,1219.5 Z"/></g>
<g><path style="opacity:1" fill="#d8d9dd" d="M 1043.5,1104.5 C 1077.08,1130.27 1100.91,1163.27 1115,1203.5C 1129.08,1246.81 1131.75,1290.81 1123,1335.5C 1115.27,1374.41 1104.44,1412.41 1090.5,1449.5C 1088.13,1454.28 1086.13,1459.28 1084.5,1464.5C 1077.05,1480.74 1069.55,1497.08 1062,1513.5C 1076.14,1461.03 1088.47,1408.03 1099,1354.5C 1105.01,1322.1 1108.01,1289.43 1108,1256.5C 1099.65,1199.99 1077.82,1149.49 1042.5,1105C 1042.73,1104.6 1043.06,1104.43 1043.5,1104.5 Z"/></g>
<g><path style="opacity:1" fill="#060606" d="M 1043.5,1104.5 C 1043.56,1103.96 1043.89,1103.62 1044.5,1103.5C 1090.17,1133.44 1119.67,1175.11 1133,1228.5C 1147.92,1290.77 1142.42,1351.1 1116.5,1409.5C 1117,1409.83 1117.5,1410.17 1118,1410.5C 1138.98,1403.14 1160.48,1400.64 1182.5,1403C 1199.75,1407.45 1214.75,1415.79 1227.5,1428C 1251.85,1453.18 1270.85,1482.02 1284.5,1514.5C 1283.96,1516.27 1283.13,1516.6 1282,1515.5C 1265.05,1484.21 1243.22,1456.71 1216.5,1433C 1193.53,1414.67 1167.87,1409.67 1139.5,1418C 1129.31,1420.4 1119.31,1423.4 1109.5,1427C 1100.4,1446.04 1090.9,1464.87 1081,1483.5C 1080.33,1482.5 1080.33,1481.5 1081,1480.5C 1087.73,1465.71 1093.9,1450.71 1099.5,1435.5C 1109.55,1410.85 1117.72,1385.52 1124,1359.5C 1125.44,1352.54 1126.11,1345.54 1126,1338.5C 1118.51,1366.12 1111.18,1393.79 1104,1421.5C 1102.45,1425.98 1100.62,1430.32 1098.5,1434.5C 1096.17,1439.83 1093.83,1445.17 1091.5,1450.5C 1090.83,1450.5 1090.5,1450.17 1090.5,1449.5C 1104.44,1412.41 1115.27,1374.41 1123,1335.5C 1131.75,1290.81 1129.08,1246.81 1115,1203.5C 1100.91,1163.27 1077.08,1130.27 1043.5,1104.5 Z"/></g>
<g><path style="opacity:1" fill="#040405" d="M 814.5,1149.5 C 814.44,1150.04 814.107,1150.38 813.5,1150.5C 799.079,1143.19 784.079,1137.36 768.5,1133C 739.723,1125.47 711.056,1117.97 682.5,1110.5C 721.477,1105.38 758.144,1112.22 792.5,1131C 800.61,1136.28 807.943,1142.45 814.5,1149.5 Z"/></g>
<g><path style="opacity:1" fill="#767981" d="M 682.5,1110.5 C 711.056,1117.97 739.723,1125.47 768.5,1133C 784.079,1137.36 799.079,1143.19 813.5,1150.5C 814.107,1150.38 814.44,1150.04 814.5,1149.5C 815.043,1149.56 815.376,1149.89 815.5,1150.5C 767.193,1150.25 722.527,1137.25 681.5,1111.5C 681.624,1110.89 681.957,1110.56 682.5,1110.5 Z"/></g>
<g><path style="opacity:1" fill="#313235" d="M 305.5,1120.5 C 305.334,1129.84 305.5,1139.17 306,1148.5C 306.278,1149.42 306.778,1150.08 307.5,1150.5C 306.791,1151.4 305.791,1151.74 304.5,1151.5C 304.5,1147.5 304.5,1143.5 304.5,1139.5C 304.177,1132.98 304.51,1126.64 305.5,1120.5 Z"/></g>
<g><path style="opacity:1" fill="#757880" d="M 952.5,1219.5 C 934.859,1234.97 917.025,1250.3 899,1265.5C 904.252,1313.91 894.919,1359.24 871,1401.5C 862.888,1414.45 853.388,1426.11 842.5,1436.5C 880.241,1381.53 895.408,1320.87 888,1254.5C 908.995,1241.92 930.495,1230.25 952.5,1219.5 Z"/></g>
<g><path style="opacity:1" fill="#d5d6da" d="M 150.5,1261.5 C 157.183,1288.55 167.516,1314.21 181.5,1338.5C 173.495,1330.66 165.995,1322.33 159,1313.5C 153.633,1305.23 150.133,1296.23 148.5,1286.5C 148.954,1284.26 148.954,1282.26 148.5,1280.5C 148.082,1274 148.748,1267.66 150.5,1261.5 Z"/></g>
<g><path style="opacity:1" fill="#575759" d="M 148.5,1280.5 C 148.954,1282.26 148.954,1284.26 148.5,1286.5C 147.167,1284.5 147.167,1282.5 148.5,1280.5 Z"/></g>
<g><path style="opacity:1" fill="#0a0a0b" d="M 356.5,1363.5 C 343.624,1359.8 333.791,1352.13 327,1340.5C 318.124,1324.91 314.957,1308.24 317.5,1290.5C 318.825,1289.05 319.658,1289.38 320,1291.5C 320.913,1321.53 333.08,1345.53 356.5,1363.5 Z"/></g>
<g><path style="opacity:1" fill="#757880" d="M 356.5,1363.5 C 333.08,1345.53 320.913,1321.53 320,1291.5C 319.658,1289.38 318.825,1289.05 317.5,1290.5C 317.604,1288.03 318.604,1287.36 320.5,1288.5C 332.411,1312.66 344.578,1336.66 357,1360.5C 357.74,1361.75 357.573,1362.75 356.5,1363.5 Z"/></g>
<g><path style="opacity:1" fill="#979798" d="M 499.5,1297.5 C 495.02,1298.52 490.353,1299.19 485.5,1299.5C 486.263,1298.73 487.263,1298.23 488.5,1298C 492.152,1297.5 495.818,1297.33 499.5,1297.5 Z"/></g>
<g><path style="opacity:1" fill="#767981" d="M 1248.5,1169.5 C 1277.76,1221.12 1279.1,1273.62 1252.5,1327C 1253.64,1327.75 1254.64,1327.58 1255.5,1326.5C 1260.25,1321.25 1264.41,1315.59 1268,1309.5C 1268.72,1308.55 1269.55,1308.38 1270.5,1309C 1295.25,1335.11 1314.41,1364.95 1328,1398.5C 1346.11,1450.17 1351.28,1503.17 1343.5,1557.5C 1340.5,1557.5 1337.5,1557.5 1334.5,1557.5C 1335.48,1530.97 1333.65,1504.64 1329,1478.5C 1318.87,1419.23 1292.7,1368.56 1250.5,1326.5C 1252.23,1316.87 1253.73,1307.21 1255,1297.5C 1257.82,1254.58 1255.65,1211.92 1248.5,1169.5 Z"/></g>
<g><path style="opacity:1" fill="#d9dade" d="M 492.5,1309.5 C 498.509,1309.33 504.509,1309.5 510.5,1310C 515.215,1317.93 519.549,1326.1 523.5,1334.5C 495.855,1331.26 468.855,1334.42 442.5,1344C 431.723,1348.4 421.056,1352.73 410.5,1357C 429.082,1332.38 453.415,1316.88 483.5,1310.5C 486.287,1309.52 489.287,1309.19 492.5,1309.5 Z"/></g>
<g><path style="opacity:1" fill="#030304" d="M 739.5,1317.5 C 701.768,1343.49 687.601,1379.15 697,1424.5C 700.751,1442.84 705.751,1460.84 712,1478.5C 718.806,1494.58 725.806,1510.58 733,1526.5C 737.226,1536.4 739.392,1546.74 739.5,1557.5C 737.833,1557.5 736.167,1557.5 734.5,1557.5C 732.84,1550.69 730.673,1544.02 728,1537.5C 720.255,1522.34 712.255,1507.34 704,1492.5C 695.469,1473.91 689.136,1454.57 685,1434.5C 680.367,1414.49 680.367,1394.49 685,1374.5C 695.051,1342.78 715.885,1322.28 747.5,1313C 744.644,1314.26 741.977,1315.76 739.5,1317.5 Z"/></g>
<g><path style="opacity:1" fill="#030404" d="M 1245.5,1387.5 C 1233.56,1364.05 1216.22,1345.55 1193.5,1332C 1184.3,1326.9 1174.96,1322.07 1165.5,1317.5C 1193.59,1316.34 1216.76,1327.34 1235,1350.5C 1242.41,1360.49 1246.91,1371.65 1248.5,1384C 1248.17,1385.5 1247.83,1387 1247.5,1388.5C 1246.82,1388.14 1246.15,1387.8 1245.5,1387.5 Z"/></g>
<g><path style="opacity:1" fill="#767981" d="M 739.5,1317.5 C 735.771,1323.96 732.271,1330.62 729,1337.5C 718.059,1362.26 715.059,1387.92 720,1414.5C 736.295,1460.76 743.128,1508.43 740.5,1557.5C 740.167,1557.5 739.833,1557.5 739.5,1557.5C 739.392,1546.74 737.226,1536.4 733,1526.5C 725.806,1510.58 718.806,1494.58 712,1478.5C 705.751,1460.84 700.751,1442.84 697,1424.5C 687.601,1379.15 701.768,1343.49 739.5,1317.5 Z"/></g>
<g><path style="opacity:1" fill="#75777f" d="M 1165.5,1317.5 C 1174.96,1322.07 1184.3,1326.9 1193.5,1332C 1216.22,1345.55 1233.56,1364.05 1245.5,1387.5C 1221.37,1367.21 1197.37,1346.71 1173.5,1326C 1170.58,1323.25 1167.91,1320.42 1165.5,1317.5 Z"/></g>
<g><path style="opacity:1" fill="#7d8189" d="M 1099.5,1435.5 C 1099.5,1434.83 1099.17,1434.5 1098.5,1434.5C 1100.62,1430.32 1102.45,1425.98 1104,1421.5C 1111.18,1393.79 1118.51,1366.12 1126,1338.5C 1126.11,1345.54 1125.44,1352.54 1124,1359.5C 1117.72,1385.52 1109.55,1410.85 1099.5,1435.5 Z"/></g>
<g><path style="opacity:1" fill="#767981" d="M 231.5,1398.5 C 231.062,1398.43 230.728,1398.6 230.5,1399C 236.667,1405.83 242.833,1412.67 249,1419.5C 254.333,1424.83 259.667,1430.17 265,1435.5C 265.464,1434.91 265.631,1434.24 265.5,1433.5C 266.674,1434.51 267.34,1435.85 267.5,1437.5C 245.132,1422.22 221.632,1408.55 197,1396.5C 196.333,1402.17 196.333,1407.83 197,1413.5C 201.374,1430.58 208.707,1446.25 219,1460.5C 245.037,1494.87 275.87,1524.04 311.5,1548C 315.099,1550.95 318.433,1554.12 321.5,1557.5C 296.833,1557.5 272.167,1557.5 247.5,1557.5C 240.517,1552.03 233.35,1546.7 226,1541.5C 225.601,1541.73 225.435,1542.06 225.5,1542.5C 223.965,1540.06 223.132,1537.39 223,1534.5C 224.572,1536.56 226.405,1537.23 228.5,1536.5C 212.635,1519.11 201.135,1499.11 194,1476.5C 184.7,1439.36 184.034,1402.03 192,1364.5C 205.359,1375.7 218.525,1387.03 231.5,1398.5 Z"/></g>
<g><path style="opacity:1" fill="#050505" d="M 975.5,1510.5 C 976.895,1484.5 976.728,1458.5 975,1432.5C 973.657,1413.55 968.491,1395.88 959.5,1379.5C 957.676,1376.19 956.176,1372.86 955,1369.5C 963.049,1374.55 969.382,1381.22 974,1389.5C 983.835,1406.51 989.169,1424.84 990,1444.5C 991.401,1473.17 986.734,1500.83 976,1527.5C 975.501,1521.84 975.334,1516.18 975.5,1510.5 Z"/></g>
<g><path style="opacity:1" fill="#767981" d="M 959.5,1379.5 C 968.491,1395.88 973.657,1413.55 975,1432.5C 976.728,1458.5 976.895,1484.5 975.5,1510.5C 963.021,1467.87 957.688,1424.21 959.5,1379.5 Z"/></g>
<g><path style="opacity:1" fill="#8c8f99" d="M 231.5,1398.5 C 244.897,1408.23 256.23,1419.9 265.5,1433.5C 265.631,1434.24 265.464,1434.91 265,1435.5C 259.667,1430.17 254.333,1424.83 249,1419.5C 242.833,1412.67 236.667,1405.83 230.5,1399C 230.728,1398.6 231.062,1398.43 231.5,1398.5 Z"/></g>
<g><path style="opacity:1" fill="#46474a" d="M 1090.5,1449.5 C 1090.5,1450.17 1090.83,1450.5 1091.5,1450.5C 1089.54,1455.42 1087.2,1460.08 1084.5,1464.5C 1086.13,1459.28 1088.13,1454.28 1090.5,1449.5 Z"/></g>
<g><path style="opacity:1" fill="#030303" d="M 382.5,1508.5 C 393.506,1520.85 406.839,1530.02 422.5,1536C 446.64,1545.36 471.307,1552.53 496.5,1557.5C 478.5,1557.5 460.5,1557.5 442.5,1557.5C 433.351,1553.93 424.351,1549.76 415.5,1545C 400.307,1536.64 388.641,1524.81 380.5,1509.5C 380.957,1508.7 381.624,1508.37 382.5,1508.5 Z"/></g>
<g><path style="opacity:1" fill="#757880" d="M 382.5,1508.5 C 425.871,1524.86 469.204,1541.19 512.5,1557.5C 507.167,1557.5 501.833,1557.5 496.5,1557.5C 471.307,1552.53 446.64,1545.36 422.5,1536C 406.839,1530.02 393.506,1520.85 382.5,1508.5 Z"/></g>
<g><path style="opacity:1" fill="#8e929c" d="M 247.5,1557.5 C 241.833,1557.5 236.167,1557.5 230.5,1557.5C 228.556,1552.61 226.89,1547.61 225.5,1542.5C 225.435,1542.06 225.601,1541.73 226,1541.5C 233.35,1546.7 240.517,1552.03 247.5,1557.5 Z"/></g>
</svg>
