<?xml version="1.0" encoding="UTF-8"?>
<!DOCTYPE svg PUBLIC "-//W3C//DTD SVG 1.1//EN" "http://www.w3.org/Graphics/SVG/1.1/DTD/svg11.dtd">
<svg xmlns="http://www.w3.org/2000/svg" version="1.1" width="1500px" height="1558px" style="shape-rendering:geometricPrecision; text-rendering:geometricPrecision; image-rendering:optimizeQuality; fill-rule:evenodd; clip-rule:evenodd" xmlns:xlink="http://www.w3.org/1999/xlink">
<g><path style="opacity:1" fill="#fef4a5" d="M -0.5,-0.5 C 499.5,-0.5 999.5,-0.5 1499.5,-0.5C 1499.5,235.167 1499.5,470.833 1499.5,706.5C 1496.14,705.96 1492.8,705.294 1489.5,704.5C 1432.64,694.309 1375.97,695.309 1319.5,707.5C 1321.1,694.471 1322.93,681.471 1325,668.5C 1325.83,659.181 1326.33,649.848 1326.5,640.5C 1326.5,639.5 1326.5,638.5 1326.5,637.5C 1339.67,627.166 1349.17,614.166 1355,598.5C 1356.85,590.002 1355.19,582.335 1350,575.5C 1326.33,551.42 1297.5,538.254 1263.5,536C 1233.32,533.724 1203.49,535.89 1174,542.5C 1128.13,496.487 1072.96,478.153 1008.5,487.5C 1020.86,468.719 1024.02,448.386 1018,426.5C 1011.84,406.17 999.507,390.836 981,380.5C 981.701,376.204 982.535,371.871 983.5,367.5C 963.395,367.588 945.728,374.088 930.5,387C 924.205,386.516 917.871,386.516 911.5,387C 908.61,388.029 905.776,389.195 903,390.5C 884.592,376.379 865.425,363.379 845.5,351.5C 859.529,315.01 861.029,278.01 850,240.5C 832.532,197.694 800.698,176.527 754.5,177C 738.463,181.099 725.297,189.599 715,202.5C 704.337,217.786 696.337,234.453 691,252.5C 687.192,269.012 684.359,285.679 682.5,302.5C 659.664,299.901 637.664,303.067 616.5,312C 593.75,310.013 572.084,313.847 551.5,323.5C 548.369,314.992 545.535,306.325 543,297.5C 530.751,268.268 509.584,248.435 479.5,238C 438.172,224.047 396.838,224.047 355.5,238C 333.584,245.532 314.751,257.699 299,274.5C 284.556,294.428 286.723,312.261 305.5,328C 309.5,330 313.5,332 317.5,334C 322.743,339.409 322.743,344.742 317.5,350C 291.331,351.839 276.498,365.673 273,391.5C 271.704,434.025 281.704,473.691 303,510.5C 322.584,549.062 353.751,572.228 396.5,580C 385.137,596.892 375.47,614.726 367.5,633.5C 376.192,633.169 384.859,633.502 393.5,634.5C 370.674,670.119 358.174,709.119 356,751.5C 367.93,742.973 380.097,735.14 392.5,728C 395.987,746.754 399.321,765.587 402.5,784.5C 404.58,782.007 406.414,779.341 408,776.5C 412.598,786.107 419.098,794.274 427.5,801C 434.718,806.394 442.051,811.56 449.5,816.5C 428.029,847.041 418.695,881.041 421.5,918.5C 388.817,919.001 360.15,929.835 335.5,951C 329.543,956.787 324.543,963.287 320.5,970.5C 258.814,961.423 213.981,984.423 186,1039.5C 128.302,1093.28 108.969,1158.61 128,1235.5C 131.866,1247.73 136.699,1259.56 142.5,1271C 138.909,1291.47 143.409,1309.97 156,1326.5C 166.161,1339.19 176.994,1351.19 188.5,1362.5C 171.245,1404.11 170.078,1446.11 185,1488.5C 193.026,1506.06 204.526,1520.9 219.5,1533C 221.118,1541.22 222.785,1549.38 224.5,1557.5C 149.5,1557.5 74.5,1557.5 -0.5,1557.5C -0.5,1038.17 -0.5,518.833 -0.5,-0.5 Z"/></g>
<g><path style="opacity:1" fill="#0d0a05" d="M 669.5,31.5 C 710.087,30.1621 750.42,32.6621 790.5,39C 810.492,42.6613 829.158,49.6613 846.5,60C 863.661,75.6329 866.161,93.4662 854,113.5C 843.167,124.669 830.667,133.502 816.5,140C 783.294,153.885 748.961,163.885 713.5,170C 646.506,182.146 579.172,184.479 511.5,177C 487.463,174.208 464.796,167.208 443.5,156C 429.956,147.75 423.622,135.583 424.5,119.5C 424.994,110.18 428.494,102.18 435,95.5C 445.823,85.6958 457.989,77.8625 471.5,72C 500.172,59.7484 529.838,50.7484 560.5,45C 596.681,38.1022 633.015,33.6022 669.5,31.5 Z"/></g>
<g><path style="opacity:1" fill="#f5b133" d="M 853.5,80.5 C 853.569,91.1948 849.236,99.6948 840.5,106C 827.719,115.727 813.719,123.394 798.5,129C 739.65,149.809 678.983,161.143 616.5,163C 574.549,165.438 532.882,163.104 491.5,156C 474.43,152.756 458.43,146.756 443.5,138C 439.667,135.5 436.5,132.333 434,128.5C 432.026,124.049 431.193,119.382 431.5,114.5C 432.683,109.135 435.183,104.468 439,100.5C 454.732,86.877 472.566,76.7103 492.5,70C 542.745,52.9513 594.412,42.9513 647.5,40C 692.986,36.3388 738.319,37.6721 783.5,44C 802.799,47.0741 821.132,53.0741 838.5,62C 845.764,66.3786 850.764,72.5453 853.5,80.5 Z"/></g>
<g><path style="opacity:1" fill="#ed8a31" d="M 820.5,85.5 C 812.806,79.4876 804.139,75.321 794.5,73C 764.564,66.2549 734.231,63.0882 703.5,63.5C 642.153,63.7007 581.819,71.5341 522.5,87C 504.78,92.0148 488.113,99.3481 472.5,109C 469.246,111.747 466.58,114.914 464.5,118.5C 463.778,118.082 463.278,117.416 463,116.5C 462.333,113.5 462.333,110.5 463,107.5C 465.797,103.701 468.964,100.201 472.5,97C 489.639,86.6161 507.973,78.9494 527.5,74C 610.153,52.705 693.82,47.3717 778.5,58C 790.328,60.2764 801.661,63.9431 812.5,69C 816,71.1667 818.833,74 821,77.5C 821.801,80.367 821.634,83.0336 820.5,85.5 Z"/></g>
<g><path style="opacity:1" fill="#fbd790" d="M 588.5,50.5 C 590.199,50.3398 591.866,50.5065 593.5,51C 556.268,58.7232 519.935,69.3899 484.5,83C 471.78,87.4366 460.613,94.2699 451,103.5C 445.038,115.309 447.538,125.142 458.5,133C 469.134,139.101 480.468,143.435 492.5,146C 519.424,152.751 546.757,156.751 574.5,158C 534.255,160.517 495.255,154.85 457.5,141C 448.308,137.141 441.808,130.641 438,121.5C 436.114,112.193 438.614,104.36 445.5,98C 465.363,83.4049 487.363,73.0716 511.5,67C 536.967,60.046 562.634,54.546 588.5,50.5 Z"/></g>
<g><path style="opacity:1" fill="#0d0a05" d="M 820.5,85.5 C 818.88,89.6424 816.214,93.1424 812.5,96C 797.988,105.419 782.322,112.419 765.5,117C 683.839,139.459 600.839,146.459 516.5,138C 500.72,136.306 485.72,131.972 471.5,125C 468.669,123.334 466.336,121.168 464.5,118.5C 466.58,114.914 469.246,111.747 472.5,109C 488.113,99.3481 504.78,92.0148 522.5,87C 581.819,71.5341 642.153,63.7007 703.5,63.5C 734.231,63.0882 764.564,66.2549 794.5,73C 804.139,75.321 812.806,79.4876 820.5,85.5 Z"/></g>
<g><path style="opacity:1" fill="#fdf3a4" d="M 690.5,69.5 C 718.957,69.4276 747.291,71.2609 775.5,75C 788.641,76.9101 800.974,81.0768 812.5,87.5C 803.436,95.3713 793.102,101.205 781.5,105C 741.157,118.269 699.824,126.935 657.5,131C 609.154,136.903 560.82,136.903 512.5,131C 501.971,129.079 491.638,126.412 481.5,123C 478.13,121.654 475.13,119.821 472.5,117.5C 482.777,109.526 494.11,103.359 506.5,99C 542.932,86.9133 580.265,78.9133 618.5,75C 642.624,72.7444 666.624,70.911 690.5,69.5 Z"/></g>
<g><path style="opacity:1" fill="#ec8a31" d="M 853.5,80.5 C 856.995,90.7779 855.495,100.445 849,109.5C 837.108,121.534 823.274,130.701 807.5,137C 753.123,157.81 696.79,169.81 638.5,173C 586.058,178.382 534.058,175.715 482.5,165C 467.711,161.436 454.044,155.436 441.5,147C 434.145,139.945 430.478,131.279 430.5,121C 430.504,118.639 430.837,116.473 431.5,114.5C 431.193,119.382 432.026,124.049 434,128.5C 436.5,132.333 439.667,135.5 443.5,138C 458.43,146.756 474.43,152.756 491.5,156C 532.882,163.104 574.549,165.438 616.5,163C 678.983,161.143 739.65,149.809 798.5,129C 813.719,123.394 827.719,115.727 840.5,106C 849.236,99.6948 853.569,91.1948 853.5,80.5 Z"/></g>
<g><path style="opacity:1" fill="#040403" d="M 1326.5,637.5 C 1317.81,644.53 1309.14,651.53 1300.5,658.5C 1279.96,671.693 1258.8,684.027 1237,695.5C 1234.5,713.851 1229.66,731.518 1222.5,748.5C 1218.03,757.42 1212.53,765.754 1206,773.5C 1205.67,771.153 1205.83,768.819 1206.5,766.5C 1212.67,745.314 1215.34,723.647 1214.5,701.5C 1184.33,706.196 1154.33,705.362 1124.5,699C 1099.86,692.538 1079.86,679.372 1064.5,659.5C 1060.81,652.79 1057.65,645.79 1055,638.5C 1049.39,616.988 1054.89,598.821 1071.5,584C 1085.65,571.918 1101.65,562.918 1119.5,557C 1132.21,552.838 1144.88,549.005 1157.5,545.5C 1159.65,545.628 1161.65,545.128 1163.5,544C 1138.26,529.545 1111.93,517.545 1084.5,508C 1061.56,502.692 1038.56,502.192 1015.5,506.5C 1006.17,507.035 997.168,508.702 988.5,511.5C 967.3,516.569 946.3,522.236 925.5,528.5C 914.696,530.52 904.196,529.52 894,525.5C 887.428,526.514 880.928,527.848 874.5,529.5C 871.714,539.079 866.88,547.413 860,554.5C 862.916,545.818 864.75,536.818 865.5,527.5C 863.409,527.682 861.409,527.348 859.5,526.5C 857.245,535.435 853.911,543.935 849.5,552C 851.5,552.333 853.5,552.667 855.5,553C 852.167,554.667 848.833,556.333 845.5,558C 831.937,574.956 814.271,584.956 792.5,588C 788.049,588.13 783.716,588.796 779.5,590C 792.842,596.323 801.342,606.49 805,620.5C 784.848,604.335 762.348,592.168 737.5,584C 703.215,572.679 668.215,564.346 632.5,559C 656.956,554.998 681.123,556.165 705,562.5C 699.239,554.354 693.905,545.687 689,536.5C 671.901,493.659 679.734,456.159 712.5,424C 748.952,396.043 785.952,395.376 823.5,422C 828.201,426.366 832.534,431.033 836.5,436C 840.849,437.531 845.349,438.364 850,438.5C 861.678,436.829 873.344,435.163 885,433.5C 890.424,433.285 895.591,434.285 900.5,436.5C 909.189,420.451 922.189,410.117 939.5,405.5C 940.751,404.528 940.418,403.861 938.5,403.5C 935.978,402.911 933.478,402.245 931,401.5C 929.235,402.632 927.402,403.632 925.5,404.5C 920.24,408.255 915.406,412.589 911,417.5C 911.881,413.717 913.381,410.05 915.5,406.5C 912.965,404.064 909.965,402.397 906.5,401.5C 873.047,386.364 842.88,366.364 816,341.5C 815.501,345.821 815.334,350.154 815.5,354.5C 815.662,356.527 815.495,358.527 815,360.5C 814.053,354.32 812.886,348.32 811.5,342.5C 811.638,334.1 810.971,325.767 809.5,317.5C 801.81,326.852 794.143,336.186 786.5,345.5C 785.833,345.833 785.167,346.167 784.5,346.5C 780.77,334.809 776.936,323.142 773,311.5C 766.935,318.058 761.102,324.725 755.5,331.5C 754.883,331.611 754.383,331.944 754,332.5C 753.768,331.263 753.268,330.263 752.5,329.5C 751.162,319.642 748.995,309.975 746,300.5C 727.079,310.605 706.913,315.439 685.5,315C 664.545,310.806 643.545,310.473 622.5,314C 633.663,316.554 644.33,320.387 654.5,325.5C 662.578,330.983 670.078,337.317 677,344.5C 677.667,345.167 677.667,345.833 677,346.5C 673.885,344.693 670.719,343.027 667.5,341.5C 630.352,324.536 591.686,320.203 551.5,328.5C 551.633,331.887 552.633,334.887 554.5,337.5C 558.924,355.27 565.424,372.27 574,388.5C 579.727,398.225 587.894,405.059 598.5,409C 589.558,411.388 580.558,413.388 571.5,415C 579.325,421.617 588.325,425.95 598.5,428C 586.38,433.383 573.714,437.05 560.5,439C 570.131,444.767 580.464,448.767 591.5,451C 573.311,459.619 554.311,465.619 534.5,469C 545.102,475.134 556.102,480.468 567.5,485C 555.778,496.541 542.111,505.041 526.5,510.5C 533.51,513.684 539.844,517.851 545.5,523C 524.516,522.46 503.516,522.46 482.5,523C 489,528.167 495.5,533.333 502,538.5C 502.315,539.908 501.982,541.241 501,542.5C 488.75,557.593 473.583,568.593 455.5,575.5C 440.522,579.996 425.188,582.329 409.5,582.5C 401.788,594.753 394.455,607.253 387.5,620C 395.845,620.622 404.179,620.456 412.5,619.5C 414.5,619.833 416.5,620.167 418.5,620.5C 418.709,621.086 419.043,621.586 419.5,622C 392.02,653.468 375.186,689.968 369,731.5C 378.252,725.456 387.752,719.789 397.5,714.5C 398.932,718.013 399.765,721.68 400,725.5C 401.601,741.841 403.267,758.174 405,774.5C 410,768.167 415,761.833 420,755.5C 420.315,756.908 419.982,758.241 419,759.5C 415.334,764.162 412.167,769.162 409.5,774.5C 418.488,782.662 428.488,789.329 439.5,794.5C 445.607,798.392 451.94,802.059 458.5,805.5C 461.013,802.164 464.013,801.664 467.5,804C 465.559,805.816 464.892,807.816 465.5,810C 474.079,814.203 482.246,819.037 490,824.5C 486.088,816.677 482.088,808.677 478,800.5C 475.898,795.526 474.231,790.526 473,785.5C 495.92,829.421 530.087,861.254 575.5,881C 582.592,884.049 589.925,886.216 597.5,887.5C 606.441,890.627 615.775,892.46 625.5,893C 647.022,893.568 668.522,893.068 690,891.5C 703.192,891.816 716.358,892.483 729.5,893.5C 738.224,894.192 746.891,895.358 755.5,897C 732.056,897.706 708.723,899.206 685.5,901.5C 668.885,903.526 652.219,905.192 635.5,906.5C 576.443,903.895 529.61,878.895 495,831.5C 482.705,829.346 470.871,825.68 459.5,820.5C 452.3,831.238 446.967,842.905 443.5,855.5C 442.603,854.402 441.77,854.402 441,855.5C 433.96,876.218 428.127,897.218 423.5,918.5C 430.251,918.511 436.918,919.178 443.5,920.5C 441.416,921.476 438.75,922.476 435.5,923.5C 403.351,929.272 373.018,940.105 344.5,956C 337.697,960.313 331.364,965.147 325.5,970.5C 322.848,971.294 323.015,971.96 326,972.5C 340.097,975.649 353.93,979.649 367.5,984.5C 370.498,986.666 373.832,988.333 377.5,989.5C 382.624,988.117 387.624,986.784 392.5,985.5C 401.918,985.208 411.251,985.875 420.5,987.5C 389.639,989.18 365.139,1002.51 347,1027.5C 330.502,1054.32 319.502,1083.32 314,1114.5C 312.046,1123.1 310.546,1131.77 309.5,1140.5C 307.989,1143.54 307.322,1146.88 307.5,1150.5C 306.778,1150.08 306.278,1149.42 306,1148.5C 305.5,1139.17 305.334,1129.84 305.5,1120.5C 305.495,1081.01 317.328,1045.68 341,1014.5C 350.331,1004.59 361.164,996.752 373.5,991C 347.58,982.599 320.913,978.932 293.5,980C 259.894,981.514 232.727,995.348 212,1021.5C 206.574,1029.36 201.407,1037.36 196.5,1045.5C 179.089,1080.38 170.255,1117.38 170,1156.5C 169.667,1156.83 169.333,1157.17 169,1157.5C 166.402,1138.87 165.902,1120.21 167.5,1101.5C 170.247,1084.85 174.08,1068.52 179,1052.5C 130.465,1116.04 118.299,1186.04 142.5,1262.5C 142.987,1263.47 143.487,1264.47 144,1265.5C 147.33,1255.85 152.663,1247.51 160,1240.5C 156.368,1247.11 153.202,1254.11 150.5,1261.5C 144.93,1283.89 149.763,1303.89 165,1321.5C 170.004,1327.67 175.504,1333.34 181.5,1338.5C 188.486,1347.33 196.819,1354.49 206.5,1360C 220.638,1373.14 234.471,1386.64 248,1400.5C 256.996,1409.83 263.996,1420.5 269,1432.5C 269.706,1434.97 269.373,1437.3 268,1439.5C 267.536,1438.91 267.369,1438.24 267.5,1437.5C 265.655,1432.81 263.155,1428.48 260,1424.5C 254.5,1419 249,1413.5 243.5,1408C 226.333,1393.5 209.167,1379 192,1364.5C 184.034,1402.03 184.7,1439.36 194,1476.5C 201.135,1499.11 212.635,1519.11 228.5,1536.5C 226.405,1537.23 224.572,1536.56 223,1534.5C 223.132,1537.39 223.965,1540.06 225.5,1542.5C 226.89,1547.61 228.556,1552.61 230.5,1557.5C 228.5,1557.5 226.5,1557.5 224.5,1557.5C 222.785,1549.38 221.118,1541.22 219.5,1533C 204.526,1520.9 193.026,1506.06 185,1488.5C 170.078,1446.11 171.245,1404.11 188.5,1362.5C 176.994,1351.19 166.161,1339.19 156,1326.5C 143.409,1309.97 138.909,1291.47 142.5,1271C 136.699,1259.56 131.866,1247.73 128,1235.5C 108.969,1158.61 128.302,1093.28 186,1039.5C 213.981,984.423 258.814,961.423 320.5,970.5C 324.543,963.287 329.543,956.787 335.5,951C 360.15,929.835 388.817,919.001 421.5,918.5C 418.695,881.041 428.029,847.041 449.5,816.5C 442.051,811.56 434.718,806.394 427.5,801C 419.098,794.274 412.598,786.107 408,776.5C 406.414,779.341 404.58,782.007 402.5,784.5C 399.321,765.587 395.987,746.754 392.5,728C 380.097,735.14 367.93,742.973 356,751.5C 358.174,709.119 370.674,670.119 393.5,634.5C 384.859,633.502 376.192,633.169 367.5,633.5C 375.47,614.726 385.137,596.892 396.5,580C 353.751,572.228 322.584,549.062 303,510.5C 281.704,473.691 271.704,434.025 273,391.5C 276.498,365.673 291.331,351.839 317.5,350C 322.743,344.742 322.743,339.409 317.5,334C 313.5,332 309.5,330 305.5,328C 286.723,312.261 284.556,294.428 299,274.5C 314.751,257.699 333.584,245.532 355.5,238C 396.838,224.047 438.172,224.047 479.5,238C 509.584,248.435 530.751,268.268 543,297.5C 545.535,306.325 548.369,314.992 551.5,323.5C 572.084,313.847 593.75,310.013 616.5,312C 637.664,303.067 659.664,299.901 682.5,302.5C 684.359,285.679 687.192,269.012 691,252.5C 696.337,234.453 704.337,217.786 715,202.5C 725.297,189.599 738.463,181.099 754.5,177C 800.698,176.527 832.532,197.694 850,240.5C 861.029,278.01 859.529,315.01 845.5,351.5C 865.425,363.379 884.592,376.379 903,390.5C 905.776,389.195 908.61,388.029 911.5,387C 917.871,386.516 924.205,386.516 930.5,387C 945.728,374.088 963.395,367.588 983.5,367.5C 982.535,371.871 981.701,376.204 981,380.5C 999.507,390.836 1011.84,406.17 1018,426.5C 1024.02,448.386 1020.86,468.719 1008.5,487.5C 1072.96,478.153 1128.13,496.487 1174,542.5C 1203.49,535.89 1233.32,533.724 1263.5,536C 1297.5,538.254 1326.33,551.42 1350,575.5C 1355.19,582.335 1356.85,590.002 1355,598.5C 1349.17,614.166 1339.67,627.166 1326.5,637.5 Z"/></g>
<g><path style="opacity:1" fill="#e9b4a5" d="M 750.5,287.5 C 748.139,275.474 749.972,264.14 756,253.5C 760.456,247.375 765.289,241.542 770.5,236C 776.734,230.92 783.067,226.086 789.5,221.5C 793.792,222.594 798.126,223.094 802.5,223C 785.107,210.424 767.107,209.424 748.5,220C 740.121,227.256 735.288,236.423 734,247.5C 733.501,252.823 733.334,258.156 733.5,263.5C 732.291,267.618 731.624,271.951 731.5,276.5C 728.687,276.548 726.021,277.215 723.5,278.5C 720.844,275.199 718.678,271.532 717,267.5C 713.177,255.535 710.01,243.535 707.5,231.5C 731.525,182.664 766.191,173.498 811.5,204C 832.105,221.364 844.271,243.53 848,270.5C 851.561,297.199 849.394,323.366 841.5,349C 837.894,348.369 834.561,346.869 831.5,344.5C 834.888,337.508 836.055,330.174 835,322.5C 831.54,328.59 827.706,334.423 823.5,340C 820.965,340.617 818.632,340.117 816.5,338.5C 815.338,333.533 815.171,328.533 816,323.5C 817.221,313.751 818.554,304.084 820,294.5C 809.667,305.5 799.333,316.5 789,327.5C 785.593,315.782 782.093,304.116 778.5,292.5C 777.998,291.479 777.332,291.312 776.5,292C 770.667,298.5 764.833,305 759,311.5C 756.622,303.947 754.622,296.281 753,288.5C 752.329,287.748 751.496,287.414 750.5,287.5 Z"/></g>
<g><path style="opacity:1" fill="#090605" d="M 789.5,221.5 C 774.44,218.578 761.273,222.245 750,232.5C 742.557,246.924 737.891,262.258 736,278.5C 734.518,273.607 733.685,268.607 733.5,263.5C 733.334,258.156 733.501,252.823 734,247.5C 735.288,236.423 740.121,227.256 748.5,220C 767.107,209.424 785.107,210.424 802.5,223C 798.126,223.094 793.792,222.594 789.5,221.5 Z"/></g>
<g><path style="opacity:1" fill="#dc6f5f" d="M 789.5,221.5 C 783.067,226.086 776.734,230.92 770.5,236C 765.289,241.542 760.456,247.375 756,253.5C 749.972,264.14 748.139,275.474 750.5,287.5C 738.948,296.114 726.282,302.947 712.5,308C 703.605,306.295 694.605,304.795 685.5,303.5C 688.23,277.986 695.563,253.986 707.5,231.5C 710.01,243.535 713.177,255.535 717,267.5C 718.678,271.532 720.844,275.199 723.5,278.5C 726.021,277.215 728.687,276.548 731.5,276.5C 731.624,271.951 732.291,267.618 733.5,263.5C 733.685,268.607 734.518,273.607 736,278.5C 737.891,262.258 742.557,246.924 750,232.5C 761.273,222.245 774.44,218.578 789.5,221.5 Z"/></g>
<g><path style="opacity:1" fill="#e6b4a2" d="M 552.5,403.5 C 540.532,389.579 530.032,374.579 521,358.5C 513.926,343.122 507.593,327.455 502,311.5C 494.767,298.997 485.267,288.664 473.5,280.5C 446.686,255.75 416.019,249.583 381.5,262C 362.299,270.862 345.632,283.196 331.5,299C 332.167,299.667 332.833,299.667 333.5,299C 338.841,294.336 344.507,290.169 350.5,286.5C 373.476,297.31 389.809,314.476 399.5,338C 403.929,352.77 403.095,367.27 397,381.5C 386.598,408.567 368.098,427.734 341.5,439C 333.096,442.102 324.43,443.602 315.5,443.5C 311.272,429.805 308.439,415.805 307,401.5C 299.583,423.013 301.583,443.679 313,463.5C 317.579,470.914 323.079,477.581 329.5,483.5C 332.901,492.634 338.068,500.634 345,507.5C 350.515,520.705 357.681,532.871 366.5,544C 348.557,536.526 331.557,527.192 315.5,516C 314.552,515.517 313.552,515.351 312.5,515.5C 289.806,478.061 278.973,437.395 280,393.5C 281.362,378.916 288.529,368.416 301.5,362C 308.71,361.199 315.71,359.533 322.5,357C 330.372,349.09 331.538,340.257 326,330.5C 320.766,325.797 314.933,321.963 308.5,319C 296.136,306.92 295.303,294.087 306,280.5C 332.817,254.548 364.983,240.381 402.5,238C 438.166,234.66 471.166,242.327 501.5,261C 517.596,272.099 528.762,286.933 535,305.5C 541.049,327.696 547.715,349.696 555,371.5C 559.508,383.358 565.675,394.192 573.5,404C 566.42,404.795 559.42,404.628 552.5,403.5 Z"/></g>
<g><path style="opacity:1" fill="#0a0504" d="M 473.5,280.5 C 498.67,306.225 509.837,337.225 507,373.5C 510.915,390.914 516.582,407.581 524,423.5C 519.169,417.174 514.835,410.508 511,403.5C 508.038,409.792 503.205,413.959 496.5,416C 484.842,417.722 473.176,419.388 461.5,421C 443.498,425.004 431.998,435.837 427,453.5C 426.624,462.553 426.957,471.553 428,480.5C 417.199,461.405 418.199,443.071 431,425.5C 441.199,415.82 453.365,410.654 467.5,410C 476.5,409.667 485.5,409.333 494.5,409C 500.567,408.555 505.067,405.722 508,400.5C 508.667,399.167 508.667,397.833 508,396.5C 499.943,378.728 495.943,360.061 496,340.5C 486.814,304.651 464.98,280.151 430.5,267C 400.904,261.618 374.238,268.118 350.5,286.5C 344.507,290.169 338.841,294.336 333.5,299C 332.833,299.667 332.167,299.667 331.5,299C 345.632,283.196 362.299,270.862 381.5,262C 416.019,249.583 446.686,255.75 473.5,280.5 Z"/></g>
<g><path style="opacity:1" fill="#de705f" d="M 473.5,280.5 C 485.267,288.664 494.767,298.997 502,311.5C 507.593,327.455 513.926,343.122 521,358.5C 530.032,374.579 540.532,389.579 552.5,403.5C 551.127,403.343 549.793,403.51 548.5,404C 554.833,413 562.5,420.667 571.5,427C 564.607,428.816 557.607,429.982 550.5,430.5C 543.825,429.664 537.159,429.164 530.5,429C 541.311,437.91 552.977,445.576 565.5,452C 542.561,461.608 519.228,462.941 495.5,456C 514.395,467.281 533.728,477.781 553.5,487.5C 536.978,501.95 517.644,508.117 495.5,506C 504.186,509.169 512.852,512.336 521.5,515.5C 513.5,516.167 505.5,516.833 497.5,517.5C 488.713,517.246 480.046,518.08 471.5,520C 478.708,527.375 486.041,534.542 493.5,541.5C 460.109,567.015 422.775,575.848 381.5,568C 352.241,558.556 329.241,541.056 312.5,515.5C 313.552,515.351 314.552,515.517 315.5,516C 331.557,527.192 348.557,536.526 366.5,544C 357.681,532.871 350.515,520.705 345,507.5C 338.068,500.634 332.901,492.634 329.5,483.5C 331.789,485.006 334.123,486.173 336.5,487C 328.284,473.069 321.284,458.569 315.5,443.5C 324.43,443.602 333.096,442.102 341.5,439C 368.098,427.734 386.598,408.567 397,381.5C 403.095,367.27 403.929,352.77 399.5,338C 389.809,314.476 373.476,297.31 350.5,286.5C 374.238,268.118 400.904,261.618 430.5,267C 464.98,280.151 486.814,304.651 496,340.5C 495.943,360.061 499.943,378.728 508,396.5C 508.667,397.833 508.667,399.167 508,400.5C 505.067,405.722 500.567,408.555 494.5,409C 485.5,409.333 476.5,409.667 467.5,410C 453.365,410.654 441.199,415.82 431,425.5C 418.199,443.071 417.199,461.405 428,480.5C 426.957,471.553 426.624,462.553 427,453.5C 431.998,435.837 443.498,425.004 461.5,421C 473.176,419.388 484.842,417.722 496.5,416C 503.205,413.959 508.038,409.792 511,403.5C 514.835,410.508 519.169,417.174 524,423.5C 516.582,407.581 510.915,390.914 507,373.5C 509.837,337.225 498.67,306.225 473.5,280.5 Z"/></g>
<g><path style="opacity:1" fill="#d7d8dc" d="M 752.5,329.5 C 752.607,331.379 752.107,331.712 751,330.5C 747.31,324.44 743.143,318.773 738.5,313.5C 734.34,315.412 730.34,317.579 726.5,320C 738.829,328.5 751.496,336.5 764.5,344C 765.696,344.654 765.696,345.154 764.5,345.5C 752.602,340.275 740.269,336.442 727.5,334C 703.316,329.858 678.983,327.025 654.5,325.5C 644.33,320.387 633.663,316.554 622.5,314C 643.545,310.473 664.545,310.806 685.5,315C 706.913,315.439 727.079,310.605 746,300.5C 748.995,309.975 751.162,319.642 752.5,329.5 Z"/></g>
<g><path style="opacity:1" fill="#d1d2d6" d="M 784.5,346.5 C 784.631,347.239 784.464,347.906 784,348.5C 778.285,341.574 772.452,334.74 766.5,328C 762.717,328.545 759.05,329.712 755.5,331.5C 761.102,324.725 766.935,318.058 773,311.5C 776.936,323.142 780.77,334.809 784.5,346.5 Z"/></g>
<g><path style="opacity:1" fill="#91959f" d="M 752.5,329.5 C 753.268,330.263 753.768,331.263 754,332.5C 754.383,331.944 754.883,331.611 755.5,331.5C 759.05,329.712 762.717,328.545 766.5,328C 772.452,334.74 778.285,341.574 784,348.5C 784.464,347.906 784.631,347.239 784.5,346.5C 785.167,346.167 785.833,345.833 786.5,345.5C 791.111,342.733 795.611,339.733 800,336.5C 803.603,338.392 806.77,340.892 809.5,344C 810.816,344.528 811.483,344.028 811.5,342.5C 812.886,348.32 814.053,354.32 815,360.5C 815.495,358.527 815.662,356.527 815.5,354.5C 840.22,374.337 867.553,389.837 897.5,401C 900.623,402.351 903.623,402.518 906.5,401.5C 909.965,402.397 912.965,404.064 915.5,406.5C 913.381,410.05 911.881,413.717 911,417.5C 915.406,412.589 920.24,408.255 925.5,404.5C 929.97,405.486 934.637,405.819 939.5,405.5C 922.189,410.117 909.189,420.451 900.5,436.5C 895.591,434.285 890.424,433.285 885,433.5C 873.344,435.163 861.678,436.829 850,438.5C 845.349,438.364 840.849,437.531 836.5,436C 832.534,431.033 828.201,426.366 823.5,422C 785.952,395.376 748.952,396.043 712.5,424C 679.734,456.159 671.901,493.659 689,536.5C 693.905,545.687 699.239,554.354 705,562.5C 681.123,556.165 656.956,554.998 632.5,559C 668.215,564.346 703.215,572.679 737.5,584C 762.348,592.168 784.848,604.335 805,620.5C 801.342,606.49 792.842,596.323 779.5,590C 783.716,588.796 788.049,588.13 792.5,588C 814.271,584.956 831.937,574.956 845.5,558C 848.833,556.333 852.167,554.667 855.5,553C 853.5,552.667 851.5,552.333 849.5,552C 853.911,543.935 857.245,535.435 859.5,526.5C 861.409,527.348 863.409,527.682 865.5,527.5C 864.75,536.818 862.916,545.818 860,554.5C 866.88,547.413 871.714,539.079 874.5,529.5C 880.928,527.848 887.428,526.514 894,525.5C 904.196,529.52 914.696,530.52 925.5,528.5C 934.827,529.166 944.327,529.5 954,529.5C 994.163,528.393 1034.33,527.893 1074.5,528C 1103.04,529.856 1130.71,535.69 1157.5,545.5C 1144.88,549.005 1132.21,552.838 1119.5,557C 1101.65,562.918 1085.65,571.918 1071.5,584C 1054.89,598.821 1049.39,616.988 1055,638.5C 1057.65,645.79 1060.81,652.79 1064.5,659.5C 1070.34,672.952 1079,684.452 1090.5,694C 1107.8,706.98 1127.13,715.647 1148.5,720C 1161.79,721.902 1175.12,723.402 1188.5,724.5C 1194.55,738.59 1200.55,752.59 1206.5,766.5C 1205.83,768.819 1205.67,771.153 1206,773.5C 1212.53,765.754 1218.03,757.42 1222.5,748.5C 1225.46,745.94 1227.96,742.94 1230,739.5C 1230.23,740.737 1230.73,741.737 1231.5,742.5C 1233.25,747.182 1236.58,748.682 1241.5,747C 1243.05,745.903 1244.39,744.57 1245.5,743C 1264.79,733.295 1284.79,725.461 1305.5,719.5C 1303.11,727.168 1300.61,734.835 1298,742.5C 1297.61,743.428 1296.95,744.095 1296,744.5C 1273.23,747.821 1251.06,753.487 1229.5,761.5C 1225.47,759.674 1222.31,760.674 1220,764.5C 1218.55,772.386 1221.72,775.553 1229.5,774C 1232.32,770.42 1235.98,768.087 1240.5,767C 1257.66,760.723 1275.16,755.889 1293,752.5C 1290.8,761.092 1287.3,769.259 1282.5,777C 1269.07,777.849 1255.74,779.516 1242.5,782C 1238.18,786.233 1238.85,789.4 1244.5,791.5C 1255.32,788.473 1266.32,786.973 1277.5,787C 1269.93,798.567 1260.93,808.9 1250.5,818C 1240.89,823.762 1230.55,827.762 1219.5,830C 1198.01,834.472 1176.34,837.638 1154.5,839.5C 1155.57,838.115 1156.91,836.949 1158.5,836C 1103.1,832.734 1048.1,826.401 993.5,817C 1039.09,797.053 1086.42,790.386 1135.5,797C 1136.67,796.5 1137.5,795.667 1138,794.5C 1139.87,789.308 1138.21,786.308 1133,785.5C 1097.74,783.108 1063.24,787.274 1029.5,798C 1014.08,803.748 998.751,809.581 983.5,815.5C 944.935,808.574 906.935,799.408 869.5,788C 954.215,751.595 1041.55,743.595 1131.5,764C 1135.79,765.488 1140.12,766.822 1144.5,768C 1148.13,774.767 1153.13,776.1 1159.5,772C 1164.3,765.782 1163.3,760.782 1156.5,757C 1152.92,756.154 1149.58,756.654 1146.5,758.5C 1062.42,738.133 979.755,742.966 898.5,773C 887.253,777.304 876.087,781.804 865,786.5C 854.77,783.201 844.603,779.701 834.5,776C 808.465,760.98 781.798,746.98 754.5,734C 742.001,726.918 729.668,719.585 717.5,712C 716.446,710.612 716.28,709.112 717,707.5C 721.999,699.845 728.832,694.345 737.5,691C 718.58,687.939 700.914,691.272 684.5,701C 673.019,710.467 668.019,722.633 669.5,737.5C 678.192,735.462 686.859,733.629 695.5,732C 743.62,788.147 798.954,835.481 861.5,874C 869.194,878.179 876.86,882.346 884.5,886.5C 876.211,891.333 867.211,894.5 857.5,896C 844.233,897.829 830.9,898.662 817.5,898.5C 815.426,882.04 807.092,869.706 792.5,861.5C 792.167,861.667 791.833,861.833 791.5,862C 794.882,867.147 796.216,872.814 795.5,879C 795.485,882.576 794.818,885.742 793.5,888.5C 792.761,888.369 792.094,888.536 791.5,889C 792.701,889.903 793.535,891.069 794,892.5C 794.667,896.167 794.667,899.833 794,903.5C 792.578,908.608 791.412,913.774 790.5,919C 790.91,924.082 793.577,927.416 798.5,929C 815.866,932.266 833.199,931.933 850.5,928C 860.59,926.143 870.59,923.977 880.5,921.5C 880.447,934.18 882.447,946.514 886.5,958.5C 885.624,959.251 884.624,959.751 883.5,960C 884.766,960.309 885.933,960.809 887,961.5C 892.445,977.062 899.945,991.395 909.5,1004.5C 909.842,1005.34 910.508,1005.67 911.5,1005.5C 909.891,1014.71 908.225,1023.87 906.5,1033C 895.833,1033.33 885.167,1033.67 874.5,1034C 883.752,1040.7 894.085,1044.53 905.5,1045.5C 903.898,1064.57 904.565,1083.57 907.5,1102.5C 890.142,1108.53 875.142,1118.19 862.5,1131.5C 847.81,1111.49 828.144,1100.32 803.5,1098C 836.089,1112.59 857.256,1137.09 867,1171.5C 872.237,1187.1 874.904,1203.1 875,1219.5C 869.492,1207.81 862.492,1197.14 854,1187.5C 853.5,1188 853,1188.5 852.5,1189C 876.422,1232.45 883.589,1278.61 874,1327.5C 866.93,1366.54 854.763,1403.88 837.5,1439.5C 839.733,1440.02 841.4,1439.02 842.5,1436.5C 875.169,1403.81 894.002,1364.15 899,1317.5C 899.526,1300.15 899.526,1282.82 899,1265.5C 917.025,1250.3 934.859,1234.97 952.5,1219.5C 966.78,1211.56 981.78,1205.06 997.5,1200C 976.799,1198.09 957.133,1201.76 938.5,1211C 919.037,1221.29 901.703,1234.45 886.5,1250.5C 884.698,1245.63 883.365,1240.63 882.5,1235.5C 886.63,1209.68 884.797,1184.35 877,1159.5C 873.453,1150.42 869.453,1141.75 865,1133.5C 880.362,1126.88 895.862,1120.54 911.5,1114.5C 916.804,1123.97 924.47,1130.8 934.5,1135C 985.966,1144.18 1025.13,1126.35 1052,1081.5C 1065.01,1057.31 1073.51,1031.64 1077.5,1004.5C 1107.76,1010.13 1134.43,1022.97 1157.5,1043C 1155.26,1044.01 1155.59,1044.84 1158.5,1045.5C 1176.72,1049.95 1193.39,1057.61 1208.5,1068.5C 1215.48,1078.33 1222.31,1088.33 1229,1098.5C 1237.5,1112.5 1243.5,1127.5 1247,1143.5C 1247.5,1151.16 1247.67,1158.83 1247.5,1166.5C 1248.11,1167.39 1248.44,1168.39 1248.5,1169.5C 1255.65,1211.92 1257.82,1254.58 1255,1297.5C 1253.73,1307.21 1252.23,1316.87 1250.5,1326.5C 1284.03,1359.6 1307.53,1398.93 1321,1444.5C 1331.16,1481.45 1335.66,1519.12 1334.5,1557.5C 1136.5,1557.5 938.5,1557.5 740.5,1557.5C 743.128,1508.43 736.295,1460.76 720,1414.5C 715.059,1387.92 718.059,1362.26 729,1337.5C 732.271,1330.62 735.771,1323.96 739.5,1317.5C 741.977,1315.76 744.644,1314.26 747.5,1313C 715.885,1322.28 695.051,1342.78 685,1374.5C 680.367,1394.49 680.367,1414.49 685,1434.5C 689.136,1454.57 695.469,1473.91 704,1492.5C 712.255,1507.34 720.255,1522.34 728,1537.5C 730.673,1544.02 732.84,1550.69 734.5,1557.5C 660.5,1557.5 586.5,1557.5 512.5,1557.5C 469.204,1541.19 425.871,1524.86 382.5,1508.5C 381.624,1508.37 380.957,1508.7 380.5,1509.5C 388.641,1524.81 400.307,1536.64 415.5,1545C 424.351,1549.76 433.351,1553.93 442.5,1557.5C 402.167,1557.5 361.833,1557.5 321.5,1557.5C 318.433,1554.12 315.099,1550.95 311.5,1548C 275.87,1524.04 245.037,1494.87 219,1460.5C 208.707,1446.25 201.374,1430.58 197,1413.5C 196.333,1407.83 196.333,1402.17 197,1396.5C 221.632,1408.55 245.132,1422.22 267.5,1437.5C 267.369,1438.24 267.536,1438.91 268,1439.5C 269.373,1437.3 269.706,1434.97 269,1432.5C 263.996,1420.5 256.996,1409.83 248,1400.5C 234.471,1386.64 220.638,1373.14 206.5,1360C 196.819,1354.49 188.486,1347.33 181.5,1338.5C 167.516,1314.21 157.183,1288.55 150.5,1261.5C 153.202,1254.11 156.368,1247.11 160,1240.5C 152.663,1247.51 147.33,1255.85 144,1265.5C 143.487,1264.47 142.987,1263.47 142.5,1262.5C 143.147,1261.73 143.48,1260.73 143.5,1259.5C 136.336,1219.7 136.836,1180.04 145,1140.5C 148.936,1125.28 156.436,1112.28 167.5,1101.5C 165.902,1120.21 166.402,1138.87 169,1157.5C 169.333,1157.17 169.667,1156.83 170,1156.5C 170.255,1117.38 179.089,1080.38 196.5,1045.5C 201.521,1051.03 206.021,1057.03 210,1063.5C 238.772,1021.81 277.939,1005.31 327.5,1014C 310.217,1054.24 302.55,1096.07 304.5,1139.5C 304.5,1143.5 304.5,1147.5 304.5,1151.5C 305.791,1151.74 306.791,1151.4 307.5,1150.5C 307.322,1146.88 307.989,1143.54 309.5,1140.5C 325.502,1099.82 346.669,1062.15 373,1027.5C 383.486,1014.69 395.652,1003.86 409.5,995C 413.945,992.443 418.611,990.443 423.5,989C 422.756,987.961 421.756,987.461 420.5,987.5C 411.251,985.875 401.918,985.208 392.5,985.5C 384.16,985.309 375.826,984.976 367.5,984.5C 353.93,979.649 340.097,975.649 326,972.5C 323.015,971.96 322.848,971.294 325.5,970.5C 362.571,955.594 399.238,939.927 435.5,923.5C 438.75,922.476 441.416,921.476 443.5,920.5C 443.093,914.839 442.76,909.172 442.5,903.5C 447.871,876.214 458.038,850.881 473,827.5C 485.797,840.624 497.463,854.624 508,869.5C 522.511,884.664 539.677,895.831 559.5,903C 584.399,912.487 610.066,915.821 636.5,913C 653.068,909.606 669.401,905.773 685.5,901.5C 708.723,899.206 732.056,897.706 755.5,897C 746.891,895.358 738.224,894.192 729.5,893.5C 729.389,892.883 729.056,892.383 728.5,892C 738.553,889.871 748.553,887.537 758.5,885C 749.167,884.333 739.833,884.333 730.5,885C 701.566,887.918 672.566,889.751 643.5,890.5C 628.076,890.714 612.743,889.714 597.5,887.5C 589.925,886.216 582.592,884.049 575.5,881C 530.087,861.254 495.92,829.421 473,785.5C 474.231,790.526 475.898,795.526 478,800.5C 482.088,808.677 486.088,816.677 490,824.5C 482.246,819.037 474.079,814.203 465.5,810C 464.892,807.816 465.559,805.816 467.5,804C 464.013,801.664 461.013,802.164 458.5,805.5C 451.94,802.059 445.607,798.392 439.5,794.5C 433.444,775.94 429.111,756.94 426.5,737.5C 421.464,738.289 416.464,739.289 411.5,740.5C 410.39,723.175 409.39,705.842 408.5,688.5C 404.622,688.719 400.956,689.719 397.5,691.5C 397.167,691 396.833,690.5 396.5,690C 404.216,668.73 413.716,648.23 425,628.5C 435.422,610.928 445.589,593.261 455.5,575.5C 473.583,568.593 488.75,557.593 501,542.5C 501.982,541.241 502.315,539.908 502,538.5C 495.5,533.333 489,528.167 482.5,523C 503.516,522.46 524.516,522.46 545.5,523C 539.844,517.851 533.51,513.684 526.5,510.5C 542.111,505.041 555.778,496.541 567.5,485C 556.102,480.468 545.102,475.134 534.5,469C 554.311,465.619 573.311,459.619 591.5,451C 580.464,448.767 570.131,444.767 560.5,439C 573.714,437.05 586.38,433.383 598.5,428C 588.325,425.95 579.325,421.617 571.5,415C 580.558,413.388 589.558,411.388 598.5,409C 587.894,405.059 579.727,398.225 574,388.5C 565.424,372.27 558.924,355.27 554.5,337.5C 591.852,332.178 628.852,333.845 665.5,342.5C 666.416,342.457 667.083,342.124 667.5,341.5C 670.719,343.027 673.885,344.693 677,346.5C 677.667,345.833 677.667,345.167 677,344.5C 670.078,337.317 662.578,330.983 654.5,325.5C 678.983,327.025 703.316,329.858 727.5,334C 740.269,336.442 752.602,340.275 764.5,345.5C 765.696,345.154 765.696,344.654 764.5,344C 751.496,336.5 738.829,328.5 726.5,320C 730.34,317.579 734.34,315.412 738.5,313.5C 743.143,318.773 747.31,324.44 751,330.5C 752.107,331.712 752.607,331.379 752.5,329.5 Z"/></g>
<g><path style="opacity:1" fill="#d2d3d7" d="M 811.5,342.5 C 811.483,344.028 810.816,344.528 809.5,344C 806.77,340.892 803.603,338.392 800,336.5C 795.611,339.733 791.111,342.733 786.5,345.5C 794.143,336.186 801.81,326.852 809.5,317.5C 810.971,325.767 811.638,334.1 811.5,342.5 Z"/></g>
<g><path style="opacity:1" fill="#d5d6da" d="M 667.5,341.5 C 667.083,342.124 666.416,342.457 665.5,342.5C 628.852,333.845 591.852,332.178 554.5,337.5C 552.633,334.887 551.633,331.887 551.5,328.5C 591.686,320.203 630.352,324.536 667.5,341.5 Z"/></g>
<g><path style="opacity:1" fill="#d4d6da" d="M 906.5,401.5 C 903.623,402.518 900.623,402.351 897.5,401C 867.553,389.837 840.22,374.337 815.5,354.5C 815.334,350.154 815.501,345.821 816,341.5C 842.88,366.364 873.047,386.364 906.5,401.5 Z"/></g>
<g><path style="opacity:1" fill="#020202" d="M 702.5,351.5 C 742.488,349.105 777.322,361.105 807,387.5C 811.981,392.802 816.481,398.469 820.5,404.5C 806.2,395.71 790.533,388.877 773.5,384C 763.122,381.724 752.622,380.557 742,380.5C 732.799,380.912 723.632,381.412 714.5,382C 705.797,373.919 698.797,364.586 693.5,354C 696.628,353.159 699.628,352.325 702.5,351.5 Z"/></g>
<g><path style="opacity:1" fill="#d4d5d9" d="M 1010.5,446.5 C 1005.11,436.062 998.944,426.062 992,416.5C 983.57,406.03 972.736,401.197 959.5,402C 957.004,403.08 954.67,404.414 952.5,406C 950.613,406.78 948.946,406.613 947.5,405.5C 954.263,390.613 964.93,386.78 979.5,394C 996.383,407.595 1006.72,425.095 1010.5,446.5 Z"/></g>
<g><path style="opacity:1" fill="#c4c5c9" d="M 909.5,396.5 C 912.833,397.167 916.167,397.833 919.5,398.5C 919.392,400.783 918.559,402.783 917,404.5C 914.245,401.917 911.745,399.251 909.5,396.5 Z"/></g>
<g><path style="opacity:1" fill="#d0d1d1" d="M 939.5,405.5 C 934.637,405.819 929.97,405.486 925.5,404.5C 927.402,403.632 929.235,402.632 931,401.5C 933.478,402.245 935.978,402.911 938.5,403.5C 940.418,403.861 940.751,404.528 939.5,405.5 Z"/></g>
<g><path style="opacity:1" fill="#8f939d" d="M 1010.5,446.5 C 1012.41,461.311 1010.24,475.644 1004,489.5C 997.177,491.264 990.344,492.764 983.5,494C 988.092,486.134 990.425,477.634 990.5,468.5C 994.97,468.97 995.47,467.97 992,465.5C 992.641,432.823 977.808,412.823 947.5,405.5C 948.946,406.613 950.613,406.78 952.5,406C 954.67,404.414 957.004,403.08 959.5,402C 972.736,401.197 983.57,406.03 992,416.5C 998.944,426.062 1005.11,436.062 1010.5,446.5 Z"/></g>
<g><path style="opacity:1" fill="#0a0605" d="M 315.5,443.5 C 321.284,458.569 328.284,473.069 336.5,487C 334.123,486.173 331.789,485.006 329.5,483.5C 323.079,477.581 317.579,470.914 313,463.5C 301.583,443.679 299.583,423.013 307,401.5C 308.439,415.805 311.272,429.805 315.5,443.5 Z"/></g>
<g><path style="opacity:1" fill="#fdfdfd" d="M 788.5,570.5 C 791.167,571.167 793.833,571.833 796.5,572.5C 751.388,585.692 718.221,571.359 697,529.5C 682.142,488.76 691.308,454.593 724.5,427C 756.621,405.831 788.287,406.497 819.5,429C 847.874,455.143 856.041,486.643 844,523.5C 839.854,533.8 834.187,543.133 827,551.5C 827.555,547.817 828.555,544.15 830,540.5C 830.87,534.083 830.536,527.749 829,521.5C 828.667,521.167 828.333,520.833 828,520.5C 816.277,527.48 807.611,524.813 802,512.5C 800.909,507.475 801.743,502.809 804.5,498.5C 783.575,495.245 769.408,503.579 762,523.5C 758.595,536.117 760.595,547.784 768,558.5C 773.404,564.952 780.237,568.952 788.5,570.5 Z"/></g>
<g><path style="opacity:1" fill="#fcfcfc" d="M 935.5,415.5 C 964.204,413.693 981.037,427.026 986,455.5C 987.654,474.22 981.321,489.554 967,501.5C 968.192,498.733 969.192,495.733 970,492.5C 970.667,490.833 970.667,489.167 970,487.5C 954.558,489.678 948.392,483.012 951.5,467.5C 949.926,466.369 948.259,466.202 946.5,467C 933.848,475.45 931.015,486.616 938,500.5C 940.592,503.762 943.759,506.262 947.5,508C 929.531,508.051 916.698,499.885 909,483.5C 900.078,461.653 903.578,442.153 919.5,425C 924.434,421.038 929.767,417.871 935.5,415.5 Z"/></g>
<g><path style="opacity:1" fill="#74777f" d="M 857.5,491.5 C 866.046,493.758 874.713,495.258 883.5,496C 890.78,492.269 893.28,486.435 891,478.5C 887.777,472.277 882.943,467.777 876.5,465C 867.883,462.511 859.216,460.344 850.5,458.5C 847.999,454.013 845.332,449.513 842.5,445C 846.929,445.726 851.429,446.56 856,447.5C 864.481,446.44 872.981,446.274 881.5,447C 894.431,450.263 899.598,458.43 897,471.5C 897.954,477.149 899.454,482.649 901.5,488C 896.658,502.339 886.658,509.506 871.5,509.5C 866.814,509.314 862.147,508.981 857.5,508.5C 857.5,502.833 857.5,497.167 857.5,491.5 Z"/></g>
<g><path style="opacity:1" fill="#91959f" d="M 850.5,458.5 C 859.216,460.344 867.883,462.511 876.5,465C 882.943,467.777 887.777,472.277 891,478.5C 893.28,486.435 890.78,492.269 883.5,496C 874.713,495.258 866.046,493.758 857.5,491.5C 856.909,480.134 854.575,469.134 850.5,458.5 Z"/></g>
<g><path style="opacity:1" fill="#d7d8dc" d="M 1157.5,545.5 C 1130.71,535.69 1103.04,529.856 1074.5,528C 1034.33,527.893 994.163,528.393 954,529.5C 944.327,529.5 934.827,529.166 925.5,528.5C 946.3,522.236 967.3,516.569 988.5,511.5C 997.755,510.571 1006.75,508.904 1015.5,506.5C 1038.56,502.192 1061.56,502.692 1084.5,508C 1111.93,517.545 1138.26,529.545 1163.5,544C 1161.65,545.128 1159.65,545.628 1157.5,545.5 Z"/></g>
<g><path style="opacity:1" fill="#959595" d="M 1015.5,506.5 C 1006.75,508.904 997.755,510.571 988.5,511.5C 997.168,508.702 1006.17,507.035 1015.5,506.5 Z"/></g>
<g><path style="opacity:1" fill="#090403" d="M 352.5,514.5 C 352.56,513.957 352.893,513.624 353.5,513.5C 379.845,532.586 409.178,539.753 441.5,535C 452.289,532.839 462.955,530.506 473.5,528C 442.232,549.791 409.565,552.124 375.5,535C 366.72,529.386 359.054,522.552 352.5,514.5 Z"/></g>
<g><path style="opacity:1" fill="#703930" d="M 521.5,515.5 C 522.473,515.987 523.473,516.487 524.5,517C 515.506,517.5 506.506,517.666 497.5,517.5C 505.5,516.833 513.5,516.167 521.5,515.5 Z"/></g>
<g><path style="opacity:1" fill="#91959f" d="M 1235.5,562.5 C 1258.73,561.071 1281.4,563.904 1303.5,571C 1324.7,581.397 1326.03,594.063 1307.5,609C 1285.53,622.214 1261.86,630.881 1236.5,635C 1211.24,638.722 1185.91,639.388 1160.5,637C 1147.18,635.676 1135.35,630.842 1125,622.5C 1119.64,613.442 1120.64,605.108 1128,597.5C 1142.41,586.045 1158.58,577.879 1176.5,573C 1196.01,567.751 1215.67,564.251 1235.5,562.5 Z"/></g>
<g><path style="opacity:1" fill="#5e5e5e" d="M 788.5,570.5 C 791.898,570.18 795.232,570.513 798.5,571.5C 798.043,572.298 797.376,572.631 796.5,572.5C 793.833,571.833 791.167,571.167 788.5,570.5 Z"/></g>
<g><path style="opacity:1" fill="#757880" d="M 455.5,575.5 C 445.589,593.261 435.422,610.928 425,628.5C 413.716,648.23 404.216,668.73 396.5,690C 396.833,690.5 397.167,691 397.5,691.5C 400.956,689.719 404.622,688.719 408.5,688.5C 409.39,705.842 410.39,723.175 411.5,740.5C 416.464,739.289 421.464,738.289 426.5,737.5C 429.111,756.94 433.444,775.94 439.5,794.5C 428.488,789.329 418.488,782.662 409.5,774.5C 412.167,769.162 415.334,764.162 419,759.5C 419.982,758.241 420.315,756.908 420,755.5C 415,761.833 410,768.167 405,774.5C 403.267,758.174 401.601,741.841 400,725.5C 399.765,721.68 398.932,718.013 397.5,714.5C 387.752,719.789 378.252,725.456 369,731.5C 375.186,689.968 392.02,653.468 419.5,622C 419.043,621.586 418.709,621.086 418.5,620.5C 416.5,620.167 414.5,619.833 412.5,619.5C 404.179,620.456 395.845,620.622 387.5,620C 394.455,607.253 401.788,594.753 409.5,582.5C 425.188,582.329 440.522,579.996 455.5,575.5 Z"/></g>
<g><path style="opacity:1" fill="#91959e" d="M 1326.5,637.5 C 1326.5,638.5 1326.5,639.5 1326.5,640.5C 1320.7,663.681 1314.87,687.014 1309,710.5C 1286.92,716.195 1265.42,723.695 1244.5,733C 1241.08,733.248 1237.75,733.748 1234.5,734.5C 1238.08,728.401 1241.92,722.401 1246,716.5C 1248.99,710.359 1251.49,704.026 1253.5,697.5C 1269.5,684.824 1285.17,671.824 1300.5,658.5C 1309.14,651.53 1317.81,644.53 1326.5,637.5 Z"/></g>
<g><path style="opacity:1" fill="#0a0a08" d="M 1326.5,640.5 C 1326.33,649.848 1325.83,659.181 1325,668.5C 1322.93,681.471 1321.1,694.471 1319.5,707.5C 1375.97,695.309 1432.64,694.309 1489.5,704.5C 1489.5,705.167 1489.17,705.5 1488.5,705.5C 1430.44,696.571 1373.1,699.904 1316.5,715.5C 1314.66,724.54 1312.66,733.54 1310.5,742.5C 1376.61,739.322 1439.61,751.656 1499.5,779.5C 1499.5,779.833 1499.5,780.167 1499.5,780.5C 1451.15,759.863 1400.65,748.863 1348,747.5C 1338.16,747.908 1328.33,748.408 1318.5,749C 1314.75,749.26 1311.08,749.927 1307.5,751C 1303.99,759.865 1300.32,768.699 1296.5,777.5C 1341.11,783.66 1382.11,798.993 1419.5,823.5C 1381.36,801.714 1340.36,789.047 1296.5,785.5C 1294.9,785.551 1293.4,785.884 1292,786.5C 1281.47,809.025 1264.97,825.525 1242.5,836C 1212.74,845.04 1182.74,846.54 1152.5,840.5C 1152.84,839.662 1153.51,839.328 1154.5,839.5C 1176.34,837.638 1198.01,834.472 1219.5,830C 1230.55,827.762 1240.89,823.762 1250.5,818C 1260.93,808.9 1269.93,798.567 1277.5,787C 1266.32,786.973 1255.32,788.473 1244.5,791.5C 1238.85,789.4 1238.18,786.233 1242.5,782C 1255.74,779.516 1269.07,777.849 1282.5,777C 1287.3,769.259 1290.8,761.092 1293,752.5C 1275.16,755.889 1257.66,760.723 1240.5,767C 1235.98,768.087 1232.32,770.42 1229.5,774C 1221.72,775.553 1218.55,772.386 1220,764.5C 1222.31,760.674 1225.47,759.674 1229.5,761.5C 1251.06,753.487 1273.23,747.821 1296,744.5C 1296.95,744.095 1297.61,743.428 1298,742.5C 1300.61,734.835 1303.11,727.168 1305.5,719.5C 1284.79,725.461 1264.79,733.295 1245.5,743C 1244.39,744.57 1243.05,745.903 1241.5,747C 1236.58,748.682 1233.25,747.182 1231.5,742.5C 1231.02,739.212 1232.02,736.545 1234.5,734.5C 1237.75,733.748 1241.08,733.248 1244.5,733C 1265.42,723.695 1286.92,716.195 1309,710.5C 1314.87,687.014 1320.7,663.681 1326.5,640.5 Z"/></g>
<g><path style="opacity:1" fill="#767981" d="M 1064.5,659.5 C 1079.86,679.372 1099.86,692.538 1124.5,699C 1154.33,705.362 1184.33,706.196 1214.5,701.5C 1215.34,723.647 1212.67,745.314 1206.5,766.5C 1200.55,752.59 1194.55,738.59 1188.5,724.5C 1175.12,723.402 1161.79,721.902 1148.5,720C 1127.13,715.647 1107.8,706.98 1090.5,694C 1079,684.452 1070.34,672.952 1064.5,659.5 Z"/></g>
<g><path style="opacity:1" fill="#74777f" d="M 1300.5,658.5 C 1285.17,671.824 1269.5,684.824 1253.5,697.5C 1251.49,704.026 1248.99,710.359 1246,716.5C 1241.92,722.401 1238.08,728.401 1234.5,734.5C 1232.02,736.545 1231.02,739.212 1231.5,742.5C 1230.73,741.737 1230.23,740.737 1230,739.5C 1227.96,742.94 1225.46,745.94 1222.5,748.5C 1229.66,731.518 1234.5,713.851 1237,695.5C 1258.8,684.027 1279.96,671.693 1300.5,658.5 Z"/></g>
<g><path style="opacity:1" fill="#030303" d="M 1154.5,839.5 C 1153.51,839.328 1152.84,839.662 1152.5,840.5C 1147.41,844.557 1142.08,848.39 1136.5,852C 1117.73,875.77 1096.56,897.27 1073,916.5C 1076.58,935.279 1078.91,954.279 1080,973.5C 1115.5,980.914 1145.5,997.914 1170,1024.5C 1175.62,1031.46 1180.45,1038.96 1184.5,1047C 1231.22,1059.73 1257.06,1090.23 1262,1138.5C 1263.13,1151.48 1262.3,1164.31 1259.5,1177C 1284.51,1209.7 1291.01,1245.87 1279,1285.5C 1276.85,1292.45 1274.02,1299.12 1270.5,1305.5C 1325.14,1350.77 1354.64,1409.1 1359,1480.5C 1360.55,1506.37 1359.05,1532.03 1354.5,1557.5C 1350.83,1557.5 1347.17,1557.5 1343.5,1557.5C 1351.28,1503.17 1346.11,1450.17 1328,1398.5C 1314.41,1364.95 1295.25,1335.11 1270.5,1309C 1269.55,1308.38 1268.72,1308.55 1268,1309.5C 1264.49,1317.17 1259.32,1323.01 1252.5,1327C 1279.1,1273.62 1277.76,1221.12 1248.5,1169.5C 1248.44,1168.39 1248.11,1167.39 1247.5,1166.5C 1250.69,1168.17 1253.52,1170.51 1256,1173.5C 1256.13,1143.24 1247.8,1115.57 1231,1090.5C 1224.29,1082.29 1216.79,1074.96 1208.5,1068.5C 1193.39,1057.61 1176.72,1049.95 1158.5,1045.5C 1164.34,1044.28 1170.34,1044.28 1176.5,1045.5C 1179.93,1045.86 1180.43,1044.86 1178,1042.5C 1151.81,1013.98 1119.64,995.645 1081.5,987.5C 1080.35,987.818 1079.52,988.484 1079,989.5C 1078.39,994.496 1077.89,999.496 1077.5,1004.5C 1073.51,1031.64 1065.01,1057.31 1052,1081.5C 1025.13,1126.35 985.966,1144.18 934.5,1135C 924.47,1130.8 916.804,1123.97 911.5,1114.5C 895.862,1120.54 880.362,1126.88 865,1133.5C 869.453,1141.75 873.453,1150.42 877,1159.5C 884.797,1184.35 886.63,1209.68 882.5,1235.5C 883.365,1240.63 884.698,1245.63 886.5,1250.5C 901.703,1234.45 919.037,1221.29 938.5,1211C 957.133,1201.76 976.799,1198.09 997.5,1200C 981.78,1205.06 966.78,1211.56 952.5,1219.5C 930.495,1230.25 908.995,1241.92 888,1254.5C 895.408,1320.87 880.241,1381.53 842.5,1436.5C 841.4,1439.02 839.733,1440.02 837.5,1439.5C 854.763,1403.88 866.93,1366.54 874,1327.5C 883.589,1278.61 876.422,1232.45 852.5,1189C 853,1188.5 853.5,1188 854,1187.5C 862.492,1197.14 869.492,1207.81 875,1219.5C 874.904,1203.1 872.237,1187.1 867,1171.5C 857.256,1137.09 836.089,1112.59 803.5,1098C 828.144,1100.32 847.81,1111.49 862.5,1131.5C 875.142,1118.19 890.142,1108.53 907.5,1102.5C 904.565,1083.57 903.898,1064.57 905.5,1045.5C 894.085,1044.53 883.752,1040.7 874.5,1034C 885.167,1033.67 895.833,1033.33 906.5,1033C 908.225,1023.87 909.891,1014.71 911.5,1005.5C 914.972,992.757 919.638,980.423 925.5,968.5C 917.916,966.752 910.25,965.418 902.5,964.5C 905.599,977.3 908.599,990.134 911.5,1003C 911.164,1004.03 910.497,1004.53 909.5,1004.5C 899.945,991.395 892.445,977.062 887,961.5C 885.933,960.809 884.766,960.309 883.5,960C 884.624,959.751 885.624,959.251 886.5,958.5C 882.447,946.514 880.447,934.18 880.5,921.5C 870.59,923.977 860.59,926.143 850.5,928C 833.199,931.933 815.866,932.266 798.5,929C 793.577,927.416 790.91,924.082 790.5,919C 791.412,913.774 792.578,908.608 794,903.5C 794.667,899.833 794.667,896.167 794,892.5C 793.535,891.069 792.701,889.903 791.5,889C 792.094,888.536 792.761,888.369 793.5,888.5C 795.784,890.361 797.618,892.695 799,895.5C 800.311,903.105 800.811,910.772 800.5,918.5C 823.264,918.505 845.931,917.005 868.5,914C 879.663,907.919 890.663,901.586 901.5,895C 895.807,892.153 890.14,889.32 884.5,886.5C 876.86,882.346 869.194,878.179 861.5,874C 798.954,835.481 743.62,788.147 695.5,732C 686.859,733.629 678.192,735.462 669.5,737.5C 668.019,722.633 673.019,710.467 684.5,701C 700.914,691.272 718.58,687.939 737.5,691C 728.832,694.345 721.999,699.845 717,707.5C 716.28,709.112 716.446,710.612 717.5,712C 729.668,719.585 742.001,726.918 754.5,734C 781.798,746.98 808.465,760.98 834.5,776C 844.603,779.701 854.77,783.201 865,786.5C 876.087,781.804 887.253,777.304 898.5,773C 979.755,742.966 1062.42,738.133 1146.5,758.5C 1149.58,756.654 1152.92,756.154 1156.5,757C 1163.3,760.782 1164.3,765.782 1159.5,772C 1153.13,776.1 1148.13,774.767 1144.5,768C 1140.12,766.822 1135.79,765.488 1131.5,764C 1041.55,743.595 954.215,751.595 869.5,788C 906.935,799.408 944.935,808.574 983.5,815.5C 998.751,809.581 1014.08,803.748 1029.5,798C 1063.24,787.274 1097.74,783.108 1133,785.5C 1138.21,786.308 1139.87,789.308 1138,794.5C 1137.5,795.667 1136.67,796.5 1135.5,797C 1086.42,790.386 1039.09,797.053 993.5,817C 1048.1,826.401 1103.1,832.734 1158.5,836C 1156.91,836.949 1155.57,838.115 1154.5,839.5 Z"/></g>
<g><path style="opacity:1" fill="#070708" d="M 838.5,713.5 C 837.508,713.672 836.842,713.338 836.5,712.5C 934.816,690.07 1031.98,694.404 1128,725.5C 1138.71,721.552 1143.71,725.219 1143,736.5C 1139.49,741.447 1134.99,742.613 1129.5,740C 1128.16,737.8 1126.5,735.967 1124.5,734.5C 1031.11,701.131 935.773,694.131 838.5,713.5 Z"/></g>
<g><path style="opacity:1" fill="#fcf2a4" d="M 1488.5,705.5 C 1492.05,706.615 1495.71,707.615 1499.5,708.5C 1499.5,732.167 1499.5,755.833 1499.5,779.5C 1439.61,751.656 1376.61,739.322 1310.5,742.5C 1312.66,733.54 1314.66,724.54 1316.5,715.5C 1373.1,699.904 1430.44,696.571 1488.5,705.5 Z"/></g>
<g><path style="opacity:1" fill="#050505" d="M 548.5,698.5 C 549.117,698.611 549.617,698.944 550,699.5C 558.513,743.019 577.013,781.519 605.5,815C 589.059,807.579 575.893,796.079 566,780.5C 549.981,755.398 544.147,728.064 548.5,698.5 Z"/></g>
<g><path style="opacity:1" fill="#827d55" d="M 1489.5,704.5 C 1492.8,705.294 1496.14,705.96 1499.5,706.5C 1499.5,707.167 1499.5,707.833 1499.5,708.5C 1495.71,707.615 1492.05,706.615 1488.5,705.5C 1489.17,705.5 1489.5,705.167 1489.5,704.5 Z"/></g>
<g><path style="opacity:1" fill="#292a2c" d="M 836.5,712.5 C 836.842,713.338 837.508,713.672 838.5,713.5C 824.173,717.218 809.839,721.051 795.5,725C 808.944,720.056 822.61,715.89 836.5,712.5 Z"/></g>
<g><path style="opacity:1" fill="#fef4a5" d="M 1499.5,780.5 C 1499.5,1039.5 1499.5,1298.5 1499.5,1557.5C 1451.17,1557.5 1402.83,1557.5 1354.5,1557.5C 1359.05,1532.03 1360.55,1506.37 1359,1480.5C 1354.64,1409.1 1325.14,1350.77 1270.5,1305.5C 1274.02,1299.12 1276.85,1292.45 1279,1285.5C 1291.01,1245.87 1284.51,1209.7 1259.5,1177C 1262.3,1164.31 1263.13,1151.48 1262,1138.5C 1257.06,1090.23 1231.22,1059.73 1184.5,1047C 1180.45,1038.96 1175.62,1031.46 1170,1024.5C 1145.5,997.914 1115.5,980.914 1080,973.5C 1078.91,954.279 1076.58,935.279 1073,916.5C 1096.56,897.27 1117.73,875.77 1136.5,852C 1142.08,848.39 1147.41,844.557 1152.5,840.5C 1182.74,846.54 1212.74,845.04 1242.5,836C 1264.97,825.525 1281.47,809.025 1292,786.5C 1293.4,785.884 1294.9,785.551 1296.5,785.5C 1340.36,789.047 1381.36,801.714 1419.5,823.5C 1382.11,798.993 1341.11,783.66 1296.5,777.5C 1300.32,768.699 1303.99,759.865 1307.5,751C 1311.08,749.927 1314.75,749.26 1318.5,749C 1328.33,748.408 1338.16,747.908 1348,747.5C 1400.65,748.863 1451.15,759.863 1499.5,780.5 Z"/></g>
<g><path style="opacity:1" fill="#605c3f" d="M 1419.5,823.5 C 1420.76,823.461 1421.76,823.961 1422.5,825C 1421,825.585 1420,825.085 1419.5,823.5 Z"/></g>
<g><path style="opacity:1" fill="#b76f7e" d="M 953.5,829.5 C 955.571,837.237 958.071,845.237 961,853.5C 970.462,883.789 974.462,914.789 973,946.5C 963.836,986.697 968.836,1025.03 988,1061.5C 994.217,1072.05 1002.72,1080.22 1013.5,1086C 1019.32,1086.88 1024.98,1086.38 1030.5,1084.5C 1006.77,1116.47 975.442,1127.97 936.5,1119C 929.991,1114.48 925.825,1108.31 924,1100.5C 917.673,1066.06 919.673,1032.06 930,998.5C 932.038,991.38 935.038,984.713 939,978.5C 953.173,932.352 948.173,888.352 924,846.5C 919.608,838.775 914.441,831.608 908.5,825C 923.661,825.983 938.661,827.483 953.5,829.5 Z"/></g>
<g><path style="opacity:1" fill="#767981" d="M 685.5,901.5 C 669.401,905.773 653.068,909.606 636.5,913C 610.066,915.821 584.399,912.487 559.5,903C 539.677,895.831 522.511,884.664 508,869.5C 497.463,854.624 485.797,840.624 473,827.5C 458.038,850.881 447.871,876.214 442.5,903.5C 441.824,891.098 441.158,878.598 440.5,866C 441.235,862.425 442.235,858.925 443.5,855.5C 446.967,842.905 452.3,831.238 459.5,820.5C 470.871,825.68 482.705,829.346 495,831.5C 529.61,878.895 576.443,903.895 635.5,906.5C 652.219,905.192 668.885,903.526 685.5,901.5 Z"/></g>
<g><path style="opacity:1" fill="#fd96ab" d="M 953.5,829.5 C 958.239,830.185 962.905,831.185 967.5,832.5C 998.778,888.279 1008.61,947.612 997,1010.5C 1014.42,951.638 1011.92,893.638 989.5,836.5C 998.12,838.137 1006.79,839.637 1015.5,841C 1019.29,841.548 1022.79,842.714 1026,844.5C 1053.31,890.089 1065.64,939.423 1063,992.5C 1060.24,1021.56 1051.9,1048.9 1038,1074.5C 1035.72,1078.08 1033.22,1081.41 1030.5,1084.5C 1024.98,1086.38 1019.32,1086.88 1013.5,1086C 1002.72,1080.22 994.217,1072.05 988,1061.5C 968.836,1025.03 963.836,986.697 973,946.5C 974.462,914.789 970.462,883.789 961,853.5C 958.071,845.237 955.571,837.237 953.5,829.5 Z"/></g>
<g><path style="opacity:1" fill="#f4658a" d="M 967.5,832.5 C 974.907,833.448 982.241,834.782 989.5,836.5C 1011.92,893.638 1014.42,951.638 997,1010.5C 1008.61,947.612 998.778,888.279 967.5,832.5 Z"/></g>
<g><path style="opacity:1" fill="#767981" d="M 884.5,886.5 C 890.14,889.32 895.807,892.153 901.5,895C 890.663,901.586 879.663,907.919 868.5,914C 845.931,917.005 823.264,918.505 800.5,918.5C 800.811,910.772 800.311,903.105 799,895.5C 797.618,892.695 795.784,890.361 793.5,888.5C 794.818,885.742 795.485,882.576 795.5,879C 796.216,872.814 794.882,867.147 791.5,862C 791.833,861.833 792.167,861.667 792.5,861.5C 807.092,869.706 815.426,882.04 817.5,898.5C 830.9,898.662 844.233,897.829 857.5,896C 867.211,894.5 876.211,891.333 884.5,886.5 Z"/></g>
<g><path style="opacity:1" fill="#66686f" d="M 443.5,855.5 C 442.235,858.925 441.235,862.425 440.5,866C 441.158,878.598 441.824,891.098 442.5,903.5C 442.76,909.172 443.093,914.839 443.5,920.5C 436.918,919.178 430.251,918.511 423.5,918.5C 428.127,897.218 433.96,876.218 441,855.5C 441.77,854.402 442.603,854.402 443.5,855.5 Z"/></g>
<g><path style="opacity:1" fill="#757880" d="M 729.5,893.5 C 716.358,892.483 703.192,891.816 690,891.5C 668.522,893.068 647.022,893.568 625.5,893C 615.775,892.46 606.441,890.627 597.5,887.5C 612.743,889.714 628.076,890.714 643.5,890.5C 672.566,889.751 701.566,887.918 730.5,885C 739.833,884.333 749.167,884.333 758.5,885C 748.553,887.537 738.553,889.871 728.5,892C 729.056,892.383 729.389,892.883 729.5,893.5 Z"/></g>
<g><path style="opacity:1" fill="#8c9099" d="M 930.5,918.5 C 930.5,920.167 930.5,921.833 930.5,923.5C 920.319,923.827 910.319,923.494 900.5,922.5C 901.974,918.891 903.974,915.557 906.5,912.5C 910.55,908.948 914.383,905.281 918,901.5C 921.461,902.932 924.961,904.265 928.5,905.5C 930.065,909.687 930.732,914.02 930.5,918.5 Z"/></g>
<g><path style="opacity:1" fill="#82858e" d="M 889.5,919.5 C 890.873,919.343 892.207,919.51 893.5,920C 891.348,922.469 889.848,925.302 889,928.5C 888.014,926.222 887.18,923.889 886.5,921.5C 887.602,920.824 888.602,920.158 889.5,919.5 Z"/></g>
<g><path style="opacity:1" fill="#040405" d="M 678.5,921.5 C 682.571,931.635 687.737,941.302 694,950.5C 699.983,956.819 706.816,961.986 714.5,966C 726.91,975.993 734.244,988.827 736.5,1004.5C 735.325,1004.72 734.325,1004.39 733.5,1003.5C 723.501,988.671 710.501,977.171 694.5,969C 680.021,956.061 674.687,940.228 678.5,921.5 Z"/></g>
<g><path style="opacity:1" fill="#757880" d="M 930.5,918.5 C 931.487,923.305 931.821,928.305 931.5,933.5C 920.714,934.025 910.047,933.192 899.5,931C 898.049,927.888 898.382,925.055 900.5,922.5C 910.319,923.494 920.319,923.827 930.5,923.5C 930.5,921.833 930.5,920.167 930.5,918.5 Z"/></g>
<g><path style="opacity:1" fill="#74777e" d="M 435.5,923.5 C 399.238,939.927 362.571,955.594 325.5,970.5C 331.364,965.147 337.697,960.313 344.5,956C 373.018,940.105 403.351,929.272 435.5,923.5 Z"/></g>
<g><path style="opacity:1" fill="#f4eb9f" d="M 894.5,939.5 C 905.895,944.378 917.895,946.712 930.5,946.5C 930.54,949.881 930.207,953.214 929.5,956.5C 919.478,956.832 909.478,956.499 899.5,955.5C 897.519,950.235 895.852,944.902 894.5,939.5 Z"/></g>
<g><path style="opacity:1" fill="#040405" d="M 823.5,954.5 C 824.552,954.351 825.552,954.517 826.5,955C 840.889,971.132 843.389,988.966 834,1008.5C 826.888,1017.97 817.388,1022.47 805.5,1022C 823.681,1009.47 830.515,992.306 826,970.5C 825.488,965.096 824.655,959.762 823.5,954.5 Z"/></g>
<g><path style="opacity:1" fill="#74777e" d="M 911.5,1005.5 C 910.508,1005.67 909.842,1005.34 909.5,1004.5C 910.497,1004.53 911.164,1004.03 911.5,1003C 908.599,990.134 905.599,977.3 902.5,964.5C 910.25,965.418 917.916,966.752 925.5,968.5C 919.638,980.423 914.972,992.757 911.5,1005.5 Z"/></g>
<g><path style="opacity:1" fill="#767981" d="M 305.5,1120.5 C 304.51,1126.64 304.177,1132.98 304.5,1139.5C 302.55,1096.07 310.217,1054.24 327.5,1014C 277.939,1005.31 238.772,1021.81 210,1063.5C 206.021,1057.03 201.521,1051.03 196.5,1045.5C 201.407,1037.36 206.574,1029.36 212,1021.5C 232.727,995.348 259.894,981.514 293.5,980C 320.913,978.932 347.58,982.599 373.5,991C 361.164,996.752 350.331,1004.59 341,1014.5C 317.328,1045.68 305.495,1081.01 305.5,1120.5 Z"/></g>
<g><path style="opacity:1" fill="#61656f" d="M 367.5,984.5 C 375.826,984.976 384.16,985.309 392.5,985.5C 387.624,986.784 382.624,988.117 377.5,989.5C 373.832,988.333 370.498,986.666 367.5,984.5 Z"/></g>
<g><path style="opacity:1" fill="#757880" d="M 1158.5,1045.5 C 1155.59,1044.84 1155.26,1044.01 1157.5,1043C 1134.43,1022.97 1107.76,1010.13 1077.5,1004.5C 1077.89,999.496 1078.39,994.496 1079,989.5C 1079.52,988.484 1080.35,987.818 1081.5,987.5C 1119.64,995.645 1151.81,1013.98 1178,1042.5C 1180.43,1044.86 1179.93,1045.86 1176.5,1045.5C 1170.34,1044.28 1164.34,1044.28 1158.5,1045.5 Z"/></g>
<g><path style="opacity:1" fill="#757880" d="M 420.5,987.5 C 421.756,987.461 422.756,987.961 423.5,989C 418.611,990.443 413.945,992.443 409.5,995C 395.652,1003.86 383.486,1014.69 373,1027.5C 346.669,1062.15 325.502,1099.82 309.5,1140.5C 310.546,1131.77 312.046,1123.1 314,1114.5C 319.502,1083.32 330.502,1054.32 347,1027.5C 365.139,1002.51 389.639,989.18 420.5,987.5 Z"/></g>
<g><path style="opacity:1" fill="#050506" d="M 481.5,989.5 C 491.788,988.243 501.455,990.076 510.5,995C 511.357,995.689 512.023,996.522 512.5,997.5C 496.446,1003.95 480.446,1003.95 464.5,997.5C 469.584,993.456 475.251,990.79 481.5,989.5 Z"/></g>
<g><path style="opacity:1" fill="#040505" d="M 567.5,1011.5 C 585.694,1011.39 603.694,1013.23 621.5,1017C 643.733,1024.95 666.067,1032.62 688.5,1040C 693.132,1040.83 697.798,1041.33 702.5,1041.5C 712.777,1039.73 723.111,1038.07 733.5,1036.5C 750.111,1037.65 764.777,1043.48 777.5,1054C 775.893,1053.98 774.226,1053.81 772.5,1053.5C 759.682,1047.02 746.016,1044.52 731.5,1046C 710.733,1055.11 689.733,1055.78 668.5,1048C 645.383,1037.28 621.717,1027.94 597.5,1020C 588.622,1017.36 579.622,1015.2 570.5,1013.5C 568.97,1013.36 567.97,1012.69 567.5,1011.5 Z"/></g>
<g><path style="opacity:1" fill="#767981" d="M 567.5,1011.5 C 567.97,1012.69 568.97,1013.36 570.5,1013.5C 579.622,1015.2 588.622,1017.36 597.5,1020C 621.717,1027.94 645.383,1037.28 668.5,1048C 689.733,1055.78 710.733,1055.11 731.5,1046C 746.016,1044.52 759.682,1047.02 772.5,1053.5C 761.241,1051.66 749.907,1051.16 738.5,1052C 718.207,1056.16 697.874,1060.16 677.5,1064C 660.664,1066.01 644.33,1064.01 628.5,1058C 604.885,1047.05 584.052,1032.22 566,1013.5C 565.472,1012.18 565.972,1011.52 567.5,1011.5 Z"/></g>
<g><path style="opacity:1" fill="#d4d5d9" d="M 167.5,1101.5 C 156.436,1112.28 148.936,1125.28 145,1140.5C 136.836,1180.04 136.336,1219.7 143.5,1259.5C 143.48,1260.73 143.147,1261.73 142.5,1262.5C 118.299,1186.04 130.465,1116.04 179,1052.5C 174.08,1068.52 170.247,1084.85 167.5,1101.5 Z"/></g>
<g><path style="opacity:1" fill="#050505" d="M 492.5,1309.5 C 489.287,1309.19 486.287,1309.52 483.5,1310.5C 451.928,1315.87 426.762,1331.54 408,1357.5C 407.383,1358.45 407.549,1359.28 408.5,1360C 397.789,1374.92 389.289,1391.09 383,1408.5C 382.056,1407.74 381.556,1406.74 381.5,1405.5C 387.241,1382.03 397.241,1360.69 411.5,1341.5C 434.212,1313.98 463.546,1299.48 499.5,1298C 522.037,1243.83 529.537,1187.66 522,1129.5C 516.877,1103.94 507.377,1080.27 493.5,1058.5C 493.369,1057.62 493.702,1056.96 494.5,1056.5C 504.117,1066.39 512.284,1077.39 519,1089.5C 519.561,1090.02 520.228,1090.36 521,1090.5C 550.98,1072.21 583.48,1064.71 618.5,1068C 626.724,1068.89 634.724,1070.72 642.5,1073.5C 601.905,1077.27 561.905,1084.27 522.5,1094.5C 539.963,1136.36 543.297,1179.36 532.5,1223.5C 533,1223.83 533.5,1224.17 534,1224.5C 561.634,1213.11 589.801,1211.61 618.5,1220C 589.991,1227.52 560.991,1230.68 531.5,1229.5C 525.94,1251.29 517.607,1271.95 506.5,1291.5C 507.262,1291.91 508.262,1292.08 509.5,1292C 507.638,1293.76 505.638,1295.26 503.5,1296.5C 507.459,1297.33 511.459,1297.83 515.5,1298C 512.629,1299.93 509.629,1301.6 506.5,1303C 507.5,1304.67 508.5,1306.33 509.5,1308C 503.652,1308.17 497.985,1308.67 492.5,1309.5 Z"/></g>
<g><path style="opacity:1" fill="#d8d9dd" d="M 493.5,1058.5 C 507.377,1080.27 516.877,1103.94 522,1129.5C 529.537,1187.66 522.037,1243.83 499.5,1298C 463.546,1299.48 434.212,1313.98 411.5,1341.5C 418.829,1327.52 427.662,1314.52 438,1302.5C 449.082,1291.08 460.416,1280.08 472,1269.5C 493.187,1227.55 503.02,1183.05 501.5,1136C 501.798,1109.85 499.131,1084.02 493.5,1058.5 Z"/></g>
<g><path style="opacity:1" fill="#040404" d="M 855.5,1063.5 C 856.649,1063.79 857.316,1064.62 857.5,1066C 855.092,1083.41 845.259,1092.91 828,1094.5C 816.316,1093.51 807.816,1087.67 802.5,1077C 808.46,1078.43 814.46,1080.09 820.5,1082C 829.154,1082.89 836.82,1080.56 843.5,1075C 848.002,1071.66 852.002,1067.83 855.5,1063.5 Z"/></g>
<g><path style="opacity:1" fill="#74767e" d="M 1208.5,1068.5 C 1216.79,1074.96 1224.29,1082.29 1231,1090.5C 1247.8,1115.57 1256.13,1143.24 1256,1173.5C 1253.52,1170.51 1250.69,1168.17 1247.5,1166.5C 1247.67,1158.83 1247.5,1151.16 1247,1143.5C 1243.5,1127.5 1237.5,1112.5 1229,1098.5C 1222.31,1088.33 1215.48,1078.33 1208.5,1068.5 Z"/></g>
<g><path style="opacity:1" fill="#d8d9dd" d="M 1043.5,1104.5 C 1077.08,1130.27 1100.91,1163.27 1115,1203.5C 1129.08,1246.81 1131.75,1290.81 1123,1335.5C 1115.27,1374.41 1104.44,1412.41 1090.5,1449.5C 1088.13,1454.28 1086.13,1459.28 1084.5,1464.5C 1077.05,1480.74 1069.55,1497.08 1062,1513.5C 1076.14,1461.03 1088.47,1408.03 1099,1354.5C 1105.01,1322.1 1108.01,1289.43 1108,1256.5C 1099.65,1199.99 1077.82,1149.49 1042.5,1105C 1042.73,1104.6 1043.06,1104.43 1043.5,1104.5 Z"/></g>
<g><path style="opacity:1" fill="#060606" d="M 1043.5,1104.5 C 1043.56,1103.96 1043.89,1103.62 1044.5,1103.5C 1090.17,1133.44 1119.67,1175.11 1133,1228.5C 1147.92,1290.77 1142.42,1351.1 1116.5,1409.5C 1117,1409.83 1117.5,1410.17 1118,1410.5C 1138.98,1403.14 1160.48,1400.64 1182.5,1403C 1199.75,1407.45 1214.75,1415.79 1227.5,1428C 1251.85,1453.18 1270.85,1482.02 1284.5,1514.5C 1283.96,1516.27 1283.13,1516.6 1282,1515.5C 1265.05,1484.21 1243.22,1456.71 1216.5,1433C 1193.53,1414.67 1167.87,1409.67 1139.5,1418C 1129.31,1420.4 1119.31,1423.4 1109.5,1427C 1100.4,1446.04 1090.9,1464.87 1081,1483.5C 1080.33,1482.5 1080.33,1481.5 1081,1480.5C 1087.73,1465.71 1093.9,1450.71 1099.5,1435.5C 1109.55,1410.85 1117.72,1385.52 1124,1359.5C 1125.44,1352.54 1126.11,1345.54 1126,1338.5C 1118.51,1366.12 1111.18,1393.79 1104,1421.5C 1102.45,1425.98 1100.62,1430.32 1098.5,1434.5C 1096.17,1439.83 1093.83,1445.17 1091.5,1450.5C 1090.83,1450.5 1090.5,1450.17 1090.5,1449.5C 1104.44,1412.41 1115.27,1374.41 1123,1335.5C 1131.75,1290.81 1129.08,1246.81 1115,1203.5C 1100.91,1163.27 1077.08,1130.27 1043.5,1104.5 Z"/></g>
<g><path style="opacity:1" fill="#040405" d="M 814.5,1149.5 C 814.44,1150.04 814.107,1150.38 813.5,1150.5C 799.079,1143.19 784.079,1137.36 768.5,1133C 739.723,1125.47 711.056,1117.97 682.5,1110.5C 721.477,1105.38 758.144,1112.22 792.5,1131C 800.61,1136.28 807.943,1142.45 814.5,1149.5 Z"/></g>
<g><path style="opacity:1" fill="#767981" d="M 682.5,1110.5 C 711.056,1117.97 739.723,1125.47 768.5,1133C 784.079,1137.36 799.079,1143.19 813.5,1150.5C 814.107,1150.38 814.44,1150.04 814.5,1149.5C 815.043,1149.56 815.376,1149.89 815.5,1150.5C 767.193,1150.25 722.527,1137.25 681.5,1111.5C 681.624,1110.89 681.957,1110.56 682.5,1110.5 Z"/></g>
<g><path style="opacity:1" fill="#313235" d="M 305.5,1120.5 C 305.334,1129.84 305.5,1139.17 306,1148.5C 306.278,1149.42 306.778,1150.08 307.5,1150.5C 306.791,1151.4 305.791,1151.74 304.5,1151.5C 304.5,1147.5 304.5,1143.5 304.5,1139.5C 304.177,1132.98 304.51,1126.64 305.5,1120.5 Z"/></g>
<g><path style="opacity:1" fill="#757880" d="M 952.5,1219.5 C 934.859,1234.97 917.025,1250.3 899,1265.5C 899.526,1282.82 899.526,1300.15 899,1317.5C 894.002,1364.15 875.169,1403.81 842.5,1436.5C 880.241,1381.53 895.408,1320.87 888,1254.5C 908.995,1241.92 930.495,1230.25 952.5,1219.5 Z"/></g>
<g><path style="opacity:1" fill="#d5d6da" d="M 150.5,1261.5 C 157.183,1288.55 167.516,1314.21 181.5,1338.5C 175.504,1333.34 170.004,1327.67 165,1321.5C 149.763,1303.89 144.93,1283.89 150.5,1261.5 Z"/></g>
<g><path style="opacity:1" fill="#0a0a0b" d="M 356.5,1363.5 C 343.624,1359.8 333.791,1352.13 327,1340.5C 318.124,1324.91 314.957,1308.24 317.5,1290.5C 318.825,1289.05 319.658,1289.38 320,1291.5C 320.913,1321.53 333.08,1345.53 356.5,1363.5 Z"/></g>
<g><path style="opacity:1" fill="#757880" d="M 356.5,1363.5 C 333.08,1345.53 320.913,1321.53 320,1291.5C 319.658,1289.38 318.825,1289.05 317.5,1290.5C 317.604,1288.03 318.604,1287.36 320.5,1288.5C 332.411,1312.66 344.578,1336.66 357,1360.5C 357.74,1361.75 357.573,1362.75 356.5,1363.5 Z"/></g>
<g><path style="opacity:1" fill="#767981" d="M 1248.5,1169.5 C 1277.76,1221.12 1279.1,1273.62 1252.5,1327C 1259.32,1323.01 1264.49,1317.17 1268,1309.5C 1268.72,1308.55 1269.55,1308.38 1270.5,1309C 1295.25,1335.11 1314.41,1364.95 1328,1398.5C 1346.11,1450.17 1351.28,1503.17 1343.5,1557.5C 1340.5,1557.5 1337.5,1557.5 1334.5,1557.5C 1335.66,1519.12 1331.16,1481.45 1321,1444.5C 1307.53,1398.93 1284.03,1359.6 1250.5,1326.5C 1252.23,1316.87 1253.73,1307.21 1255,1297.5C 1257.82,1254.58 1255.65,1211.92 1248.5,1169.5 Z"/></g>
<g><path style="opacity:1" fill="#d9dade" d="M 492.5,1309.5 C 498.509,1309.33 504.509,1309.5 510.5,1310C 515.215,1317.93 519.549,1326.1 523.5,1334.5C 495.855,1331.26 468.855,1334.42 442.5,1344C 431.723,1348.4 421.056,1352.73 410.5,1357C 429.082,1332.38 453.415,1316.88 483.5,1310.5C 486.287,1309.52 489.287,1309.19 492.5,1309.5 Z"/></g>
<g><path style="opacity:1" fill="#030304" d="M 739.5,1317.5 C 701.768,1343.49 687.601,1379.15 697,1424.5C 700.751,1442.84 705.751,1460.84 712,1478.5C 718.806,1494.58 725.806,1510.58 733,1526.5C 737.226,1536.4 739.392,1546.74 739.5,1557.5C 737.833,1557.5 736.167,1557.5 734.5,1557.5C 732.84,1550.69 730.673,1544.02 728,1537.5C 720.255,1522.34 712.255,1507.34 704,1492.5C 695.469,1473.91 689.136,1454.57 685,1434.5C 680.367,1414.49 680.367,1394.49 685,1374.5C 695.051,1342.78 715.885,1322.28 747.5,1313C 744.644,1314.26 741.977,1315.76 739.5,1317.5 Z"/></g>
<g><path style="opacity:1" fill="#030404" d="M 1245.5,1387.5 C 1233.56,1364.05 1216.22,1345.55 1193.5,1332C 1184.3,1326.9 1174.96,1322.07 1165.5,1317.5C 1193.59,1316.34 1216.76,1327.34 1235,1350.5C 1242.41,1360.49 1246.91,1371.65 1248.5,1384C 1248.17,1385.5 1247.83,1387 1247.5,1388.5C 1246.82,1388.14 1246.15,1387.8 1245.5,1387.5 Z"/></g>
<g><path style="opacity:1" fill="#767981" d="M 739.5,1317.5 C 735.771,1323.96 732.271,1330.62 729,1337.5C 718.059,1362.26 715.059,1387.92 720,1414.5C 736.295,1460.76 743.128,1508.43 740.5,1557.5C 740.167,1557.5 739.833,1557.5 739.5,1557.5C 739.392,1546.74 737.226,1536.4 733,1526.5C 725.806,1510.58 718.806,1494.58 712,1478.5C 705.751,1460.84 700.751,1442.84 697,1424.5C 687.601,1379.15 701.768,1343.49 739.5,1317.5 Z"/></g>
<g><path style="opacity:1" fill="#75777f" d="M 1165.5,1317.5 C 1174.96,1322.07 1184.3,1326.9 1193.5,1332C 1216.22,1345.55 1233.56,1364.05 1245.5,1387.5C 1221.37,1367.21 1197.37,1346.71 1173.5,1326C 1170.58,1323.25 1167.91,1320.42 1165.5,1317.5 Z"/></g>
<g><path style="opacity:1" fill="#7d8189" d="M 1099.5,1435.5 C 1099.5,1434.83 1099.17,1434.5 1098.5,1434.5C 1100.62,1430.32 1102.45,1425.98 1104,1421.5C 1111.18,1393.79 1118.51,1366.12 1126,1338.5C 1126.11,1345.54 1125.44,1352.54 1124,1359.5C 1117.72,1385.52 1109.55,1410.85 1099.5,1435.5 Z"/></g>
<g><path style="opacity:1" fill="#777a82" d="M 267.5,1437.5 C 245.132,1422.22 221.632,1408.55 197,1396.5C 196.333,1402.17 196.333,1407.83 197,1413.5C 201.374,1430.58 208.707,1446.25 219,1460.5C 245.037,1494.87 275.87,1524.04 311.5,1548C 315.099,1550.95 318.433,1554.12 321.5,1557.5C 296.833,1557.5 272.167,1557.5 247.5,1557.5C 240.517,1552.03 233.35,1546.7 226,1541.5C 225.601,1541.73 225.435,1542.06 225.5,1542.5C 223.965,1540.06 223.132,1537.39 223,1534.5C 224.572,1536.56 226.405,1537.23 228.5,1536.5C 212.635,1519.11 201.135,1499.11 194,1476.5C 184.7,1439.36 184.034,1402.03 192,1364.5C 209.167,1379 226.333,1393.5 243.5,1408C 249,1413.5 254.5,1419 260,1424.5C 263.155,1428.48 265.655,1432.81 267.5,1437.5 Z"/></g>
<g><path style="opacity:1" fill="#050505" d="M 975.5,1510.5 C 976.895,1484.5 976.728,1458.5 975,1432.5C 973.657,1413.55 968.491,1395.88 959.5,1379.5C 957.676,1376.19 956.176,1372.86 955,1369.5C 963.049,1374.55 969.382,1381.22 974,1389.5C 983.835,1406.51 989.169,1424.84 990,1444.5C 991.401,1473.17 986.734,1500.83 976,1527.5C 975.501,1521.84 975.334,1516.18 975.5,1510.5 Z"/></g>
<g><path style="opacity:1" fill="#767981" d="M 959.5,1379.5 C 968.491,1395.88 973.657,1413.55 975,1432.5C 976.728,1458.5 976.895,1484.5 975.5,1510.5C 963.021,1467.87 957.688,1424.21 959.5,1379.5 Z"/></g>
<g><path style="opacity:1" fill="#46474a" d="M 1090.5,1449.5 C 1090.5,1450.17 1090.83,1450.5 1091.5,1450.5C 1089.54,1455.42 1087.2,1460.08 1084.5,1464.5C 1086.13,1459.28 1088.13,1454.28 1090.5,1449.5 Z"/></g>
<g><path style="opacity:1" fill="#030303" d="M 382.5,1508.5 C 393.506,1520.85 406.839,1530.02 422.5,1536C 446.64,1545.36 471.307,1552.53 496.5,1557.5C 478.5,1557.5 460.5,1557.5 442.5,1557.5C 433.351,1553.93 424.351,1549.76 415.5,1545C 400.307,1536.64 388.641,1524.81 380.5,1509.5C 380.957,1508.7 381.624,1508.37 382.5,1508.5 Z"/></g>
<g><path style="opacity:1" fill="#757880" d="M 382.5,1508.5 C 425.871,1524.86 469.204,1541.19 512.5,1557.5C 507.167,1557.5 501.833,1557.5 496.5,1557.5C 471.307,1552.53 446.64,1545.36 422.5,1536C 406.839,1530.02 393.506,1520.85 382.5,1508.5 Z"/></g>
<g><path style="opacity:1" fill="#8e929c" d="M 247.5,1557.5 C 241.833,1557.5 236.167,1557.5 230.5,1557.5C 228.556,1552.61 226.89,1547.61 225.5,1542.5C 225.435,1542.06 225.601,1541.73 226,1541.5C 233.35,1546.7 240.517,1552.03 247.5,1557.5 Z"/></g>
</svg>
