<?xml version="1.0" encoding="UTF-8"?>
<!DOCTYPE svg PUBLIC "-//W3C//DTD SVG 1.1//EN" "http://www.w3.org/Graphics/SVG/1.1/DTD/svg11.dtd">
<svg xmlns="http://www.w3.org/2000/svg" version="1.1" width="64px" height="64px" style="shape-rendering:geometricPrecision; text-rendering:geometricPrecision; image-rendering:optimizeQuality; fill-rule:evenodd; clip-rule:evenodd" xmlns:xlink="http://www.w3.org/1999/xlink">
<g><path style="opacity:0.969" fill="#030302" d="M 23.5,-0.5 C 28.8333,-0.5 34.1667,-0.5 39.5,-0.5C 51.1667,3.83333 59.1667,11.8333 63.5,23.5C 63.5,28.8333 63.5,34.1667 63.5,39.5C 63.1667,39.5 62.8333,39.5 62.5,39.5C 62.5,38.8333 62.5,38.1667 62.5,37.5C 62.7678,35.901 62.4345,34.5676 61.5,33.5C 60.0813,32.5489 58.4147,32.2155 56.5,32.5C 56.1667,32.5 55.8333,32.5 55.5,32.5C 55.1583,31.6618 54.4916,31.3284 53.5,31.5C 49.441,30.6362 45.7743,28.9695 42.5,26.5C 42.7373,25.209 42.404,24.209 41.5,23.5C 39.2743,22.2437 36.941,22.2437 34.5,23.5C 33.8333,23.5 33.5,23.8333 33.5,24.5C 31.1516,24.3305 28.8183,23.9971 26.5,23.5C 24.0884,23.4062 22.255,24.4062 21,26.5C 20.2163,20.7656 17.7163,15.9322 13.5,12C 11.0106,11.0589 9.01064,11.5589 7.5,13.5C 4.5505,15.7275 2.88383,18.7275 2.5,22.5C 1.61847,26.9093 2.95181,30.4093 6.5,33C 10.6253,33.7037 14.1253,35.537 17,38.5C 17.6112,41.7213 18.7778,44.7213 20.5,47.5C 23.7577,48.4173 27.091,48.7507 30.5,48.5C 35.1667,49.8333 39.8333,49.8333 44.5,48.5C 47.7644,47.6758 51.0977,47.3424 54.5,47.5C 55.5,47.1667 56.1667,46.5 56.5,45.5C 58.7153,46.3066 60.0487,45.3066 60.5,42.5C 60.5,42.1667 60.5,41.8333 60.5,41.5C 61.1667,41.5 61.5,41.1667 61.5,40.5C 61.8333,40.5 62.1667,40.5 62.5,40.5C 58.4677,51.8657 50.801,59.5323 39.5,63.5C 34.1667,63.5 28.8333,63.5 23.5,63.5C 11.8333,59.1667 3.83333,51.1667 -0.5,39.5C -0.5,34.1667 -0.5,28.8333 -0.5,23.5C 3.83333,11.8333 11.8333,3.83333 23.5,-0.5 Z"/></g>
<g><path style="opacity:1" fill="#cacacb" d="M 7.5,13.5 C 7.91753,14.2216 8.5842,14.7216 9.5,15C 7.03621,18.0492 5.53621,21.5492 5,25.5C 4.62325,24.0577 3.78991,23.0577 2.5,22.5C 2.88383,18.7275 4.5505,15.7275 7.5,13.5 Z"/></g>
<g><path style="opacity:1" fill="#f2f2f2" d="M 33.5,24.5 C 36.3447,25.3438 39.3447,26.0104 42.5,26.5C 45.7743,28.9695 49.441,30.6362 53.5,31.5C 52.3915,32.29 51.0581,32.79 49.5,33C 51.5976,33.6776 53.5976,33.5109 55.5,32.5C 55.8333,32.5 56.1667,32.5 56.5,32.5C 57.3005,34.896 58.3005,37.2293 59.5,39.5C 60.944,38.019 61.6106,38.3523 61.5,40.5C 61.5,41.1667 61.1667,41.5 60.5,41.5C 58.5648,40.8505 56.5648,40.5172 54.5,40.5C 50.8083,42.147 47.3083,41.8137 44,39.5C 40.562,39.9222 37.3953,40.9222 34.5,42.5C 31.8333,42.5 29.1667,42.5 26.5,42.5C 24.7376,42.6427 23.0709,42.3094 21.5,41.5C 21.1667,41.6667 20.8333,41.8333 20.5,42C 23.789,44.2088 27.4557,45.0421 31.5,44.5C 33.8333,44.5 36.1667,44.5 38.5,44.5C 40.3417,44.2767 42.175,43.9434 44,43.5C 46.9569,44.7965 49.7902,45.4632 52.5,45.5C 53.8333,45.5 54.5,46.1667 54.5,47.5C 51.0977,47.3424 47.7644,47.6758 44.5,48.5C 39.8965,47.4843 35.2298,47.4843 30.5,48.5C 27.091,48.7507 23.7577,48.4173 20.5,47.5C 18.7778,44.7213 17.6112,41.7213 17,38.5C 14.1253,35.537 10.6253,33.7037 6.5,33C 2.95181,30.4093 1.61847,26.9093 2.5,22.5C 3.78991,23.0577 4.62325,24.0577 5,25.5C 5.53621,21.5492 7.03621,18.0492 9.5,15C 8.5842,14.7216 7.91753,14.2216 7.5,13.5C 9.01064,11.5589 11.0106,11.0589 13.5,12C 17.7163,15.9322 20.2163,20.7656 21,26.5C 22.255,24.4062 24.0884,23.4062 26.5,23.5C 28.8183,23.9971 31.1516,24.3305 33.5,24.5 Z"/></g>
<g><path style="opacity:1" fill="#e3e3e3" d="M 41.5,23.5 C 39.1667,24.8333 36.8333,24.8333 34.5,23.5C 36.941,22.2437 39.2743,22.2437 41.5,23.5 Z"/></g>
<g><path style="opacity:1" fill="#949494" d="M 34.5,23.5 C 36.8333,24.8333 39.1667,24.8333 41.5,23.5C 42.404,24.209 42.7373,25.209 42.5,26.5C 39.3447,26.0104 36.3447,25.3438 33.5,24.5C 33.5,23.8333 33.8333,23.5 34.5,23.5 Z"/></g>
<g><path style="opacity:1" fill="#a0a0a0" d="M 15.5,17.5 C 18.0084,21.9417 18.0084,26.4417 15.5,31C 13.0288,31.7063 10.6954,31.373 8.5,30C 9.43782,28.9367 10.4378,27.7701 11.5,26.5C 13.4879,27.2888 13.8213,28.4555 12.5,30C 13.4491,30.6172 14.2825,30.4506 15,29.5C 15.4988,25.5138 15.6655,21.5138 15.5,17.5 Z"/></g>
<g><path style="opacity:1" fill="#0e0e0e" d="M 29.5,26.5 C 36.0869,26.1857 37.4202,28.3524 33.5,33C 26.0885,34.2235 24.7552,32.0569 29.5,26.5 Z"/></g>
<g><path style="opacity:1" fill="#949494" d="M 53.5,31.5 C 54.4916,31.3284 55.1583,31.6618 55.5,32.5C 53.5976,33.5109 51.5976,33.6776 49.5,33C 51.0581,32.79 52.3915,32.29 53.5,31.5 Z"/></g>
<g><path style="opacity:1" fill="#f4f4f4" d="M 61.5,33.5 C 62.4345,34.5676 62.7678,35.901 62.5,37.5C 61.1851,36.5244 59.8518,35.5244 58.5,34.5C 59.325,33.6143 60.325,33.281 61.5,33.5 Z"/></g>
<g><path style="opacity:1" fill="#858585" d="M 14.5,34.5 C 14.8966,33.475 15.5632,33.3083 16.5,34C 18.0074,34.8373 18.5074,36.0039 18,37.5C 16.9609,36.2899 15.7942,35.2899 14.5,34.5 Z"/></g>
<g><path style="opacity:1" fill="#797979" d="M 56.5,32.5 C 58.4147,32.2155 60.0813,32.5489 61.5,33.5C 60.325,33.281 59.325,33.6143 58.5,34.5C 59.8518,35.5244 61.1851,36.5244 62.5,37.5C 62.5,38.1667 62.5,38.8333 62.5,39.5C 62.5,39.8333 62.5,40.1667 62.5,40.5C 62.1667,40.5 61.8333,40.5 61.5,40.5C 61.6106,38.3523 60.944,38.019 59.5,39.5C 58.3005,37.2293 57.3005,34.896 56.5,32.5 Z"/></g>
<g><path style="opacity:1" fill="#151515" d="M 54.5,40.5 C 54.6347,42.5542 53.968,44.2209 52.5,45.5C 49.7902,45.4632 46.9569,44.7965 44,43.5C 42.175,43.9434 40.3417,44.2767 38.5,44.5C 37.1667,43.8333 35.8333,43.1667 34.5,42.5C 37.3953,40.9222 40.562,39.9222 44,39.5C 47.3083,41.8137 50.8083,42.147 54.5,40.5 Z"/></g>
<g><path style="opacity:1" fill="#1b1b1b" d="M 26.5,42.5 C 28.1667,43.1667 29.8333,43.8333 31.5,44.5C 27.4557,45.0421 23.789,44.2088 20.5,42C 20.8333,41.8333 21.1667,41.6667 21.5,41.5C 23.0709,42.3094 24.7376,42.6427 26.5,42.5 Z"/></g>
<g><path style="opacity:1" fill="#a8a8a8" d="M 26.5,42.5 C 29.1667,42.5 31.8333,42.5 34.5,42.5C 35.8333,43.1667 37.1667,43.8333 38.5,44.5C 36.1667,44.5 33.8333,44.5 31.5,44.5C 29.8333,43.8333 28.1667,43.1667 26.5,42.5 Z"/></g>
<g><path style="opacity:1" fill="#e7e7e7" d="M 60.5,42.5 C 60.0487,45.3066 58.7153,46.3066 56.5,45.5C 55.218,44.2918 55.218,42.9584 56.5,41.5C 57.2508,42.376 57.7508,43.376 58,44.5C 58.4169,43.244 59.2502,42.5774 60.5,42.5 Z"/></g>
<g><path style="opacity:1" fill="#9b9b9b" d="M 54.5,40.5 C 56.5648,40.5172 58.5648,40.8505 60.5,41.5C 60.5,41.8333 60.5,42.1667 60.5,42.5C 59.2502,42.5774 58.4169,43.244 58,44.5C 57.7508,43.376 57.2508,42.376 56.5,41.5C 55.218,42.9584 55.218,44.2918 56.5,45.5C 56.1667,46.5 55.5,47.1667 54.5,47.5C 54.5,46.1667 53.8333,45.5 52.5,45.5C 53.968,44.2209 54.6347,42.5542 54.5,40.5 Z"/></g>
<g><path style="opacity:1" fill="#9e9e9e" d="M 44.5,48.5 C 39.8333,49.8333 35.1667,49.8333 30.5,48.5C 35.2298,47.4843 39.8965,47.4843 44.5,48.5 Z"/></g>
</svg>
